<?xml version="1.0" encoding="UTF-8" standalone="no"?>
<svg
   xmlns:dc="http://purl.org/dc/elements/1.1/"
   xmlns:cc="http://creativecommons.org/ns#"
   xmlns:rdf="http://www.w3.org/1999/02/22-rdf-syntax-ns#"
   xmlns:svg="http://www.w3.org/2000/svg"
   xmlns="http://www.w3.org/2000/svg"
   viewBox="0 0 100 100"
   version="1.1"
   id="svg4">
  <metadata
     id="metadata10">
    <rdf:RDF>
      <cc:Work
         rdf:about="">
        <dc:format>image/svg+xml</dc:format>
        <dc:type
           rdf:resource="http://purl.org/dc/dcmitype/StillImage" />
        <dc:title></dc:title>
      </cc:Work>
    </rdf:RDF>
  </metadata>
  <defs
     id="defs8" />
  <path
     d="m 44.4,64.8 c 1.7,-0.5 3.6,-0.7 5.5,-0.7 2,0 4,0.3 5.7,0.8 l 6,-49 c 0.1,-0.5 0.1,-1 0.1,-1.6 0,-6.5 -5.3,-11.8 -11.8,-11.8 -3.4,0 -6.6,1.5 -8.8,4 -2.2,2.6 -3.4,6 -3,9.3 z"
     id="path12" />
  <path
     d="m 50,73.7 c -6.5,0 -11.9,5.3 -11.9,11.8 0,6.6 5.3,11.9 11.9,11.9 6.6,0 11.9,-5.4 11.9,-11.9 C 61.9,79 56.5,73.7 50,73.7 Z"
     id="path14" />
</svg>
