<svg xmlns="http://www.w3.org/2000/svg" viewBox="0 0 16.933 16.933" height="64" width="64"><defs><clipPath clipPathUnits="userSpaceOnUse" id="a"><circle cx="-1714.743" cy="-1870.497" r="568.267" transform="scale(1 -1)" fill="#9ddff1" stroke-width="28.053" stroke-linecap="round" stroke-linejoin="round"/></clipPath><clipPath clipPathUnits="userSpaceOnUse" id="b"><circle cx="1256.554" cy="855.244" r="50.687" transform="scale(1 -1)" fill="#9ddff1" stroke-width="2.502" stroke-linecap="round" stroke-linejoin="round"/></clipPath><clipPath clipPathUnits="userSpaceOnUse" id="c"><circle cx="1256.554" cy="855.244" r="50.687" transform="scale(1 -1)" fill="#9ddff1" stroke-width="2.502" stroke-linecap="round" stroke-linejoin="round"/></clipPath></defs><g transform="matrix(.4735 0 0 .47302 -6.206 -13.35)"><circle r="17.881" cy="46.105" cx="30.988" fill="#9ddff1" stroke-width=".883" stroke-linecap="round" stroke-linejoin="round"/><path d="M43.317 33.166l-25.26 25.26a17.881 17.881 0 0012.93 5.54 17.881 17.881 0 0017.88-17.88 17.881 17.881 0 00-5.55-12.92z" fill-opacity=".234" stroke-width=".405"/><g clip-path="url(#a)" transform="matrix(.03147 0 0 -.03147 84.944 104.962)"><g fill-rule="evenodd" stroke-width=".052"><path d="M-1703.121 2227.428l-546.654-546.654a568.267 568.267 0 01331.48-340.152l508.603 50.566a568.267 568.267 0 01236.507 307.733z" fill="#f7af59"/><path d="M-1703.121 2227.428l309.753-824.842a568.267 568.267 0 01220.183 296.335z" fill="#d78530"/></g></g><path transform="matrix(.35278 0 0 -.35278 -412.296 -255.607)" clip-path="url(#b)" d="M1224.282-834.443c10.444 0 18.961 8.518 18.961 18.96 0 10.444-8.517 18.962-18.96 18.962-10.444 0-18.962-8.518-18.962-18.961 0-10.443 8.518-18.96 18.961-18.96" fill="#fafdff" fill-rule="evenodd" stroke-width=".023"/><path transform="matrix(.35278 0 0 -.35278 -412.296 -255.606)" clip-path="url(#c)" d="M1306.995-863.55v-44.283h-109.768v33.337c6.471 4.337 13.609 6.655 20.84 6.734 10.604.116 21.002-3.193 30.275-9.636 6.88-4.78 15.244-4.503 22.124.731 11.346 8.632 23.962 13.017 36.53 13.116" fill="#fcd2a0" fill-rule="evenodd" stroke-width=".021"/><path d="M17.607 50.548c-1.286.01-2.562.188-3.801.513a17.881 17.881 0 006.232 9.18 4.921 4.921 0 00-.162-9.358l-1.007-.309c-.42-.02-.84-.03-1.262-.026z" fill="#fabf77" stroke-width=".883" stroke-linecap="round" stroke-linejoin="round"/><path d="M45.858 55.272c-4.024-.113-9.358 1.499-12.615 3.379a17.038 17.038 0 01-13.15 1.64 17.881 17.881 0 0010.895 3.73 17.881 17.881 0 0015.336-8.728c-.153-.01-.308-.017-.466-.021z" fill="#fabf77" fill-rule="evenodd" stroke-width=".006"/></g></svg>