<?xml version="1.0" encoding="UTF-8" standalone="no"?>
<svg
   xmlns:dc="http://purl.org/dc/elements/1.1/"
   xmlns:cc="http://creativecommons.org/ns#"
   xmlns:rdf="http://www.w3.org/1999/02/22-rdf-syntax-ns#"
   xmlns:svg="http://www.w3.org/2000/svg"
   xmlns="http://www.w3.org/2000/svg"
   xmlns:sodipodi="http://sodipodi.sourceforge.net/DTD/sodipodi-0.dtd"
   xmlns:inkscape="http://www.inkscape.org/namespaces/inkscape"
   inkscape:export-ydpi="192"
   inkscape:export-xdpi="192"
   inkscape:export-filename="/home/adrien/Stockage/Code/ProjetDuMois/website/images/favicon.png"
   sodipodi:docname="favicon.svg"
   inkscape:version="1.0 (4035a4fb49, 2020-05-01)"
   id="svg6957"
   version="1.1"
   viewBox="0 0 16.933333 16.933333"
   height="64"
   width="64">
  <defs
     id="defs6951">
    <clipPath
       clipPathUnits="userSpaceOnUse"
       id="clipPath6851">
      <circle
         style="opacity:1;vector-effect:none;fill:#9ddff1;fill-opacity:1;stroke:none;stroke-width:28.053;stroke-linecap:round;stroke-linejoin:round;stroke-miterlimit:4;stroke-dasharray:none;stroke-dashoffset:0;stroke-opacity:1"
         id="circle6853"
         cx="-1714.7426"
         cy="-1870.4968"
         r="568.26697"
         transform="scale(1,-1)" />
    </clipPath>
    <clipPath
       clipPathUnits="userSpaceOnUse"
       id="clipPath6831">
      <circle
         style="opacity:1;vector-effect:none;fill:#9ddff1;fill-opacity:1;stroke:none;stroke-width:2.50218;stroke-linecap:round;stroke-linejoin:round;stroke-miterlimit:4;stroke-dasharray:none;stroke-dashoffset:0;stroke-opacity:1"
         id="circle6833"
         cx="1256.554"
         cy="855.24402"
         r="50.686535"
         transform="scale(1,-1)" />
    </clipPath>
    <clipPath
       clipPathUnits="userSpaceOnUse"
       id="clipPath6841">
      <circle
         style="opacity:1;vector-effect:none;fill:#9ddff1;fill-opacity:1;stroke:none;stroke-width:2.50218;stroke-linecap:round;stroke-linejoin:round;stroke-miterlimit:4;stroke-dasharray:none;stroke-dashoffset:0;stroke-opacity:1"
         id="circle6843"
         cx="1256.554"
         cy="855.24402"
         r="50.686535"
         transform="scale(1,-1)" />
    </clipPath>
  </defs>
  <sodipodi:namedview
     units="px"
     showgrid="false"
     inkscape:document-rotation="0"
     inkscape:current-layer="layer1"
     inkscape:document-units="mm"
     inkscape:cy="39.180862"
     inkscape:cx="1.774283"
     inkscape:zoom="5.6"
     inkscape:pageshadow="2"
     inkscape:pageopacity="0.0"
     borderopacity="1.0"
     bordercolor="#666666"
     pagecolor="#ffffff"
     id="base" />
  <metadata
     id="metadata6954">
    <rdf:RDF>
      <cc:Work
         rdf:about="">
        <dc:format>image/svg+xml</dc:format>
        <dc:type
           rdf:resource="http://purl.org/dc/dcmitype/StillImage" />
        <dc:title></dc:title>
      </cc:Work>
    </rdf:RDF>
  </metadata>
  <g
     id="layer1"
     inkscape:groupmode="layer"
     inkscape:label="Calque 1">
    <g
       transform="matrix(0.47349784,0,0,0.47301843,-6.2061454,-13.35004)"
       id="g7578">
      <circle
         r="17.881084"
         cy="46.10524"
         cx="30.988153"
         id="path6814"
         style="vector-effect:none;fill:#9ddff1;fill-opacity:1;stroke:none;stroke-width:0.882713;stroke-linecap:round;stroke-linejoin:round;stroke-miterlimit:4;stroke-dasharray:none;stroke-dashoffset:0;stroke-opacity:1" />
      <path
         style="fill:#000000;fill-opacity:0.234177;fill-rule:nonzero;stroke:none;stroke-width:0.404763"
         d="M 43.317111,33.165566 18.056106,58.426564 a 17.881083,17.881083 0 0 0 12.930011,5.540199 17.881083,17.881083 0 0 0 17.88107,-17.88106 17.881083,17.881083 0 0 0 -5.550076,-12.920137 z"
         id="path2486-6-3-4"
         inkscape:connector-curvature="0" />
      <g
         clip-path="url(#clipPath6851)"
         transform="matrix(0.03146599,0,0,-0.03146599,84.944182,104.96222)"
         id="g891">
        <g
           transform="translate(0,-33.634196)"
           id="g6857">
          <path
             style="fill:#f7af59;fill-opacity:1;fill-rule:evenodd;stroke:none;stroke-width:0.05201"
             d="m 461.2832,1708.5 -65.01172,65.0117 a 67.582045,67.582045 0 0 0 39.42188,40.4531 l 60.48633,-6.0136 a 67.582045,67.582045 0 0 0 28.12695,-36.5977 z"
             transform="matrix(8.4085489,0,0,-8.4085489,-5581.8433,16627.068)"
             id="path58-1"
             inkscape:connector-curvature="0" />
          <path
             style="fill:#d78530;fill-opacity:1;fill-rule:evenodd;stroke:none;stroke-width:0.05201"
             d="m 461.2832,1708.5 36.83789,98.0957 a 67.582045,67.582045 0 0 0 26.18555,-35.2422 z"
             transform="matrix(8.4085489,0,0,-8.4085489,-5581.8433,16627.068)"
             id="path60"
             inkscape:connector-curvature="0" />
        </g>
      </g>
      <path
         transform="matrix(0.35277777,0,0,-0.35277777,-412.2962,-255.60691)"
         clip-path="url(#clipPath6831)"
         inkscape:connector-curvature="0"
         id="path86-5"
         style="fill:#fafdff;fill-opacity:1;fill-rule:evenodd;stroke:none;stroke-width:0.023117"
         d="m 1224.2824,-834.44291 c 10.4434,0 18.9607,8.51748 18.9607,18.96082 0,10.44338 -8.5173,18.96111 -18.9607,18.96111 -10.4437,0 -18.9611,-8.51773 -18.9611,-18.96111 0,-10.44334 8.5174,-18.96082 18.9611,-18.96082" />
      <path
         transform="matrix(0.35277777,0,0,-0.35277777,-412.2962,-255.60587)"
         clip-path="url(#clipPath6841)"
         inkscape:connector-curvature="0"
         id="path76"
         style="fill:#fcd2a0;fill-opacity:1;fill-rule:evenodd;stroke:none;stroke-width:0.020962"
         d="m 1306.9953,-863.55088 v -44.28223 h -109.7681 v 33.33743 c 6.4709,4.33645 13.6087,6.65468 20.8399,6.73389 10.6043,0.11582 21.0019,-3.19306 30.2747,-9.63579 6.8801,-4.78001 15.2439,-4.5035 22.1243,0.73057 11.3456,8.63163 23.9619,13.01677 36.5292,13.11613" />
      <path
         style="vector-effect:none;fill:#fabf77;fill-opacity:1;stroke:none;stroke-width:0.882713;stroke-linecap:round;stroke-linejoin:round;stroke-miterlimit:4;stroke-dasharray:none;stroke-dashoffset:0;stroke-opacity:1"
         d="m 17.606914,50.548049 c -1.285981,0.01058 -2.561872,0.187748 -3.801321,0.51315 a 17.881083,17.881083 0 0 0 6.232172,9.180301 c 1.979012,-0.682625 3.31918,-2.544798 3.31918,-4.650881 0,-2.163692 -1.412628,-4.073701 -3.481423,-4.707714 l -1.006157,-0.308504 c -0.419418,-0.02081 -0.840493,-0.02999 -1.262451,-0.02646 z"
         id="path6814-5"
         inkscape:connector-curvature="0" />
      <path
         inkscape:connector-curvature="0"
         id="path82-7-9-8"
         d="m 45.858346,55.271708 c -4.024454,-0.112395 -9.358771,1.499023 -12.615263,3.379117 -4.032885,2.328404 -8.781309,2.873622 -13.150603,1.639711 a 17.881083,17.881083 0 0 0 10.895436,3.731013 17.881083,17.881083 0 0 0 15.336555,-8.728145 c -0.153494,-0.0099 -0.308434,-0.01729 -0.466125,-0.02152 z"
         style="fill:#fabf77;fill-opacity:1;fill-rule:evenodd;stroke:none;stroke-width:0.00612133" />
    </g>
  </g>
</svg>
