<svg xmlns="http://www.w3.org/2000/svg" viewBox="0 0 384 512"><path d="M192 10.28C90.64 10.28 7.71 93.212 7.71 194.57c0 73.716 24.573 95.217 165.862 297.935a23.036 23.036 0 0036.856 0C351.717 289.787 376.29 268.285 376.29 194.57 376.29 93.211 293.36 10.28 192 10.28zm53.035 92.147a17.277 17.277 0 0111.65 4.353 17.277 17.277 0 01.215.195 17.277 17.277 0 01.037.036 17.277 17.277 0 01.46.437 17.277 17.277 0 01.017.017 17.277 17.277 0 01.018.018l21.645 21.646.019.018a17.277 17.277 0 01.015.017 17.277 17.277 0 01.094.096 17.277 17.277 0 01.11.112 17.277 17.277 0 01.237.25 17.277 17.277 0 01-.437 23.934L251.99 180.68l-.019-.019-46.053-46.054-.02-.018 27.126-27.125a17.277 17.277 0 0112.01-5.038zm-58.44 51.504l46.073 46.072-82.104 82.104-41.11 4.608a8.639 8.639 0 01-.064.007 8.639 8.639 0 01-.066.006 8.639 8.639 0 01-9.469-9.563l4.608-41.11.047-.047v-.002l13.674-13.672 68.383-68.385.004.004z" fill="currentColor"/></svg>