<svg
   xmlns="http://www.w3.org/2000/svg"
   viewBox="0 0 384 512">
  <path
     d="m 192,10.280944 c -101.359105,0 -184.2892825,82.930177 -184.2892825,184.289286 0,73.71571 24.5726535,95.2165 165.8611025,297.93471 a 23.03616,23.03616 0 0 0 36.85636,0 C 351.71663,289.78673 376.28928,268.28594 376.28928,194.57023 376.28928,93.211121 293.35911,10.280944 192,10.280944 Z m 53.03491,92.146516 a 17.27712,17.27712 0 0 1 11.6493,4.35302 17.27712,17.27712 0 0 1 0.21559,0.19497 17.27712,17.27712 0 0 1 0.0375,0.0356 17.27712,17.27712 0 0 1 0.4593,0.4368 17.27712,17.27712 0 0 1 0.0169,0.0169 17.27712,17.27712 0 0 1 0.0187,0.0187 l 21.64514,21.64514 0.0187,0.0188 a 17.27712,17.27712 0 0 1 0.015,0.0169 17.27712,17.27712 0 0 1 0.0937,0.0956 17.27712,17.27712 0 0 1 0.11061,0.11248 17.27712,17.27712 0 0 1 0.2362,0.24933 17.27712,17.27712 0 0 1 -0.43679,23.93414 l -27.12486,27.12486 -0.0187,-0.0187 -46.05358,-46.05357 -0.0187,-0.0188 27.12485,-27.12486 a 17.27712,17.27712 0 0 1 12.01113,-5.03728 z m -58.43963,51.50329 46.07232,46.07232 -82.10382,82.10382 -41.11002,4.60798 a 8.6385601,8.6385601 0 0 1 -0.0637,0.007 8.6385601,8.6385601 0 0 1 -0.0656,0.006 8.6385601,8.6385601 0 0 1 -9.469041,-9.56278 l 4.607981,-41.11003 0.0469,-0.0469 v -0.002 l 13.67397,-13.67209 68.38297,-68.38485 0.004,0.004 z"
     fill="currentColor" />
</svg>
