<svg xmlns="http://www.w3.org/2000/svg" viewBox="0 0 384 512"><path d="M192 9.993C90.522 9.993 7.495 93.02 7.495 194.498c0 73.802 24.6 95.328 166.054 298.284 9.226 12.3 27.676 12.3 36.902 0C351.905 289.826 376.505 268.3 376.505 194.498 376.505 93.02 293.478 9.993 192 9.993zm107.628 192.193c0 8.495-6.88 15.375-15.375 15.375h-69.19v69.19c0 8.495-6.88 15.375-15.375 15.375h-15.376c-8.495 0-15.375-6.88-15.375-15.375v-69.19h-69.19c-8.495 0-15.375-6.88-15.375-15.375v-15.375c0-8.495 6.88-15.376 15.375-15.376h69.19v-69.19c0-8.494 6.88-15.375 15.375-15.375h15.376c8.495 0 15.375 6.88 15.375 15.376v69.19h69.19c8.495 0 15.375 6.88 15.375 15.375z" fill="currentColor"/></svg>