<svg
   xmlns="http://www.w3.org/2000/svg"
   viewBox="0 0 384 512">
  <path
     d="M 192,9.9929778 C 90.522103,9.9929778 7.4947334,93.020348 7.4947334,194.49824 c 0,73.80211 24.6007026,95.32773 166.0547366,298.28352 9.22527,12.30035 27.67579,12.30035 36.90106,0 C 351.90456,289.82597 376.50527,268.30035 376.50527,194.49824 376.50527,93.020348 293.4779,9.9929778 192,9.9929778 Z M 299.62807,202.18596 c 0,8.49493 -6.88051,15.37544 -15.37544,15.37544 h -69.18947 v 69.18948 c 0,8.49493 -6.88051,15.37544 -15.37544,15.37544 h -15.37544 c -8.49493,0 -15.37544,-6.88051 -15.37544,-15.37544 V 217.5614 H 99.747367 c -8.49493,0 -15.375439,-6.88051 -15.375439,-15.37544 v -15.37543 c 0,-8.49493 6.880509,-15.37544 15.375439,-15.37544 h 69.189473 v -69.18948 c 0,-8.494929 6.88051,-15.375438 15.37544,-15.375438 h 15.37544 c 8.49493,0 15.37544,6.880509 15.37544,15.375438 v 69.18948 h 69.18947 c 8.49493,0 15.37544,6.88051 15.37544,15.37544 z"
     fill="currentColor" />
</svg>
