<?xml version="1.0" encoding="UTF-8" standalone="no"?>
<svg
   xmlns:dc="http://purl.org/dc/elements/1.1/"
   xmlns:cc="http://creativecommons.org/ns#"
   xmlns:rdf="http://www.w3.org/1999/02/22-rdf-syntax-ns#"
   xmlns:svg="http://www.w3.org/2000/svg"
   xmlns="http://www.w3.org/2000/svg"
   xmlns:sodipodi="http://sodipodi.sourceforge.net/DTD/sodipodi-0.dtd"
   xmlns:inkscape="http://www.inkscape.org/namespaces/inkscape"
   version="1.1"
   id="svg2"
   xml:space="preserve"
   width="1084.2257"
   height="339.578"
   viewBox="0 0 1084.2257 339.578"
   sodipodi:docname="osmfr.svg"
   inkscape:export-filename="/home/overflorian/Documents/Website OSM-Fr/Logo/openstreepmap-france-logo-texte-bandeau.png"
   inkscape:export-xdpi="95"
   inkscape:export-ydpi="95"
   inkscape:version="1.0.1 (3bc2e813f5, 2020-09-07)"><metadata
     id="metadata8"><rdf:RDF><cc:Work
         rdf:about=""><dc:format>image/svg+xml</dc:format><dc:type
           rdf:resource="http://purl.org/dc/dcmitype/StillImage" /><dc:title></dc:title></cc:Work></rdf:RDF></metadata><defs
     id="defs6"><clipPath
       clipPathUnits="userSpaceOnUse"
       id="clipPath82"><path
         d="m 204.845,263.513 -51.007,13.719 -50.243,-13.25 -56.25,13.25 18,-53.251 -15.042,-48.478 14.574,-53.669 -14.574,-56.07 62.292,-6.251 41.243,12.604 52.143,-16.623 50.574,15.573 14.291,52.697 -14.5,49.499 16.999,50.499 -13.757,55.012 z"
         id="path80"
         inkscape:connector-curvature="0" /></clipPath><clipPath
       clipPathUnits="userSpaceOnUse"
       id="clipPath90"><path
         d="M 35.8145,279.271 H 268.064 V 48.2715 H 35.8145 Z"
         id="path88"
         inkscape:connector-curvature="0" /></clipPath><clipPath
       clipPathUnits="userSpaceOnUse"
       id="clipPath118"><path
         d="M 55.1895,199.427 H 265.502 V 53.5215 H 55.1895 Z"
         id="path116"
         inkscape:connector-curvature="0" /></clipPath><clipPath
       clipPathUnits="userSpaceOnUse"
       id="clipPath134"><path
         d="m 156.686,224.577 h 14.611 v -12.663 h -14.611 z"
         id="path132"
         inkscape:connector-curvature="0" /></clipPath><clipPath
       clipPathUnits="userSpaceOnUse"
       id="clipPath150"><path
         d="m 137.558,236.587 h 15.205 v -10.96 h -15.205 z"
         id="path148"
         inkscape:connector-curvature="0" /></clipPath><clipPath
       clipPathUnits="userSpaceOnUse"
       id="clipPath166"><path
         d="m 42.9775,173.391 h 46.958 v -40.369 h -46.958 z"
         id="path164"
         inkscape:connector-curvature="0" /></clipPath><clipPath
       clipPathUnits="userSpaceOnUse"
       id="clipPath182"><path
         d="M 54.3242,267.874 H 214.668 V 107.083 H 54.3242 Z"
         id="path180"
         inkscape:connector-curvature="0" /></clipPath><clipPath
       clipPathUnits="userSpaceOnUse"
       id="clipPath198"><path
         d="M 51.5156,269.604 H 194.344 V 121.145 H 51.5156 Z"
         id="path196"
         inkscape:connector-curvature="0" /></clipPath><clipPath
       clipPathUnits="userSpaceOnUse"
       id="clipPath214"><path
         d="M 58.2783,275.257 H 172.929 V 123.256 H 58.2783 Z"
         id="path212"
         inkscape:connector-curvature="0" /></clipPath><clipPath
       clipPathUnits="userSpaceOnUse"
       id="clipPath230"><path
         d="m 226.869,266.73 h 47.928 v -40.84 h -47.928 z"
         id="path228"
         inkscape:connector-curvature="0" /></clipPath><clipPath
       clipPathUnits="userSpaceOnUse"
       id="clipPath246"><path
         d="M 46.54,155.271 H 262.845 V 70.3535 H 46.54 Z"
         id="path244"
         inkscape:connector-curvature="0" /></clipPath><clipPath
       clipPathUnits="userSpaceOnUse"
       id="clipPath262"><path
         d="M 114.24,130.51 H 273.174 V 50.8906 H 114.24 Z"
         id="path260"
         inkscape:connector-curvature="0" /></clipPath><clipPath
       clipPathUnits="userSpaceOnUse"
       id="clipPath278"><path
         d="m 205.396,95.9648 h 59.549 V 48.498 h -59.549 z"
         id="path276"
         inkscape:connector-curvature="0" /></clipPath><clipPath
       clipPathUnits="userSpaceOnUse"
       id="clipPath294"><path
         d="M 85.0801,265.771 H 262.064 V 58.2715 H 85.0801 Z"
         id="path292"
         inkscape:connector-curvature="0" /></clipPath><clipPath
       clipPathUnits="userSpaceOnUse"
       id="clipPath314"><path
         d="M 0,320.691 H 901.002 V 0 H 0 Z"
         id="path312"
         inkscape:connector-curvature="0" /></clipPath><clipPath
       clipPathUnits="userSpaceOnUse"
       id="clipPath326"><path
         d="M 136.146,253.539 H 267.85 V 121.836 H 136.146 Z"
         id="path324"
         inkscape:connector-curvature="0" /></clipPath><clipPath
       clipPathUnits="userSpaceOnUse"
       id="clipPath342"><path
         d="M 143.644,246.041 H 253.611 V 165.394 H 143.644 Z"
         id="path340"
         inkscape:connector-curvature="0" /></clipPath></defs><sodipodi:namedview
     pagecolor="#ffffff"
     bordercolor="#666666"
     borderopacity="1"
     objecttolerance="10"
     gridtolerance="10"
     guidetolerance="10"
     inkscape:pageopacity="0"
     inkscape:pageshadow="2"
     inkscape:window-width="1853"
     inkscape:window-height="1025"
     id="namedview4"
     showgrid="false"
     inkscape:zoom="0.70710678"
     inkscape:cx="606.00719"
     inkscape:cy="178.40065"
     inkscape:window-x="67"
     inkscape:window-y="27"
     inkscape:window-maximized="1"
     inkscape:current-layer="g10"
     inkscape:document-rotation="0"
     fit-margin-top="10"
     fit-margin-left="10"
     fit-margin-right="10"
     fit-margin-bottom="10" /><g
     id="g10"
     inkscape:groupmode="layer"
     inkscape:label="openstreepmap-france-logo-6"
     transform="matrix(1.3333333,0,0,-1.3333333,-53.126665,381.69866)"><g
       id="g12"
       transform="translate(47.3457,276.7744)"><path
         d="M 0,0 56.25,-13.25 70.5,-58 18,-53.25 Z"
         style="fill:#80ce47;fill-opacity:1;fill-rule:nonzero;stroke:none"
         id="path14"
         inkscape:connector-curvature="0" /></g><g
       id="g16"
       transform="translate(50.3027,175.0459)"><path
         d="m 0,0 52.012,-15.865 15.531,59.594 -52.5,4.75 z"
         style="fill:#609c33;fill-opacity:1;fill-rule:nonzero;stroke:none"
         id="path18"
         inkscape:connector-curvature="0" /></g><g
       id="g20"
       transform="translate(50.3027,175.0459)"><path
         d="m 0,0 52.012,-15.865 11.76,-47.614 -49.197,9.809 z"
         style="fill:#80ce47;fill-opacity:1;fill-rule:nonzero;stroke:none"
         id="path22"
         inkscape:connector-curvature="0" /></g><g
       id="g24"
       transform="translate(50.3027,65.3057)"><path
         d="M 0,0 62.293,-6.25 63.772,46.262 14.575,56.07 Z"
         style="fill:#609c33;fill-opacity:1;fill-rule:nonzero;stroke:none"
         id="path26"
         inkscape:connector-curvature="0" /></g><g
       id="g28"
       transform="translate(153.8379,276.7744)"><path
         d="m 0,0 -50.242,-13.25 14.25,-44.75 49.75,2.988 z"
         style="fill:#8cd259;fill-opacity:1;fill-rule:nonzero;stroke:none"
         id="path30"
         inkscape:connector-curvature="0" /></g><g
       id="g32"
       transform="translate(155.8457,174.5557)"><path
         d="m 0,0 -54,-15.375 16,59.594 49.75,2.988 z"
         style="fill:#66c544;fill-opacity:1;fill-rule:nonzero;stroke:none"
         id="path34"
         inkscape:connector-curvature="0" /></g><g
       id="g36"
       transform="translate(155.8457,174.5557)"><path
         d="M 0,0 -54,-15.375 -41.771,-62.988 8.25,-54.25 Z"
         style="fill:#8cd259;fill-opacity:1;fill-rule:nonzero;stroke:none"
         id="path38"
         inkscape:connector-curvature="0" /></g><g
       id="g40"
       transform="translate(153.8379,71.6602)"><path
         d="m 0,0 -41.242,-12.604 1.479,52.511 50.021,8.739 z"
         style="fill:#66c544;fill-opacity:1;fill-rule:nonzero;stroke:none"
         id="path42"
         inkscape:connector-curvature="0" /></g><g
       id="g44"
       transform="translate(153.8379,276.7744)"><path
         d="m 0,0 51.008,-13.719 14.25,-52.25 -51.5,10.957 z"
         style="fill:#99d881;fill-opacity:1;fill-rule:nonzero;stroke:none"
         id="path46"
         inkscape:connector-curvature="0" /></g><g
       id="g48"
       transform="translate(155.7031,174.7744)"><path
         d="m 0,0 52.143,-17.219 11.25,53.25 -51.5,10.957 z"
         style="fill:#8cd259;fill-opacity:1;fill-rule:nonzero;stroke:none"
         id="path50"
         inkscape:connector-curvature="0" /></g><g
       id="g52"
       transform="translate(155.7031,174.7744)"><path
         d="m 0,0 52.143,-17.219 9.5,-55 -53.25,17.855 z"
         style="fill:#99d881;fill-opacity:1;fill-rule:nonzero;stroke:none"
         id="path54"
         inkscape:connector-curvature="0" /></g><g
       id="g56"
       transform="translate(153.8379,71.6602)"><path
         d="M 0,0 52.144,-16.624 63.508,30.896 10.258,48.75 Z"
         style="fill:#8cd259;fill-opacity:1;fill-rule:nonzero;stroke:none"
         id="path58"
         inkscape:connector-curvature="0" /></g><g
       id="g60"
       transform="translate(259.5879,278.3174)"><path
         d="m 0,0 -54.742,-15.262 14.25,-52.25 54.25,12.5 z"
         style="fill:#8cd259;fill-opacity:1;fill-rule:nonzero;stroke:none"
         id="path62"
         inkscape:connector-curvature="0" /></g><g
       id="g64"
       transform="translate(256.3457,172.8057)"><path
         d="M 0,0 -48.5,-15.25 -37.25,38 17,50.5 Z"
         style="fill:#66c544;fill-opacity:1;fill-rule:nonzero;stroke:none"
         id="path66"
         inkscape:connector-curvature="0" /></g><g
       id="g68"
       transform="translate(256.3457,172.8057)"><path
         d="m 0,0 -48.5,-15.25 9.5,-55 53.5,20.75 z"
         style="fill:#8cd259;fill-opacity:1;fill-rule:nonzero;stroke:none"
         id="path70"
         inkscape:connector-curvature="0" /></g><g
       id="g72"
       transform="translate(256.5547,70.6084)"><path
         d="m 0,0 -50.573,-15.572 11.364,47.519 53.5,20.75 z"
         style="fill:#66c544;fill-opacity:1;fill-rule:nonzero;stroke:none"
         id="path74"
         inkscape:connector-curvature="0" /></g><g
       id="g76"><g
         id="g78"
         clip-path="url(#clipPath82)"><g
           id="g84"><g
             id="g86" /><g
             id="g110"><g
               clip-path="url(#clipPath90)"
               id="g108"
               style="opacity:0.300003"><g
                 transform="translate(84.5645,64.0215)"
                 id="g94"><path
                   d="m 0,0 c -6,4.75 -17.25,5.75 -18.25,13.25 -1,7.5 9.25,10 13.75,14.25 4.5,4.25 2,11.25 -2.25,12.25 -0.266,0.063 -0.544,0.086 -0.812,0.094 -4.03,0.101 -8.282,-5.719 -9.688,-7.594 -1.5,-2 -6.25,-5 -17,-9.5 l -14.5,-34.25 53,-4.25 c 0,0 1.75,11 -4.25,15.75"
                   style="fill:#ffffff;fill-opacity:1;fill-rule:nonzero;stroke:none"
                   id="path92"
                   inkscape:connector-curvature="0" /></g><g
                 transform="translate(134.5645,172.0215)"
                 id="g98"><path
                   d="M 0,0 C -0.094,0.031 -0.206,0.041 -0.312,0.031 -1.907,-0.115 -4.781,-4.656 -5.25,-7 -5.75,-9.5 -8.5,-13.75 -8.75,-19.25 -9,-24.75 -4,-26 0,-25.75 4,-25.5 2.75,-19 2,-10.75 1.75,-10.75 1.5,-0.5 0,0"
                   style="fill:#ffffff;fill-opacity:1;fill-rule:nonzero;stroke:none"
                   id="path96"
                   inkscape:connector-curvature="0" /></g><g
                 transform="translate(267.0645,86.5215)"
                 id="g102"><path
                   d="m 0,0 c 0,0 4.75,4.25 -20.75,24.25 -9.562,7.5 -15.543,9.803 -19.344,9.625 C -46.43,33.58 -46.719,26.406 -47.5,25 c -1.25,-2.25 2.25,-13.75 2,-18 -0.25,-4.25 -4.75,-5.25 -9.5,-9.75 -4.75,-4.5 0.5,-16 11.25,-31 L 1,-35 Z"
                   style="fill:#ffffff;fill-opacity:1;fill-rule:nonzero;stroke:none"
                   id="path100"
                   inkscape:connector-curvature="0" /></g><g
                 transform="translate(148.8145,175.7705)"
                 id="g106"><path
                   d="m 0,0 c -2,-0.75 -12.75,-7.999 -10.5,-14.249 2.25,-6.25 1.75,-18 -3.5,-18 -5.25,0 -8,0 -10,2.5 -2,2.5 -2,12 0,19.75 2,7.749 3.5,14.999 8,18.249 3.094,2.234 6.632,2.129 9.438,2.125 C -5.287,10.373 -0.703,8.781 0,8 2.25,5.5 2,0.75 0,0 m 7.031,-62.718 c 0.203,-0.013 1.907,-3.515 4.719,-7.031 3,-3.75 3.25,-8.25 3.25,-8.25 0,0 -4.25,4.75 -6,8 -1.75,3.25 -2,7.25 -2,7.25 0,0.031 0.018,0.031 0.031,0.031 m 24.719,15.969 c 12,-11.5 46.25,-5.75 57.75,-3.75 9.955,1.73 20.834,-14.883 23.906,-26.031 0.589,2.095 1.127,4.002 1.657,5.75 -1.739,1.926 -3.698,4.619 -5.313,8.281 -3.75,8.5 -12,13.25 -12,13.25 0,0 8.75,5 14.75,7.75 1.617,0.74 3.006,1.678 4.188,2.656 -0.163,0.774 -0.259,1.256 -0.438,2.094 -0.031,0.146 -0.062,0.291 -0.094,0.437 -4.765,-5.562 -19.232,-9.615 -21.656,-10.937 -2.75,-1.5 -18.25,-3 -35.75,-4.5 -17.5,-1.5 -26.75,7.5 -34.25,14.75 C 17,-29.749 11.5,-1 21.5,1 c 10,2 20,-13.749 30,-16.999 10,-3.25 21.5,15.749 19.75,26.999 -0.191,1.233 -0.681,2.394 -1.406,3.475 l 2.406,2.775 c 0,0 3.25,-4 2.75,-8.75 -0.5,-4.75 -3.75,-14.749 0.25,-17.249 4,-2.5 19.5,2 24,6.999 4.5,5 -4.75,28.25 -10.5,29.5 -5.75,1.25 -18.5,1.75 -17,7 1.5,5.25 11.75,-4.5 17.25,-3.25 5.5,1.25 16.75,21 12,25.25 -4.75,4.25 -24.25,5.25 -25.75,8 -1.5,2.75 21,8 22.25,11 1.25,3 -2.5,7.25 -6.25,8.5 C 87.5,85.5 77.25,68 70.25,68.5 63.25,69 50.25,62.75 53,57 55.75,51.25 47,46 38.5,50.5 30,55 13.75,63.5 16.75,74.5 c 3,11 21.5,18.75 21.5,18.75 L -1,103.5 -5.25,96.5 C -6,87.5 -7.5,82.75 -13.75,80 -20,77.25 -26,76.5 -24.75,72.5 c 1.25,-4 13,-9.25 14.25,-13 1.25,-3.75 8.25,-1.75 11,-7 2.75,-5.25 2,-15.25 -3.75,-17.25 -5.75,-2 -17.5,-0.5 -20.25,-9.5 -2.75,-9 -4.75,-10.5 -9,-12.75 -4.25,-2.25 -7.25,-10.5 -3.5,-16.499 3.101,-4.962 9.447,-0.863 13.106,3.673 -3.888,-11.684 -4.119,-26.896 -5.106,-31.173 -1.5,-6.5 -17.5,-20.75 -20,-23.5 -2.5,-2.75 -13.25,-7.25 -19.5,-8.5 -6.25,-1.25 -12.75,-7.25 -15.5,-11 -2.021,-2.756 -7.406,-6.451 -10.125,-8.219 -0.046,-0.181 -0.079,-0.349 -0.125,-0.531 -0.134,-0.535 -0.247,-1.084 -0.375,-1.625 4.979,1.605 11.18,8.18 16.625,13.625 6.25,6.25 20,7.75 27.75,11.5 7.75,3.75 14.25,19.75 26.5,23.75 12.25,4 21.25,-11.75 24.25,-18.5 3,-6.75 1.75,-12.75 3.75,-17 2,-4.25 11,-11.75 11.5,-13.5 0.5,-1.75 -5,-6.5 -6.25,-8.5 -1.25,-2 -10.5,-7 -11.75,-8.75 -0.966,-1.352 -1.924,-6.773 -2.313,-9.219 0.414,0.168 0.754,0.311 1.125,0.469 0.485,2.529 1.516,7.078 2.938,8.5 2,2 11.25,4.5 12.5,8.5 1.25,4 7,6.5 7,6.5 0,0 2.75,-4 16,-14 8.834,-6.666 12.758,-15.533 14.406,-20.719 0.674,-0.172 1.533,-0.41 2.032,-0.531 -1.221,4.318 -4.836,16.238 -8.938,20.75 -5,5.5 -18.5,10.75 -22.75,22 -4.25,11.25 -24.5,34.25 -17.5,40.25 7,6 16.5,4 28.5,-7.5"
                   style="fill:#ffffff;fill-opacity:1;fill-rule:nonzero;stroke:none"
                   id="path104"
                   inkscape:connector-curvature="0" /></g></g></g></g><g
           id="g112"><g
             id="g114" /><g
             id="g126"><g
               clip-path="url(#clipPath118)"
               id="g124"
               style="opacity:0.600006"><g
                 transform="translate(155.8457,113.0527)"
                 id="g122"><path
                   d="m 0,0 c 0.203,-0.014 1.906,-3.516 4.719,-7.031 3,-3.75 3.25,-8.25 3.25,-8.25 0,0 -4.25,4.75 -6,8 -1.75,3.25 -2,7.25 -2,7.25 C -0.031,0 -0.014,0 0,0 m -13.594,73.093 c 1.276,-0.002 5.86,-1.594 6.563,-2.375 2.25,-2.5 2,-7.25 0,-8 -2,-0.75 -12.75,-7.999 -10.5,-14.249 2.25,-6.25 1.75,-18 -3.5,-18 -5.25,0 -8,0 -10,2.5 -2,2.5 -2,12 0,19.75 2,7.749 3.5,14.999 8,18.249 3.094,2.234 6.632,2.129 9.437,2.125 M 39.75,86.374 c -4.76,0.015 -9.031,-0.969 -11.531,-3.156 -8,-7 -35,-0.75 -48.5,-7 -13.5,-6.25 -13.25,-37.999 -14.75,-44.499 -1.5,-6.5 -17.5,-20.75 -20,-23.5 -2.5,-2.75 -13.25,-7.25 -19.5,-8.5 -6.25,-1.25 -12.75,-7.25 -15.5,-11 -2.022,-2.756 -7.407,-6.451 -10.125,-8.219 -0.046,-0.182 -0.079,-0.35 -0.125,-0.531 -0.134,-0.535 -0.247,-1.084 -0.375,-1.625 4.979,1.605 11.179,8.179 16.625,13.625 6.25,6.25 20,7.75 27.75,11.5 7.75,3.75 14.25,19.75 26.5,23.75 12.25,4 21.25,-11.75 24.25,-18.5 3,-6.75 1.75,-12.75 3.75,-17 2,-4.25 11,-11.75 11.5,-13.5 0.5,-1.75 -5,-6.5 -6.25,-8.5 -1.25,-2 -10.5,-7 -11.75,-8.75 -0.966,-1.352 -1.924,-6.774 -2.313,-9.219 0.413,0.168 0.754,0.311 1.125,0.469 0.485,2.529 1.516,7.078 2.938,8.5 2,2 11.25,4.5 12.5,8.5 1.25,4 7,6.5 7,6.5 0,0 2.75,-4 16,-14 8.834,-6.666 12.758,-15.533 14.406,-20.719 0.674,-0.172 1.533,-0.41 2.031,-0.531 -1.22,4.318 -4.836,16.238 -8.937,20.75 -5,5.5 -18.5,10.75 -22.75,22 -4.25,11.25 -24.5,34.25 -17.5,40.25 7,6 16.5,4 28.5,-7.5 12,-11.5 46.25,-5.75 57.75,-3.75 9.955,1.73 20.834,-14.883 23.906,-26.032 0.589,2.096 1.127,4.002 1.656,5.75 -1.738,1.926 -3.697,4.62 -5.312,8.282 -3.75,8.5 -12,13.25 -12,13.25 0,0 8.75,5 14.75,7.75 1.617,0.74 3.006,1.677 4.187,2.656 -0.162,0.773 -0.259,1.256 -0.437,2.094 -0.031,0.146 -0.063,0.291 -0.094,0.437 -4.766,-5.562 -19.232,-9.615 -21.656,-10.937 -2.75,-1.5 -18.25,-3 -35.75,-4.5 -17.5,-1.5 -26.75,7.5 -34.25,14.75 -7.5,7.25 -13,35.999 -3,37.999 10,2 20,-13.749 30,-16.999 10,-3.25 21.5,15.749 19.75,26.999 -1.203,7.734 -13.997,12.625 -24.469,12.656"
                   style="fill:#82bae7;fill-opacity:1;fill-rule:nonzero;stroke:none"
                   id="path120"
                   inkscape:connector-curvature="0" /></g></g></g></g><g
           id="g128"><g
             id="g130" /><g
             id="g142"><g
               clip-path="url(#clipPath134)"
               id="g140"
               style="opacity:0.386963"><g
                 transform="translate(159.8145,212.5205)"
                 id="g138"><path
                   d="M 0,0 C 6.25,-0.5 12.25,2.25 10.75,6.5 9.25,10.75 -1.75,13.75 -2.5,9.5 -3.25,5.25 -0.5,-1 0,0 Z"
                   style="fill:none;stroke:#ffffff;stroke-width:1;stroke-linecap:butt;stroke-linejoin:miter;stroke-miterlimit:10;stroke-dasharray:none;stroke-opacity:1"
                   id="path136"
                   inkscape:connector-curvature="0" /></g></g></g></g><g
           id="g144"><g
             id="g146" /><g
             id="g158"><g
               clip-path="url(#clipPath150)"
               id="g156"
               style="opacity:0.386963"><g
                 transform="translate(145.8145,228.0205)"
                 id="g154"><path
                   d="M 0,0 C -8.5,5.5 -8.5,7.25 -7,8 -5.5,8.75 3.25,3 5.75,0 8.25,-3 3.5,-2 0,0 Z"
                   style="fill:none;stroke:#ffffff;stroke-width:1;stroke-linecap:butt;stroke-linejoin:miter;stroke-miterlimit:10;stroke-dasharray:none;stroke-opacity:1"
                   id="path152"
                   inkscape:connector-curvature="0" /></g></g></g></g><g
           id="g160"><g
             id="g162" /><g
             id="g174"><g
               clip-path="url(#clipPath166)"
               id="g172"
               style="opacity:0.386963"><g
                 transform="translate(52.8145,133.5215)"
                 id="g170"><path
                   d="m 0,0 c 33,2.5 38.25,3.5 36.25,10.25 -2,6.75 -8.75,23.5 -23,22.5 C -1,31.75 -9.5,39.5 -9.5,39.5"
                   style="fill:none;stroke:#ffffff;stroke-width:1;stroke-linecap:butt;stroke-linejoin:miter;stroke-miterlimit:10;stroke-dasharray:none;stroke-opacity:1"
                   id="path168"
                   inkscape:connector-curvature="0" /></g></g></g></g><g
           id="g176"><g
             id="g178" /><g
             id="g190"><g
               clip-path="url(#clipPath182)"
               id="g188"
               style="opacity:0.386963"><g
                 transform="translate(54.5645,107.5215)"
                 id="g186"><path
                   d="m 0,0 c 18.25,10 28.75,8.5 35,11.5 6.25,3 13.25,5.75 15.75,9.5 2.5,3.75 5.75,11.5 5.75,18 0,6.5 -3.5,35.999 3.25,43.499 6.75,7.5 17.25,26 26,23.25 8.75,-2.75 12.25,-9.75 22,-9.5 9.75,0.25 21.75,4 24.25,12.25 2.5,8.25 -15.75,16 -16,23 -0.25,7 5.5,14.25 20.25,17 14.75,2.75 23.5,11.5 23.5,11.5"
                   style="fill:none;stroke:#ffffff;stroke-width:1;stroke-linecap:butt;stroke-linejoin:miter;stroke-miterlimit:10;stroke-dasharray:none;stroke-opacity:1"
                   id="path184"
                   inkscape:connector-curvature="0" /></g></g></g></g><g
           id="g192"><g
             id="g194" /><g
             id="g206"><g
               clip-path="url(#clipPath198)"
               id="g204"
               style="opacity:0.386963"><g
                 transform="translate(51.5645,123.7715)"
                 id="g202"><path
                   d="m 0,0 c 15.25,1.5 22.25,-3.5 31.5,-1.75 9.25,1.75 13.25,3 17.75,5.75 4.5,2.75 6,3.75 6.25,6.5 0.25,2.75 1,12.5 -3,22 -4,9.5 -12.5,31.499 -8.25,38.749 4.25,7.25 5.25,21.5 15.75,24.5 10.5,3 21,6.25 27.75,1.25 6.75,-5 12.75,-14.25 20,-14.5 7.25,-0.25 11.75,1.5 14.5,4.5 2.75,3 4.5,10.25 1.75,13.75 -2.75,3.5 -15.5,5.5 -17.25,9.5 -1.75,4 -10.75,17 -0.25,26.75 10.5,9.75 36.25,8.25 36.25,8.25"
                   style="fill:none;stroke:#ffffff;stroke-width:1;stroke-linecap:butt;stroke-linejoin:miter;stroke-miterlimit:10;stroke-dasharray:none;stroke-opacity:1"
                   id="path200"
                   inkscape:connector-curvature="0" /></g></g></g></g><g
           id="g208"><g
             id="g210" /><g
             id="g222"><g
               clip-path="url(#clipPath214)"
               id="g220"
               style="opacity:0.386963"><g
                 transform="translate(58.3145,125.7715)"
                 id="g218"><path
                   d="m 0,0 c 13.75,-1 21.5,-4.25 33.5,0.5 12,4.75 13.5,5.25 13.75,8.75 0.25,3.5 -0.25,15.75 -3,20 -2.75,4.25 -13,13.75 -15.75,24.249 -2.75,10.5 0.25,41 8.5,48.25 8.25,7.25 32,7.25 37.5,10.5 5.5,3.25 5.25,16.75 13,24.5 7.75,7.75 27,12.25 27,12.25"
                   style="fill:none;stroke:#ffffff;stroke-width:1;stroke-linecap:butt;stroke-linejoin:miter;stroke-miterlimit:10;stroke-dasharray:none;stroke-opacity:1"
                   id="path216"
                   inkscape:connector-curvature="0" /></g></g></g></g><g
           id="g224"><g
             id="g226" /><g
             id="g238"><g
               clip-path="url(#clipPath230)"
               id="g236"
               style="opacity:0.386963"><g
                 transform="translate(227.0645,266.2705)"
                 id="g234"><path
                   d="M 0,0 C 11.75,-5 39,-9.75 47.25,-40.25"
                   style="fill:none;stroke:#ffffff;stroke-width:1;stroke-linecap:butt;stroke-linejoin:miter;stroke-miterlimit:10;stroke-dasharray:none;stroke-opacity:1"
                   id="path232"
                   inkscape:connector-curvature="0" /></g></g></g></g><g
           id="g240"><g
             id="g242" /><g
             id="g254"><g
               clip-path="url(#clipPath246)"
               id="g252"
               style="opacity:0.386963"><g
                 transform="translate(46.8145,70.7715)"
                 id="g250"><path
                   d="m 0,0 c 19,12.5 36,1.25 49,4 13,2.75 38.25,37.25 46,37 7.75,-0.25 5.5,11.75 8.5,13.25 3,1.5 5.5,-6 11.75,-8 6.25,-2 24.5,2.75 23.5,5.75 -1,3 -7,7.75 -5.5,8.5 1.5,0.75 8.5,-5 12.75,-3.5 4.25,1.5 43.75,1 48.5,13.5 C 199.25,83 216,84 216,84"
                   style="fill:none;stroke:#ffffff;stroke-width:1;stroke-linecap:butt;stroke-linejoin:miter;stroke-miterlimit:10;stroke-dasharray:none;stroke-opacity:1"
                   id="path248"
                   inkscape:connector-curvature="0" /></g></g></g></g><g
           id="g256"><g
             id="g258" /><g
             id="g270"><g
               clip-path="url(#clipPath262)"
               id="g268"
               style="opacity:0.386963"><g
                 transform="translate(114.5645,51.2715)"
                 id="g266"><path
                   d="m 0,0 c 13.5,11.5 23.25,25 28.5,27 5.25,2 12.75,3.75 15.75,8 3,4.25 2.5,10.75 5.25,12 2.75,1.25 3.75,-5.75 8.75,-6 5,-0.25 36.75,5 42.75,11.75 6,6.75 32.25,12.5 32.5,14.5 0.25,2 -1,4.75 0.25,5.5 1.25,0.75 24.75,6 24.75,6"
                   style="fill:none;stroke:#ffffff;stroke-width:1;stroke-linecap:butt;stroke-linejoin:miter;stroke-miterlimit:10;stroke-dasharray:none;stroke-opacity:1"
                   id="path264"
                   inkscape:connector-curvature="0" /></g></g></g></g><g
           id="g272"><g
             id="g274" /><g
             id="g286"><g
               clip-path="url(#clipPath278)"
               id="g284"
               style="opacity:0.386963"><g
                 transform="translate(205.8145,48.7715)"
                 id="g282"><path
                   d="m 0,0 c 9,13.75 20.5,41 29.5,42 9,1 10.25,2.5 12.5,4.25 C 44.25,48 59,44 59,44"
                   style="fill:none;stroke:#ffffff;stroke-width:1;stroke-linecap:butt;stroke-linejoin:miter;stroke-miterlimit:10;stroke-dasharray:none;stroke-opacity:1"
                   id="path280"
                   inkscape:connector-curvature="0" /></g></g></g></g><g
           id="g288"><g
             id="g290" /><g
             id="g306"><g
               clip-path="url(#clipPath294)"
               id="g304"
               style="opacity:0.300003"><g
                 transform="translate(94.8145,264.7705)"
                 id="g298"><path
                   d="m 0,0 -8.5,-28.25 18,-6.25 7.75,-36.25 -21,-22.249 9,-10.5 -12,-11.5 0.5,-4.5 20.25,-24.5 14,6.75 20.5,-18.5 -10.5,-28.25 10.25,-8.5 -2.75,-13"
                   style="fill:none;stroke:#231f20;stroke-width:2;stroke-linecap:round;stroke-linejoin:miter;stroke-miterlimit:4;stroke-dasharray:none;stroke-opacity:1"
                   id="path296"
                   inkscape:connector-curvature="0" /></g><g
                 transform="translate(142.8145,72.5215)"
                 id="g302"><path
                   d="m 0,0 12.5,27.75 11,7 L 51,19 71.5,22.75 71.25,38.5 61,44.5 l 12.75,26.25 5.75,3.75 38.75,10"
                   style="fill:none;stroke:#231f20;stroke-width:2;stroke-linecap:round;stroke-linejoin:miter;stroke-miterlimit:4;stroke-dasharray:none;stroke-opacity:1"
                   id="path300"
                   inkscape:connector-curvature="0" /></g></g></g></g></g></g><g
       id="g308"><g
         id="g310"
         clip-path="url(#clipPath314)"><g
           id="g316"
           transform="translate(265.5498,182.708)"><path
             d="m 0,0 c -2.86,-35.208 -33.722,-61.432 -68.931,-58.572 -35.207,2.86 -61.431,33.72 -58.572,68.929 2.86,35.207 33.722,61.432 68.929,58.572 C -23.364,66.068 2.86,35.208 0,0 m -58.126,74.432 c -38.247,3.105 -71.771,-25.381 -74.878,-63.629 -3.105,-38.247 25.381,-71.771 63.627,-74.876 38.247,-3.108 71.772,25.381 74.879,63.626 3.105,38.248 -25.381,71.771 -63.628,74.879"
             style="fill:#82bae7;fill-opacity:1;fill-rule:nonzero;stroke:none"
             id="path318"
             inkscape:connector-curvature="0" /></g><g
           id="g320"><g
             id="g322" /><g
             id="g334"><g
               clip-path="url(#clipPath326)"
               id="g332"
               style="opacity:0.600006"><g
                 transform="translate(267.6299,182.3564)"
                 id="g330"><path
                   d="m 0,0 c -2.944,-36.248 -34.717,-63.245 -70.964,-60.301 -36.246,2.945 -63.245,34.716 -60.3,70.963 2.944,36.247 34.715,63.244 70.962,60.301 C -24.054,68.018 2.945,36.246 0,0"
                   style="fill:#ffffff;fill-opacity:1;fill-rule:nonzero;stroke:none"
                   id="path328"
                   inkscape:connector-curvature="0" /></g></g></g></g><g
           id="g336"><g
             id="g338" /><g
             id="g350"><g
               clip-path="url(#clipPath342)"
               id="g348"
               style="opacity:0.600006"><g
                 transform="translate(242.6787,197.1396)"
                 id="g346"><path
                   d="M 0,0 C -24.401,8.637 -46.333,11.666 -63.666,0.332 -85.195,-13.745 -91.461,-47.17 -97.33,-23.51 c -1.483,5.981 -2.037,12.301 -1.51,18.781 2.608,32.122 30.762,56.043 62.883,53.436 C -23.231,47.673 -11.792,42.63 -2.78,34.919 10.956,23.167 18.343,-6.494 0,0"
                   style="fill:#ffffff;fill-opacity:1;fill-rule:nonzero;stroke:none"
                   id="path344"
                   inkscape:connector-curvature="0" /></g></g></g></g><g
           id="g352"
           transform="translate(265.5498,182.708)"><path
             d="m 0,0 c -2.86,-35.208 -33.722,-61.432 -68.931,-58.572 -35.207,2.86 -61.431,33.72 -58.572,68.929 2.86,35.207 33.722,61.432 68.929,58.572 C -23.364,66.068 2.86,35.208 0,0 m -58.126,74.432 c -38.247,3.105 -71.771,-25.381 -74.878,-63.629 -3.105,-38.247 25.381,-71.771 63.627,-74.876 38.247,-3.108 71.772,25.381 74.879,63.626 3.105,38.248 -25.381,71.771 -63.628,74.879"
             style="fill:#3b4150;fill-opacity:1;fill-rule:nonzero;stroke:none"
             id="path354"
             inkscape:connector-curvature="0" /></g><g
           id="g356"
           transform="translate(139.4404,116.1738)"><path
             d="M 0,0 16.735,16.735 7.779,25.691 -8.956,8.956 Z"
             style="fill:#3b4150;fill-opacity:1;fill-rule:nonzero;stroke:none"
             id="path358"
             inkscape:connector-curvature="0" /></g><g
           id="g360"
           transform="translate(136.7725,118.8408)"><path
             d="M 0,0 16.736,16.735 13.115,20.357 -3.621,3.621 Z"
             style="fill:#474f5d;fill-opacity:1;fill-rule:nonzero;stroke:none"
             id="path362"
             inkscape:connector-curvature="0" /></g><g
           id="g364"
           transform="translate(143.165,156.8408)"><path
             d="m 0,0 -6.692,-3.509 c 6.949,-13.223 17.794,-24.178 31.156,-31.193 l 3.511,6.695 C 15.977,-21.709 6.24,-11.873 0,0"
             style="fill:#3b4150;fill-opacity:1;fill-rule:nonzero;stroke:none"
             id="path366"
             inkscape:connector-curvature="0" /></g><g
           id="g368"
           transform="translate(147.9873,113.6406)"><path
             d="m 0,0 -6.014,-6.014 -18.039,18.04 6.013,6.013 z"
             style="fill:#fddf4c;fill-opacity:1;fill-rule:nonzero;stroke:none"
             id="path370"
             inkscape:connector-curvature="0" /></g><g
           id="g372"
           transform="translate(77.459,45.1045)"><path
             d="m 0,0 -6.013,-6.014 -18.039,18.04 6.013,6.013 z"
             style="fill:#fddf4c;fill-opacity:1;fill-rule:nonzero;stroke:none"
             id="path374"
             inkscape:connector-curvature="0" /></g><g
           id="g376"
           transform="translate(143.7373,117.8906)"><path
             d="m 0,0 -6.014,-6.014 -9.983,9.985 6.013,6.012 z"
             style="fill:#feed7e;fill-opacity:1;fill-rule:nonzero;stroke:none"
             id="path378"
             inkscape:connector-curvature="0" /></g><g
           id="g380"
           transform="translate(73.6533,48.9092)"><path
             d="m 0,0 -6.012,-6.013 -9.984,9.985 6.013,6.012 z"
             style="fill:#feed7e;fill-opacity:1;fill-rule:nonzero;stroke:none"
             id="path382"
             inkscape:connector-curvature="0" /></g><g
           id="g384"
           transform="translate(146.1084,109.5059)"><path
             d="m 0,0 -69.532,-69.531 -22.286,22.286 69.532,69.532 z"
             style="fill:#3b4150;fill-opacity:1;fill-rule:nonzero;stroke:none"
             id="path386"
             inkscape:connector-curvature="0" /></g><g
           id="g388"
           transform="translate(137.9463,117.668)"><path
             d="m 0,0 -69.532,-69.531 -9.962,9.961 69.533,69.532 z"
             style="fill:#474f5d;fill-opacity:1;fill-rule:nonzero;stroke:none"
             id="path390"
             inkscape:connector-curvature="0" /></g><g
           id="g392"
           transform="translate(304.0615,189.9854)"><path
             d="m 0,0 c 0,-3.828 0.727,-6.711 2.18,-8.648 1.453,-1.938 3.625,-2.907 6.515,-2.907 5.797,0 8.696,3.852 8.696,11.555 0,7.719 -2.883,11.578 -8.649,11.578 -2.89,0 -5.07,-0.973 -6.539,-2.918 C 0.734,6.715 0,3.828 0,0 m 25.008,0 c 0,-5.672 -1.406,-10.031 -4.219,-13.078 -2.812,-3.047 -6.844,-4.57 -12.094,-4.57 -5.25,0 -9.281,1.523 -12.093,4.57 -2.813,3.047 -4.219,7.422 -4.219,13.125 0,5.703 1.41,10.058 4.23,13.066 2.821,3.008 6.864,4.512 12.129,4.512 5.266,0 9.293,-1.516 12.082,-4.547 C 23.613,10.047 25.008,5.687 25.008,0"
             style="fill:#231f20;fill-opacity:1;fill-rule:nonzero;stroke:none"
             id="path394"
             inkscape:connector-curvature="0" /></g><g
           id="g396"
           transform="translate(347.8896,193.7822)"><path
             d="M 0,0 C -1.766,0 -3.055,-0.543 -3.867,-1.629 -4.68,-2.715 -5.102,-4.508 -5.133,-7.008 v -0.773 c 0,-2.813 0.418,-4.828 1.254,-6.047 0.836,-1.219 2.16,-1.828 3.973,-1.828 3.203,0 4.804,2.64 4.804,7.922 0,2.578 -0.394,4.511 -1.183,5.8 C 2.926,-0.645 1.687,0 0,0 m 2.109,-21.445 c -3.078,0 -5.492,1.117 -7.242,3.351 h -0.375 c 0.25,-2.187 0.375,-3.453 0.375,-3.797 v -10.617 h -7.148 V 5.227 h 5.812 l 1.008,-3.399 h 0.328 c 1.672,2.594 4.149,3.891 7.43,3.891 3.094,0 5.515,-1.196 7.266,-3.586 1.75,-2.391 2.625,-5.711 2.625,-9.961 0,-2.797 -0.411,-5.227 -1.231,-7.289 -0.82,-2.063 -1.988,-3.633 -3.504,-4.711 -1.516,-1.078 -3.297,-1.617 -5.344,-1.617"
             style="fill:#231f20;fill-opacity:1;fill-rule:nonzero;stroke:none"
             id="path398"
             inkscape:connector-curvature="0" /></g><g
           id="g400"
           transform="translate(376.835,194.415)"><path
             d="m 0,0 c -1.516,0 -2.703,-0.48 -3.563,-1.441 -0.859,-0.961 -1.351,-2.325 -1.476,-4.09 H 4.992 C 4.961,-3.766 4.5,-2.402 3.609,-1.441 2.719,-0.48 1.516,0 0,0 m 1.008,-22.078 c -4.219,0 -7.516,1.164 -9.891,3.492 -2.375,2.328 -3.562,5.625 -3.562,9.891 0,4.39 1.097,7.785 3.293,10.183 2.195,2.399 5.23,3.598 9.105,3.598 3.703,0 6.586,-1.055 8.649,-3.164 2.062,-2.109 3.093,-5.024 3.093,-8.742 v -3.469 H -5.203 c 0.078,-2.031 0.68,-3.617 1.805,-4.758 1.125,-1.14 2.703,-1.711 4.734,-1.711 1.578,0 3.07,0.164 4.476,0.492 1.407,0.328 2.876,0.852 4.407,1.571 v -5.532 c -1.25,-0.625 -2.586,-1.089 -4.008,-1.394 -1.422,-0.305 -3.156,-0.457 -5.203,-0.457"
             style="fill:#231f20;fill-opacity:1;fill-rule:nonzero;stroke:none"
             id="path402"
             inkscape:connector-curvature="0" /></g><g
           id="g404"
           transform="translate(418.5303,172.8057)"><path
             d="m 0,0 h -7.148 v 15.305 c 0,1.89 -0.336,3.308 -1.008,4.254 -0.672,0.945 -1.742,1.418 -3.211,1.418 -2,0 -3.446,-0.668 -4.336,-2.004 -0.891,-1.336 -1.336,-3.551 -1.336,-6.645 V 0 h -7.148 v 26.203 h 5.46 l 0.961,-3.351 h 0.399 c 0.797,1.265 1.894,2.222 3.293,2.871 1.398,0.648 2.988,0.972 4.769,0.972 3.047,0 5.36,-0.824 6.938,-2.472 C -0.789,22.574 0,20.195 0,17.086 Z"
             style="fill:#231f20;fill-opacity:1;fill-rule:nonzero;stroke:none"
             id="path406"
             inkscape:connector-curvature="0" /></g><g
           id="g408"
           transform="translate(446.6787,182.3213)"><path
             d="m 0,0 c 0,-3.094 -1.113,-5.531 -3.34,-7.312 -2.226,-1.782 -5.324,-2.672 -9.293,-2.672 -3.656,0 -6.89,0.687 -9.703,2.062 v 6.75 c 2.313,-1.031 4.27,-1.758 5.871,-2.18 1.602,-0.421 3.067,-0.632 4.395,-0.632 1.593,0 2.816,0.304 3.668,0.914 0.851,0.609 1.277,1.515 1.277,2.718 0,0.672 -0.187,1.27 -0.562,1.793 -0.376,0.524 -0.926,1.028 -1.653,1.512 -0.726,0.485 -2.207,1.258 -4.441,2.32 -2.094,0.985 -3.664,1.93 -4.711,2.836 -1.047,0.907 -1.883,1.961 -2.508,3.164 -0.625,1.204 -0.937,2.61 -0.937,4.219 0,3.031 1.027,5.414 3.082,7.149 2.054,1.734 4.894,2.601 8.519,2.601 1.781,0 3.481,-0.211 5.098,-0.633 1.617,-0.422 3.308,-1.015 5.074,-1.781 L -2.508,17.18 c -1.828,0.75 -3.34,1.273 -4.535,1.57 -1.195,0.297 -2.371,0.445 -3.527,0.445 -1.375,0 -2.43,-0.32 -3.164,-0.961 -0.735,-0.64 -1.102,-1.476 -1.102,-2.507 0,-0.641 0.148,-1.2 0.445,-1.676 0.297,-0.477 0.77,-0.938 1.418,-1.383 0.649,-0.445 2.184,-1.246 4.606,-2.402 C -5.164,8.734 -2.969,7.199 -1.781,5.66 -0.594,4.121 0,2.234 0,0"
             style="fill:#231f20;fill-opacity:1;fill-rule:nonzero;stroke:none"
             id="path410"
             inkscape:connector-curvature="0" /></g><g
           id="g412"
           transform="translate(463.3662,178.0322)"><path
             d="M 0,0 C 1.25,0 2.75,0.273 4.5,0.82 V -4.5 c -1.781,-0.797 -3.969,-1.195 -6.563,-1.195 -2.859,0 -4.941,0.722 -6.246,2.168 -1.304,1.445 -1.957,3.613 -1.957,6.504 v 12.632 h -3.422 v 3.024 l 3.938,2.39 2.063,5.532 h 4.57 V 20.977 H 4.219 V 15.609 H -3.117 V 2.977 c 0,-1.016 0.285,-1.766 0.855,-2.25 C -1.691,0.242 -0.937,0 0,0"
             style="fill:#231f20;fill-opacity:1;fill-rule:nonzero;stroke:none"
             id="path414"
             inkscape:connector-curvature="0" /></g><g
           id="g416"
           transform="translate(487.7881,199.501)"><path
             d="M 0,0 C 0.969,0 1.773,-0.07 2.414,-0.211 L 1.875,-6.914 c -0.578,0.156 -1.281,0.234 -2.109,0.234 -2.282,0 -4.059,-0.586 -5.332,-1.758 -1.274,-1.171 -1.911,-2.812 -1.911,-4.921 v -13.336 h -7.148 v 26.203 h 5.414 l 1.055,-4.406 h 0.351 c 0.813,1.468 1.91,2.652 3.293,3.55 C -3.129,-0.449 -1.625,0 0,0"
             style="fill:#231f20;fill-opacity:1;fill-rule:nonzero;stroke:none"
             id="path418"
             inkscape:connector-curvature="0" /></g><g
           id="g420"
           transform="translate(505.8115,194.415)"><path
             d="m 0,0 c -1.516,0 -2.703,-0.48 -3.563,-1.441 -0.859,-0.961 -1.351,-2.325 -1.476,-4.09 H 4.992 C 4.961,-3.766 4.5,-2.402 3.609,-1.441 2.719,-0.48 1.516,0 0,0 m 1.008,-22.078 c -4.219,0 -7.516,1.164 -9.891,3.492 -2.375,2.328 -3.562,5.625 -3.562,9.891 0,4.39 1.097,7.785 3.293,10.183 2.195,2.399 5.23,3.598 9.105,3.598 3.703,0 6.586,-1.055 8.649,-3.164 2.062,-2.109 3.093,-5.024 3.093,-8.742 v -3.469 H -5.203 c 0.078,-2.031 0.68,-3.617 1.805,-4.758 1.125,-1.14 2.703,-1.711 4.734,-1.711 1.578,0 3.07,0.164 4.476,0.492 1.407,0.328 2.876,0.852 4.407,1.571 v -5.532 c -1.25,-0.625 -2.586,-1.089 -4.008,-1.394 -1.422,-0.305 -3.156,-0.457 -5.203,-0.457"
             style="fill:#231f20;fill-opacity:1;fill-rule:nonzero;stroke:none"
             id="path422"
             inkscape:connector-curvature="0" /></g><g
           id="g424"
           transform="translate(534.1709,194.415)"><path
             d="m 0,0 c -1.516,0 -2.703,-0.48 -3.563,-1.441 -0.859,-0.961 -1.351,-2.325 -1.476,-4.09 H 4.992 C 4.961,-3.766 4.5,-2.402 3.609,-1.441 2.719,-0.48 1.516,0 0,0 m 1.008,-22.078 c -4.219,0 -7.516,1.164 -9.891,3.492 -2.375,2.328 -3.562,5.625 -3.562,9.891 0,4.39 1.097,7.785 3.293,10.183 2.195,2.399 5.23,3.598 9.105,3.598 3.703,0 6.586,-1.055 8.649,-3.164 2.062,-2.109 3.093,-5.024 3.093,-8.742 v -3.469 H -5.203 c 0.078,-2.031 0.68,-3.617 1.805,-4.758 1.125,-1.14 2.703,-1.711 4.734,-1.711 1.578,0 3.07,0.164 4.476,0.492 1.407,0.328 2.876,0.852 4.407,1.571 v -5.532 c -1.25,-0.625 -2.586,-1.089 -4.008,-1.394 -1.422,-0.305 -3.156,-0.457 -5.203,-0.457"
             style="fill:#231f20;fill-opacity:1;fill-rule:nonzero;stroke:none"
             id="path426"
             inkscape:connector-curvature="0" /></g><g
           id="g428"
           transform="translate(562.7178,178.0322)"><path
             d="M 0,0 C 1.25,0 2.75,0.273 4.5,0.82 V -4.5 c -1.781,-0.797 -3.969,-1.195 -6.563,-1.195 -2.859,0 -4.941,0.722 -6.246,2.168 -1.304,1.445 -1.957,3.613 -1.957,6.504 v 12.632 h -3.422 v 3.024 l 3.938,2.39 2.063,5.532 h 4.57 V 20.977 H 4.219 V 15.609 H -3.117 V 2.977 c 0,-1.016 0.285,-1.766 0.855,-2.25 C -1.691,0.242 -0.937,0 0,0"
             style="fill:#231f20;fill-opacity:1;fill-rule:nonzero;stroke:none"
             id="path430"
             inkscape:connector-curvature="0" /></g><g
           id="g432"
           transform="translate(587.585,172.8057)"><path
             d="m 0,0 -8.25,26.883 h -0.211 c 0.297,-5.469 0.445,-9.117 0.445,-10.945 V 0 h -6.492 v 34.266 h 9.891 L 3.492,8.063 h 0.141 l 8.601,26.203 h 9.891 V 0 h -6.773 v 16.219 c 0,0.765 0.011,1.648 0.035,2.648 0.023,1 0.129,3.656 0.316,7.969 H 15.492 L 6.656,0 Z"
             style="fill:#231f20;fill-opacity:1;fill-rule:nonzero;stroke:none"
             id="path434"
             inkscape:connector-curvature="0" /></g><g
           id="g436"
           transform="translate(632.3037,184.9463)"><path
             d="m 0,0 -2.766,-0.094 c -2.078,-0.062 -3.625,-0.437 -4.64,-1.125 -1.016,-0.687 -1.524,-1.734 -1.524,-3.14 0,-2.016 1.157,-3.024 3.469,-3.024 1.656,0 2.981,0.477 3.973,1.43 C -0.496,-5 0,-3.734 0,-2.156 Z M 2.109,-12.141 0.727,-8.578 H 0.539 c -1.203,-1.516 -2.441,-2.567 -3.715,-3.152 -1.273,-0.586 -2.933,-0.879 -4.98,-0.879 -2.516,0 -4.496,0.718 -5.942,2.156 -1.445,1.437 -2.168,3.484 -2.168,6.141 0,2.781 0.973,4.832 2.918,6.152 1.946,1.32 4.879,2.051 8.801,2.191 L 0,4.172 V 5.32 c 0,2.657 -1.359,3.985 -4.078,3.985 -2.094,0 -4.555,-0.633 -7.383,-1.899 l -2.367,4.828 c 3.015,1.579 6.359,2.368 10.031,2.368 3.516,0 6.211,-0.766 8.086,-2.297 1.875,-1.532 2.813,-3.86 2.813,-6.985 v -17.461 z"
             style="fill:#231f20;fill-opacity:1;fill-rule:nonzero;stroke:none"
             id="path438"
             inkscape:connector-curvature="0" /></g><g
           id="g440"
           transform="translate(659.0459,193.7822)"><path
             d="M 0,0 C -1.766,0 -3.055,-0.543 -3.867,-1.629 -4.68,-2.715 -5.102,-4.508 -5.133,-7.008 v -0.773 c 0,-2.813 0.418,-4.828 1.254,-6.047 0.836,-1.219 2.16,-1.828 3.973,-1.828 3.203,0 4.804,2.64 4.804,7.922 0,2.578 -0.394,4.511 -1.183,5.8 C 2.926,-0.645 1.687,0 0,0 m 2.109,-21.445 c -3.078,0 -5.492,1.117 -7.242,3.351 h -0.375 c 0.25,-2.187 0.375,-3.453 0.375,-3.797 v -10.617 h -7.148 V 5.227 h 5.812 l 1.008,-3.399 h 0.328 c 1.672,2.594 4.149,3.891 7.43,3.891 3.094,0 5.515,-1.196 7.266,-3.586 1.75,-2.391 2.625,-5.711 2.625,-9.961 0,-2.797 -0.411,-5.227 -1.231,-7.289 -0.82,-2.063 -1.988,-3.633 -3.504,-4.711 -1.516,-1.078 -3.297,-1.617 -5.344,-1.617"
             style="fill:#231f20;fill-opacity:1;fill-rule:nonzero;stroke:none"
             id="path442"
             inkscape:connector-curvature="0" /></g><g
           id="g444"
           transform="translate(697.3193,172.8057)"><path
             d="m 0,0 h -7.148 v 34.266 h 19.64 V 28.312 H 0 v -8.835 h 11.625 v -5.93 H 0 Z"
             style="fill:#231f20;fill-opacity:1;fill-rule:nonzero;stroke:none"
             id="path446"
             inkscape:connector-curvature="0" /></g><g
           id="g448"
           transform="translate(730.5771,199.501)"><path
             d="M 0,0 C 0.969,0 1.773,-0.07 2.414,-0.211 L 1.875,-6.914 c -0.578,0.156 -1.281,0.234 -2.109,0.234 -2.282,0 -4.059,-0.586 -5.332,-1.758 -1.274,-1.171 -1.911,-2.812 -1.911,-4.921 v -13.336 h -7.148 v 26.203 h 5.414 l 1.055,-4.406 h 0.351 c 0.813,1.468 1.91,2.652 3.293,3.55 C -3.129,-0.449 -1.625,0 0,0"
             style="fill:#231f20;fill-opacity:1;fill-rule:nonzero;stroke:none"
             id="path450"
             inkscape:connector-curvature="0" /></g><g
           id="g452"
           transform="translate(752.2803,184.9463)"><path
             d="m 0,0 -2.766,-0.094 c -2.078,-0.062 -3.625,-0.437 -4.64,-1.125 -1.016,-0.687 -1.524,-1.734 -1.524,-3.14 0,-2.016 1.157,-3.024 3.469,-3.024 1.656,0 2.981,0.477 3.973,1.43 C -0.496,-5 0,-3.734 0,-2.156 Z M 2.109,-12.141 0.727,-8.578 H 0.539 c -1.203,-1.516 -2.441,-2.567 -3.715,-3.152 -1.273,-0.586 -2.933,-0.879 -4.98,-0.879 -2.516,0 -4.496,0.718 -5.942,2.156 -1.445,1.437 -2.168,3.484 -2.168,6.141 0,2.781 0.973,4.832 2.918,6.152 1.946,1.32 4.879,2.051 8.801,2.191 L 0,4.172 V 5.32 c 0,2.657 -1.359,3.985 -4.078,3.985 -2.094,0 -4.555,-0.633 -7.383,-1.899 l -2.367,4.828 c 3.015,1.579 6.359,2.368 10.031,2.368 3.516,0 6.211,-0.766 8.086,-2.297 1.875,-1.532 2.813,-3.86 2.813,-6.985 v -17.461 z"
             style="fill:#231f20;fill-opacity:1;fill-rule:nonzero;stroke:none"
             id="path454"
             inkscape:connector-curvature="0" /></g><g
           id="g456"
           transform="translate(790.9287,172.8057)"><path
             d="m 0,0 h -7.148 v 15.305 c 0,1.89 -0.336,3.308 -1.008,4.254 -0.672,0.945 -1.742,1.418 -3.211,1.418 -2,0 -3.446,-0.668 -4.336,-2.004 -0.891,-1.336 -1.336,-3.551 -1.336,-6.645 V 0 h -7.148 v 26.203 h 5.46 l 0.961,-3.351 h 0.399 c 0.797,1.265 1.894,2.222 3.293,2.871 1.398,0.648 2.988,0.972 4.769,0.972 3.047,0 5.36,-0.824 6.938,-2.472 C -0.789,22.574 0,20.195 0,17.086 Z"
             style="fill:#231f20;fill-opacity:1;fill-rule:nonzero;stroke:none"
             id="path458"
             inkscape:connector-curvature="0" /></g><g
           id="g460"
           transform="translate(808.9287,172.3369)"><path
             d="m 0,0 c -8.156,0 -12.234,4.477 -12.234,13.43 0,4.453 1.109,7.855 3.328,10.207 2.219,2.351 5.398,3.527 9.539,3.527 3.031,0 5.75,-0.594 8.156,-1.781 L 6.68,19.852 c -1.125,0.453 -2.172,0.824 -3.141,1.113 -0.969,0.289 -1.937,0.433 -2.906,0.433 -3.719,0 -5.578,-2.64 -5.578,-7.921 0,-5.125 1.859,-7.688 5.578,-7.688 1.375,0 2.648,0.184 3.82,0.551 1.172,0.367 2.344,0.941 3.516,1.723 V 1.945 C 6.812,1.211 5.645,0.703 4.465,0.422 3.285,0.141 1.797,0 0,0"
             style="fill:#231f20;fill-opacity:1;fill-rule:nonzero;stroke:none"
             id="path462"
             inkscape:connector-curvature="0" /></g><g
           id="g464"
           transform="translate(833.8193,194.415)"><path
             d="m 0,0 c -1.516,0 -2.703,-0.48 -3.563,-1.441 -0.859,-0.961 -1.351,-2.325 -1.476,-4.09 H 4.992 C 4.961,-3.766 4.5,-2.402 3.609,-1.441 2.719,-0.48 1.516,0 0,0 m 1.008,-22.078 c -4.219,0 -7.516,1.164 -9.891,3.492 -2.375,2.328 -3.562,5.625 -3.562,9.891 0,4.39 1.097,7.785 3.293,10.183 2.195,2.399 5.23,3.598 9.105,3.598 3.703,0 6.586,-1.055 8.649,-3.164 2.062,-2.109 3.093,-5.024 3.093,-8.742 v -3.469 H -5.203 c 0.078,-2.031 0.68,-3.617 1.805,-4.758 1.125,-1.14 2.703,-1.711 4.734,-1.711 1.578,0 3.07,0.164 4.476,0.492 1.407,0.328 2.876,0.852 4.407,1.571 v -5.532 c -1.25,-0.625 -2.586,-1.089 -4.008,-1.394 -1.422,-0.305 -3.156,-0.457 -5.203,-0.457"
             style="fill:#231f20;fill-opacity:1;fill-rule:nonzero;stroke:none"
             id="path466"
             inkscape:connector-curvature="0" /></g><g
           id="g468"
           transform="translate(298.5068,115.2061)"><path
             d="M 0,0 V 34.266 H 2.391 V 2.25 H 18.727 V 0 Z"
             style="fill:#231f20;fill-opacity:1;fill-rule:nonzero;stroke:none"
             id="path470"
             inkscape:connector-curvature="0" /></g><g
           id="g472"
           transform="translate(328.6475,116.8467)"><path
             d="m 0,0 c 2.719,0 4.863,0.777 6.434,2.332 1.57,1.555 2.355,3.715 2.355,6.481 V 11.32 L 4.336,11.133 C 0.758,10.961 -1.793,10.402 -3.316,9.457 -4.84,8.512 -5.602,7.039 -5.602,5.039 -5.602,3.445 -5.113,2.207 -4.137,1.324 -3.16,0.441 -1.781,0 0,0 M 9.375,-1.641 8.789,2.391 H 8.602 C 7.32,0.75 6.004,-0.41 4.652,-1.09 3.301,-1.77 1.703,-2.109 -0.141,-2.109 c -2.5,0 -4.445,0.64 -5.836,1.922 -1.39,1.281 -2.086,3.054 -2.086,5.32 0,2.484 1.036,4.414 3.106,5.789 2.07,1.375 5.066,2.101 8.988,2.18 l 4.852,0.14 v 1.688 c 0,2.422 -0.492,4.25 -1.477,5.484 -0.984,1.234 -2.57,1.852 -4.758,1.852 -2.359,0 -4.804,-0.657 -7.335,-1.969 l -0.868,2.015 c 2.797,1.313 5.563,1.969 8.297,1.969 2.797,0 4.887,-0.726 6.27,-2.179 1.383,-1.454 2.074,-3.719 2.074,-6.797 V -1.641 Z"
             style="fill:#231f20;fill-opacity:1;fill-rule:nonzero;stroke:none"
             id="path474"
             inkscape:connector-curvature="0" /></g><g
           id="g476"
           transform="translate(370.624,114.7373)"><path
             d="m 0,0 c -3.641,0 -6.492,1.148 -8.555,3.445 -2.062,2.297 -3.093,5.5 -3.093,9.61 0,4.218 1.07,7.504 3.21,9.855 2.141,2.352 5.071,3.527 8.79,3.527 2.203,0 4.312,-0.382 6.328,-1.148 L 6.047,23.227 c -2.203,0.734 -4.117,1.101 -5.742,1.101 -3.125,0 -5.492,-0.965 -7.102,-2.894 -1.609,-1.93 -2.414,-4.707 -2.414,-8.332 0,-3.438 0.805,-6.129 2.414,-8.075 1.61,-1.945 3.859,-2.918 6.75,-2.918 2.313,0 4.461,0.414 6.445,1.243 V 1.195 C 4.773,0.398 2.641,0 0,0"
             style="fill:#231f20;fill-opacity:1;fill-rule:nonzero;stroke:none"
             id="path478"
             inkscape:connector-curvature="0" /></g><g
           id="g480"
           transform="translate(389.3506,116.8467)"><path
             d="m 0,0 c 2.719,0 4.863,0.777 6.434,2.332 1.57,1.555 2.355,3.715 2.355,6.481 V 11.32 L 4.336,11.133 C 0.758,10.961 -1.793,10.402 -3.316,9.457 -4.84,8.512 -5.602,7.039 -5.602,5.039 -5.602,3.445 -5.113,2.207 -4.137,1.324 -3.16,0.441 -1.781,0 0,0 M 9.375,-1.641 8.789,2.391 H 8.602 C 7.32,0.75 6.004,-0.41 4.652,-1.09 3.301,-1.77 1.703,-2.109 -0.141,-2.109 c -2.5,0 -4.445,0.64 -5.836,1.922 -1.39,1.281 -2.086,3.054 -2.086,5.32 0,2.484 1.036,4.414 3.106,5.789 2.07,1.375 5.066,2.101 8.988,2.18 l 4.852,0.14 v 1.688 c 0,2.422 -0.492,4.25 -1.477,5.484 -0.984,1.234 -2.57,1.852 -4.758,1.852 -2.359,0 -4.804,-0.657 -7.335,-1.969 l -0.868,2.015 c 2.797,1.313 5.563,1.969 8.297,1.969 2.797,0 4.887,-0.726 6.27,-2.179 1.383,-1.454 2.074,-3.719 2.074,-6.797 V -1.641 Z"
             style="fill:#231f20;fill-opacity:1;fill-rule:nonzero;stroke:none"
             id="path482"
             inkscape:connector-curvature="0" /></g><g
           id="g484"
           transform="translate(418.7178,141.1748)"><path
             d="M 0,0 C 1.078,0 2.234,-0.109 3.469,-0.328 L 3.023,-2.555 c -1.062,0.266 -2.164,0.399 -3.304,0.399 -2.172,0 -3.953,-0.922 -5.344,-2.766 -1.391,-1.844 -2.086,-4.172 -2.086,-6.984 v -14.063 h -2.32 v 25.477 h 1.968 l 0.235,-4.594 h 0.164 c 1.047,1.875 2.164,3.191 3.352,3.949 C -3.125,-0.379 -1.687,0 0,0"
             style="fill:#231f20;fill-opacity:1;fill-rule:nonzero;stroke:none"
             id="path486"
             inkscape:connector-curvature="0" /></g><g
           id="g488"
           transform="translate(434.0928,116.7998)"><path
             d="M 0,0 C 1.469,0 2.75,0.125 3.844,0.375 V -1.5 c -1.125,-0.375 -2.422,-0.563 -3.891,-0.563 -2.25,0 -3.91,0.602 -4.98,1.805 -1.071,1.203 -1.606,3.094 -1.606,5.672 v 16.453 h -3.773 v 1.36 l 3.773,1.054 1.172,5.766 h 1.195 V 23.883 H 3.211 V 21.867 H -4.266 V 5.742 c 0,-1.953 0.344,-3.398 1.032,-4.336 C -2.547,0.469 -1.469,0 0,0"
             style="fill:#231f20;fill-opacity:1;fill-rule:nonzero;stroke:none"
             id="path490"
             inkscape:connector-curvature="0" /></g><g
           id="g492"
           transform="translate(453.0537,139.1123)"><path
             d="m 0,0 c -2.453,0 -4.422,-0.809 -5.906,-2.426 -1.485,-1.617 -2.352,-3.949 -2.602,-6.996 h 15.75 c 0,2.953 -0.64,5.262 -1.922,6.926 C 4.039,-0.832 2.266,0 0,0 m 0.68,-24.375 c -3.703,0 -6.59,1.141 -8.66,3.422 -2.071,2.281 -3.106,5.476 -3.106,9.586 0,4.062 1,7.316 3,9.762 2,2.445 4.695,3.668 8.086,3.668 3,0 5.367,-1.047 7.102,-3.141 1.734,-2.094 2.601,-4.938 2.601,-8.531 v -1.875 H -8.648 c 0.031,-3.5 0.847,-6.172 2.449,-8.016 1.601,-1.844 3.894,-2.766 6.879,-2.766 1.453,0 2.73,0.102 3.832,0.305 1.101,0.203 2.496,0.641 4.183,1.313 v -2.11 c -1.437,-0.625 -2.765,-1.051 -3.984,-1.277 -1.219,-0.227 -2.563,-0.34 -4.031,-0.34"
             style="fill:#231f20;fill-opacity:1;fill-rule:nonzero;stroke:none"
             id="path494"
             inkscape:connector-curvature="0" /></g><g
           id="g496"
           transform="translate(492.4287,114.7373)"><path
             d="m 0,0 c -3.641,0 -6.492,1.148 -8.555,3.445 -2.062,2.297 -3.093,5.5 -3.093,9.61 0,4.218 1.07,7.504 3.21,9.855 2.141,2.352 5.071,3.527 8.79,3.527 2.203,0 4.312,-0.382 6.328,-1.148 L 6.047,23.227 c -2.203,0.734 -4.117,1.101 -5.742,1.101 -3.125,0 -5.492,-0.965 -7.102,-2.894 -1.609,-1.93 -2.414,-4.707 -2.414,-8.332 0,-3.438 0.805,-6.129 2.414,-8.075 1.61,-1.945 3.859,-2.918 6.75,-2.918 2.313,0 4.461,0.414 6.445,1.243 V 1.195 C 4.773,0.398 2.641,0 0,0"
             style="fill:#231f20;fill-opacity:1;fill-rule:nonzero;stroke:none"
             id="path498"
             inkscape:connector-curvature="0" /></g><g
           id="g500"
           transform="translate(506.0225,127.9795)"><path
             d="m 0,0 c 0,-3.5 0.77,-6.23 2.309,-8.191 1.539,-1.961 3.714,-2.942 6.527,-2.942 2.812,0 4.988,0.981 6.527,2.942 1.539,1.961 2.309,4.691 2.309,8.191 0,3.516 -0.777,6.242 -2.332,8.18 -1.555,1.937 -3.738,2.906 -6.551,2.906 -2.812,0 -4.98,-0.965 -6.504,-2.895 C 0.762,6.262 0,3.531 0,0 m 20.109,0 c 0,-4.156 -1.007,-7.402 -3.023,-9.738 -2.016,-2.336 -4.797,-3.504 -8.344,-3.504 -2.234,0 -4.203,0.539 -5.906,1.617 -1.703,1.078 -3.008,2.625 -3.914,4.641 -0.906,2.015 -1.36,4.343 -1.36,6.984 0,4.156 1.008,7.395 3.024,9.715 2.016,2.32 4.781,3.48 8.297,3.48 3.5,0 6.246,-1.175 8.238,-3.527 C 19.113,7.316 20.109,4.094 20.109,0"
             style="fill:#231f20;fill-opacity:1;fill-rule:nonzero;stroke:none"
             id="path502"
             inkscape:connector-curvature="0" /></g><g
           id="g504"
           transform="translate(534.1475,127.9795)"><path
             d="m 0,0 c 0,-3.5 0.77,-6.23 2.309,-8.191 1.539,-1.961 3.714,-2.942 6.527,-2.942 2.812,0 4.988,0.981 6.527,2.942 1.539,1.961 2.309,4.691 2.309,8.191 0,3.516 -0.777,6.242 -2.332,8.18 -1.555,1.937 -3.738,2.906 -6.551,2.906 -2.812,0 -4.98,-0.965 -6.504,-2.895 C 0.762,6.262 0,3.531 0,0 m 20.109,0 c 0,-4.156 -1.007,-7.402 -3.023,-9.738 -2.016,-2.336 -4.797,-3.504 -8.344,-3.504 -2.234,0 -4.203,0.539 -5.906,1.617 -1.703,1.078 -3.008,2.625 -3.914,4.641 -0.906,2.015 -1.36,4.343 -1.36,6.984 0,4.156 1.008,7.395 3.024,9.715 2.016,2.32 4.781,3.48 8.297,3.48 3.5,0 6.246,-1.175 8.238,-3.527 C 19.113,7.316 20.109,4.094 20.109,0"
             style="fill:#231f20;fill-opacity:1;fill-rule:nonzero;stroke:none"
             id="path506"
             inkscape:connector-curvature="0" /></g><g
           id="g508"
           transform="translate(572.1631,116.7998)"><path
             d="m 0,0 c 2.609,0 4.629,0.969 6.059,2.906 1.429,1.938 2.144,4.649 2.144,8.133 0,7.484 -2.703,11.227 -8.109,11.227 -2.969,0 -5.149,-0.817 -6.539,-2.45 -1.391,-1.632 -2.086,-4.293 -2.086,-7.98 v -0.75 c 0,-3.984 0.668,-6.828 2.004,-8.531 C -5.191,0.852 -3.016,0 0,0 m 0.047,-2.063 c -3.922,0 -6.781,1.469 -8.578,4.407 h -0.164 l 0.07,-1.969 c 0.062,-1.156 0.094,-2.422 0.094,-3.797 v -9.703 h -2.321 v 37.008 h 1.969 l 0.445,-3.633 h 0.141 c 1.75,2.75 4.547,4.125 8.391,4.125 3.437,0 6.058,-1.129 7.863,-3.387 1.805,-2.258 2.707,-5.543 2.707,-9.855 C 10.664,6.945 9.715,3.699 7.816,1.395 5.918,-0.91 3.328,-2.063 0.047,-2.063"
             style="fill:#231f20;fill-opacity:1;fill-rule:nonzero;stroke:none"
             id="path510"
             inkscape:connector-curvature="0" /></g><g
           id="g512"
           transform="translate(596.21,144.667)"><path
             d="M 0,0 C 1.141,1.234 2.27,2.574 3.387,4.02 4.504,5.465 5.266,6.562 5.672,7.312 H 8.977 V 6.914 C 8.414,6.102 7.457,5.023 6.105,3.68 4.754,2.336 3.266,0.984 1.641,-0.375 H 0 Z m 3.281,-5.555 c -2.453,0 -4.422,-0.808 -5.906,-2.425 -1.484,-1.618 -2.352,-3.95 -2.602,-6.997 h 15.75 c 0,2.954 -0.64,5.262 -1.921,6.926 -1.282,1.664 -3.055,2.496 -5.321,2.496 m 0.68,-24.375 c -3.703,0 -6.59,1.141 -8.66,3.422 -2.071,2.281 -3.106,5.477 -3.106,9.586 0,4.063 1,7.317 3,9.762 2,2.445 4.696,3.668 8.086,3.668 3,0 5.367,-1.047 7.102,-3.141 1.734,-2.094 2.601,-4.937 2.601,-8.531 v -1.875 H -5.367 c 0.031,-3.5 0.847,-6.172 2.449,-8.016 1.602,-1.843 3.895,-2.765 6.879,-2.765 1.453,0 2.73,0.101 3.832,0.304 1.102,0.204 2.496,0.641 4.184,1.313 v -2.109 C 10.539,-28.937 9.211,-29.363 7.992,-29.59 6.773,-29.816 5.43,-29.93 3.961,-29.93"
             style="fill:#231f20;fill-opacity:1;fill-rule:nonzero;stroke:none"
             id="path514"
             inkscape:connector-curvature="0" /></g><g
           id="g516"
           transform="translate(626.2568,141.1748)"><path
             d="M 0,0 C 1.078,0 2.234,-0.109 3.469,-0.328 L 3.023,-2.555 c -1.062,0.266 -2.164,0.399 -3.304,0.399 -2.172,0 -3.953,-0.922 -5.344,-2.766 -1.391,-1.844 -2.086,-4.172 -2.086,-6.984 v -14.063 h -2.32 v 25.477 h 1.968 l 0.235,-4.594 h 0.164 c 1.047,1.875 2.164,3.191 3.352,3.949 C -3.125,-0.379 -1.687,0 0,0"
             style="fill:#231f20;fill-opacity:1;fill-rule:nonzero;stroke:none"
             id="path518"
             inkscape:connector-curvature="0" /></g><g
           id="g520"
           transform="translate(640.999,116.8467)"><path
             d="m 0,0 c 2.719,0 4.863,0.777 6.434,2.332 1.57,1.555 2.355,3.715 2.355,6.481 V 11.32 L 4.336,11.133 C 0.758,10.961 -1.793,10.402 -3.316,9.457 -4.84,8.512 -5.602,7.039 -5.602,5.039 -5.602,3.445 -5.113,2.207 -4.137,1.324 -3.16,0.441 -1.781,0 0,0 M 9.375,-1.641 8.789,2.391 H 8.602 C 7.32,0.75 6.004,-0.41 4.652,-1.09 3.301,-1.77 1.703,-2.109 -0.141,-2.109 c -2.5,0 -4.445,0.64 -5.836,1.922 -1.39,1.281 -2.086,3.054 -2.086,5.32 0,2.484 1.036,4.414 3.106,5.789 2.07,1.375 5.066,2.101 8.988,2.18 l 4.852,0.14 v 1.688 c 0,2.422 -0.492,4.25 -1.477,5.484 -0.984,1.234 -2.57,1.852 -4.758,1.852 -2.359,0 -4.804,-0.657 -7.335,-1.969 l -0.868,2.015 c 2.797,1.313 5.563,1.969 8.297,1.969 2.797,0 4.887,-0.726 6.27,-2.179 1.383,-1.454 2.074,-3.719 2.074,-6.797 V -1.641 Z"
             style="fill:#231f20;fill-opacity:1;fill-rule:nonzero;stroke:none"
             id="path522"
             inkscape:connector-curvature="0" /></g><g
           id="g524"
           transform="translate(667.0615,116.7998)"><path
             d="M 0,0 C 1.469,0 2.75,0.125 3.844,0.375 V -1.5 c -1.125,-0.375 -2.422,-0.563 -3.891,-0.563 -2.25,0 -3.91,0.602 -4.98,1.805 -1.071,1.203 -1.606,3.094 -1.606,5.672 v 16.453 h -3.773 v 1.36 l 3.773,1.054 1.172,5.766 h 1.195 V 23.883 H 3.211 V 21.867 H -4.266 V 5.742 c 0,-1.953 0.344,-3.398 1.032,-4.336 C -2.547,0.469 -1.469,0 0,0"
             style="fill:#231f20;fill-opacity:1;fill-rule:nonzero;stroke:none"
             id="path526"
             inkscape:connector-curvature="0" /></g><path
           d="m 678.733,115.206 h -2.32 v 25.477 h 2.32 z m -2.648,32.555 c 0,1.5 0.492,2.25 1.477,2.25 0.484,0 0.863,-0.196 1.136,-0.586 0.274,-0.391 0.41,-0.946 0.41,-1.664 0,-0.703 -0.136,-1.258 -0.41,-1.664 -0.273,-0.407 -0.652,-0.61 -1.136,-0.61 -0.985,0 -1.477,0.758 -1.477,2.274"
           style="fill:#231f20;fill-opacity:1;fill-rule:nonzero;stroke:none"
           id="path528"
           inkscape:connector-curvature="0" /><g
           id="g530"
           transform="translate(692.8428,115.2061)"><path
             d="m 0,0 -9.844,25.477 h 2.391 L -0.867,8.156 C 0.008,5.937 0.664,4 1.102,2.344 h 0.14 c 0.641,2.125 1.297,4.078 1.969,5.859 l 6.586,17.274 h 2.391 L 2.344,0 Z"
             style="fill:#231f20;fill-opacity:1;fill-rule:nonzero;stroke:none"
             id="path532"
             inkscape:connector-curvature="0" /></g><g
           id="g534"
           transform="translate(718.9053,139.1123)"><path
             d="m 0,0 c -2.453,0 -4.422,-0.809 -5.906,-2.426 -1.485,-1.617 -2.352,-3.949 -2.602,-6.996 h 15.75 c 0,2.953 -0.64,5.262 -1.922,6.926 C 4.039,-0.832 2.266,0 0,0 m 0.68,-24.375 c -3.703,0 -6.59,1.141 -8.66,3.422 -2.071,2.281 -3.106,5.476 -3.106,9.586 0,4.062 1,7.316 3,9.762 2,2.445 4.695,3.668 8.086,3.668 3,0 5.367,-1.047 7.102,-3.141 1.734,-2.094 2.601,-4.938 2.601,-8.531 v -1.875 H -8.648 c 0.031,-3.5 0.847,-6.172 2.449,-8.016 1.601,-1.844 3.894,-2.766 6.879,-2.766 1.453,0 2.73,0.102 3.832,0.305 1.101,0.203 2.496,0.641 4.183,1.313 v -2.11 c -1.437,-0.625 -2.765,-1.051 -3.984,-1.277 -1.219,-0.227 -2.563,-0.34 -4.031,-0.34"
             style="fill:#231f20;fill-opacity:1;fill-rule:nonzero;stroke:none"
             id="path536"
             inkscape:connector-curvature="0" /></g><path
           d="m 750.429,115.206 h -2.32 v 36.469 h 2.32 z"
           style="fill:#231f20;fill-opacity:1;fill-rule:nonzero;stroke:none"
           id="path538"
           inkscape:connector-curvature="0" /><path
           d="m 761.28,115.206 h -2.32 v 25.477 h 2.32 z m -2.648,32.555 c 0,1.5 0.492,2.25 1.476,2.25 0.485,0 0.864,-0.196 1.137,-0.586 0.274,-0.391 0.41,-0.946 0.41,-1.664 0,-0.703 -0.136,-1.258 -0.41,-1.664 -0.273,-0.407 -0.652,-0.61 -1.137,-0.61 -0.984,0 -1.476,0.758 -1.476,2.274"
           style="fill:#231f20;fill-opacity:1;fill-rule:nonzero;stroke:none"
           id="path540"
           inkscape:connector-curvature="0" /><g
           id="g542"
           transform="translate(780.5225,139.0654)"><path
             d="m 0,0 c -3,0 -5.148,-0.859 -6.445,-2.578 -1.297,-1.719 -1.946,-4.555 -1.946,-8.508 v -0.398 c 0,-3.844 0.676,-6.602 2.028,-8.274 1.351,-1.672 3.457,-2.508 6.316,-2.508 2.781,0 4.875,0.973 6.281,2.918 1.407,1.946 2.11,4.715 2.11,8.309 C 8.344,-3.68 5.562,0 0,0 m 0.047,2.109 c 3.562,0 6.246,-1.121 8.051,-3.363 1.804,-2.242 2.707,-5.519 2.707,-9.832 0,-4.234 -0.95,-7.5 -2.848,-9.797 -1.898,-2.297 -4.566,-3.445 -8.004,-3.445 -1.812,0 -3.445,0.375 -4.898,1.125 -1.453,0.75 -2.602,1.812 -3.446,3.187 h -0.211 l -0.656,-3.843 h -1.453 v 36.468 h 2.32 V 3.445 c 0,-1.375 -0.031,-2.64 -0.093,-3.797 l -0.071,-1.992 h 0.164 c 0.969,1.532 2.137,2.656 3.504,3.375 1.367,0.719 3.012,1.078 4.934,1.078"
             style="fill:#231f20;fill-opacity:1;fill-rule:nonzero;stroke:none"
             id="path544"
             inkscape:connector-curvature="0" /></g><g
           id="g546"
           transform="translate(808.4131,141.1748)"><path
             d="M 0,0 C 1.078,0 2.234,-0.109 3.469,-0.328 L 3.023,-2.555 c -1.062,0.266 -2.164,0.399 -3.304,0.399 -2.172,0 -3.953,-0.922 -5.344,-2.766 -1.391,-1.844 -2.086,-4.172 -2.086,-6.984 v -14.063 h -2.32 v 25.477 h 1.968 l 0.235,-4.594 h 0.164 c 1.047,1.875 2.164,3.191 3.352,3.949 C -3.125,-0.379 -1.687,0 0,0"
             style="fill:#231f20;fill-opacity:1;fill-rule:nonzero;stroke:none"
             id="path548"
             inkscape:connector-curvature="0" /></g><g
           id="g550"
           transform="translate(826.6709,139.1123)"><path
             d="m 0,0 c -2.453,0 -4.422,-0.809 -5.906,-2.426 -1.485,-1.617 -2.352,-3.949 -2.602,-6.996 h 15.75 c 0,2.953 -0.64,5.262 -1.922,6.926 C 4.039,-0.832 2.266,0 0,0 m 0.68,-24.375 c -3.703,0 -6.59,1.141 -8.66,3.422 -2.071,2.281 -3.106,5.476 -3.106,9.586 0,4.062 1,7.316 3,9.762 2,2.445 4.695,3.668 8.086,3.668 3,0 5.367,-1.047 7.102,-3.141 1.734,-2.094 2.601,-4.938 2.601,-8.531 v -1.875 H -8.648 c 0.031,-3.5 0.847,-6.172 2.449,-8.016 1.601,-1.844 3.894,-2.766 6.879,-2.766 1.453,0 2.73,0.102 3.832,0.305 1.101,0.203 2.496,0.641 4.183,1.313 v -2.11 c -1.437,-0.625 -2.765,-1.051 -3.984,-1.277 -1.219,-0.227 -2.563,-0.34 -4.031,-0.34"
             style="fill:#231f20;fill-opacity:1;fill-rule:nonzero;stroke:none"
             id="path552"
             inkscape:connector-curvature="0" /></g></g></g></g></svg>
