<svg height="300px" width="300px" fill="#000000" xmlns="http://www.w3.org/2000/svg" xmlns:xlink="http://www.w3.org/1999/xlink" xmlns:a="http://ns.adobe.com/AdobeSVGViewerExtensions/3.0/" version="1.1" x="0px" y="0px" viewBox="-10.694 -6.799 100 100" overflow="visible" enable-background="new -10.694 -6.799 100 100" xml:space="preserve"><path fill-rule="evenodd" clip-rule="evenodd" d="M42.507,70.797l-0.395,0.134c-0.663,0.198-1.338,0.299-2.007,0.299H40h-0.286  l-0.351-0.035c-0.368-0.028-0.803-0.113-1.255-0.252L37.866,70.9l-0.641-0.269c-0.423-0.201-15.065-7.735-26.234-13.492  c-5.286,3.236-9.431,5.777-10.059,6.166c-0.291,0.161-0.555,0.372-0.726,0.688c-0.211,0.376-0.244,0.793-0.173,1.189  c0.002,0.018,0.002,0.035,0.005,0.051c0.04,0.19,0.115,0.366,0.211,0.537c0.024,0.04,0.024,0.083,0.053,0.123  c0.007,0.013,0.02,0.018,0.027,0.032c0.073,0.098,0.166,0.176,0.261,0.261c0.096,0.096,0.191,0.191,0.307,0.262  c0.007,0.005,0.018,0.018,0.027,0.022c0.502,0.276,37.846,19.514,38.361,19.76c0.041,0.021,0.081,0.018,0.121,0.033  c0.171,0.07,0.341,0.118,0.527,0.133c0.045,0.005,0.088,0.005,0.13,0.005c0.196,0,0.384-0.024,0.578-0.085  c0.032-0.01,0.06-0.025,0.09-0.038c0.123-0.045,0.246-0.067,0.356-0.141l36.629-22.421c0.06-0.03,0.09-0.086,0.141-0.121  c0.098-0.072,0.183-0.146,0.266-0.235c0.088-0.093,0.161-0.191,0.227-0.297c0.03-0.053,0.077-0.085,0.103-0.141  c0.025-0.05,0.022-0.105,0.043-0.158c0.042-0.117,0.07-0.233,0.09-0.358c0.018-0.115,0.03-0.227,0.025-0.342  c-0.005-0.112-0.022-0.221-0.05-0.336c-0.028-0.121-0.065-0.238-0.118-0.352c-0.022-0.051-0.022-0.105-0.051-0.156  c-0.03-0.05-0.08-0.082-0.115-0.13c-0.073-0.104-0.153-0.191-0.243-0.279C77.94,60.73,77.85,60.66,77.747,60.6  c-0.056-0.035-0.091-0.085-0.146-0.113l-9.743-5.019L43.772,70.212C43.348,70.506,42.816,70.697,42.507,70.797z"/><path fill-rule="evenodd" clip-rule="evenodd" d="M42.525,50.479l-0.374,0.128c-0.658,0.204-1.367,0.312-2.087,0.312h-0.286  l-0.415-0.038c-0.394-0.029-0.863-0.125-1.344-0.278l-0.223-0.045l-0.57-0.238c-0.458-0.219-15.079-7.743-26.233-13.492  c-5.287,3.239-9.432,5.779-10.06,6.169c-0.291,0.16-0.555,0.371-0.726,0.685c-0.211,0.377-0.244,0.795-0.173,1.193  c0.002,0.015,0.002,0.032,0.005,0.047c0.04,0.193,0.115,0.367,0.211,0.538c0.024,0.04,0.024,0.082,0.053,0.123  c0.007,0.015,0.02,0.02,0.027,0.032c0.073,0.098,0.166,0.179,0.261,0.264c0.096,0.093,0.191,0.19,0.307,0.261  c0.007,0.005,0.018,0.016,0.027,0.021c0.502,0.276,37.846,19.517,38.361,19.763c0.041,0.018,0.081,0.015,0.121,0.03  c0.171,0.07,0.341,0.118,0.527,0.133c0.045,0.005,0.088,0.003,0.13,0.003c0.196,0.005,0.384-0.025,0.578-0.083  c0.032-0.013,0.06-0.025,0.09-0.038c0.123-0.045,0.246-0.065,0.356-0.141l36.629-22.418c0.06-0.035,0.09-0.088,0.141-0.123  c0.098-0.072,0.183-0.146,0.266-0.233c0.088-0.095,0.161-0.19,0.227-0.299c0.03-0.053,0.077-0.085,0.103-0.141  c0.025-0.05,0.022-0.103,0.043-0.158c0.042-0.115,0.07-0.233,0.09-0.358c0.018-0.113,0.03-0.229,0.025-0.339  c-0.005-0.116-0.022-0.224-0.05-0.337c-0.028-0.12-0.065-0.241-0.118-0.352c-0.022-0.053-0.022-0.105-0.051-0.155  c-0.03-0.053-0.08-0.085-0.115-0.131c-0.073-0.105-0.153-0.195-0.243-0.281c-0.093-0.083-0.184-0.15-0.286-0.216  c-0.056-0.032-0.091-0.08-0.146-0.11l-9.742-5.019L43.772,49.902C43.326,50.198,42.819,50.384,42.525,50.479z"/><path fill-rule="evenodd" clip-rule="evenodd" d="M39.419,0.197c-0.068-0.037-0.141-0.04-0.208-0.065  c-0.105-0.045-0.208-0.08-0.319-0.1c-0.138-0.03-0.269-0.035-0.407-0.03c-0.088,0.002-0.173,0.005-0.264,0.024  c-0.158,0.025-0.306,0.081-0.45,0.151c-0.04,0.02-0.09,0.018-0.133,0.042C37.154,0.499,2.838,21.501,0.933,22.684  c-0.291,0.16-0.555,0.374-0.726,0.685c-0.211,0.377-0.244,0.799-0.173,1.193c0.002,0.018,0.002,0.032,0.005,0.047  c0.04,0.193,0.115,0.367,0.211,0.538c0.024,0.04,0.024,0.085,0.053,0.125c0.007,0.013,0.02,0.018,0.027,0.03  c0.073,0.101,0.166,0.178,0.261,0.264c0.096,0.093,0.191,0.19,0.307,0.259c0.007,0.01,0.018,0.02,0.027,0.024  c0.502,0.276,37.846,19.511,38.361,19.76c0.041,0.018,0.081,0.018,0.121,0.032c0.171,0.07,0.341,0.116,0.527,0.131  c0.045,0.005,0.088,0.005,0.13,0.005c0.196,0,0.384-0.025,0.578-0.085c0.032-0.011,0.06-0.025,0.09-0.035  c0.123-0.046,0.246-0.068,0.356-0.141l36.629-22.418c0.06-0.035,0.09-0.091,0.141-0.126c0.098-0.07,0.183-0.146,0.266-0.233  c0.088-0.093,0.161-0.19,0.227-0.299c0.03-0.05,0.077-0.085,0.103-0.141c0.025-0.05,0.022-0.103,0.043-0.155  c0.042-0.121,0.07-0.236,0.09-0.361c0.018-0.113,0.03-0.227,0.025-0.342c-0.005-0.11-0.022-0.221-0.05-0.331  c-0.028-0.126-0.065-0.241-0.118-0.356c-0.022-0.051-0.022-0.104-0.051-0.151c-0.03-0.055-0.08-0.085-0.115-0.135  c-0.073-0.101-0.153-0.191-0.243-0.276c-0.093-0.086-0.184-0.153-0.286-0.216c-0.056-0.035-0.091-0.086-0.146-0.11L39.419,0.197z"/></svg>