<svg height="300px" width="300px" fill="#000000" xmlns:dc="http://purl.org/dc/elements/1.1/" xmlns:cc="http://creativecommons.org/ns#" xmlns:rdf="http://www.w3.org/1999/02/22-rdf-syntax-ns#" xmlns:svg="http://www.w3.org/2000/svg" xmlns="http://www.w3.org/2000/svg" xmlns:sodipodi="http://sodipodi.sourceforge.net/DTD/sodipodi-0.dtd" xmlns:inkscape="http://www.inkscape.org/namespaces/inkscape" viewBox="0 0 16.933333 16.933334" version="1.1" x="0px" y="0px"><g transform="translate(0,-280.06664)"><path style="color:#000000;font-style:normal;font-variant:normal;font-weight:normal;font-stretch:normal;font-size:medium;line-height:normal;font-family:sans-serif;font-variant-ligatures:normal;font-variant-position:normal;font-variant-caps:normal;font-variant-numeric:normal;font-variant-alternates:normal;font-feature-settings:normal;text-indent:0;text-align:start;text-decoration:none;text-decoration-line:none;text-decoration-style:solid;text-decoration-color:#000000;letter-spacing:normal;word-spacing:normal;text-transform:none;writing-mode:lr-tb;direction:ltr;text-orientation:mixed;dominant-baseline:auto;baseline-shift:baseline;text-anchor:start;white-space:normal;shape-padding:0;clip-rule:nonzero;display:inline;overflow:visible;visibility:visible;opacity:1;isolation:auto;mix-blend-mode:normal;color-interpolation:sRGB;color-interpolation-filters:linearRGB;solid-color:#000000;solid-opacity:1;vector-effect:none;fill:#000000;fill-opacity:1;fill-rule:nonzero;stroke:none;stroke-width:4;stroke-linecap:round;stroke-linejoin:round;stroke-miterlimit:4;stroke-dasharray:none;stroke-dashoffset:0;stroke-opacity:1;paint-order:stroke fill markers;color-rendering:auto;image-rendering:auto;shape-rendering:auto;text-rendering:auto;enable-background:accumulate" d="M 54 2 C 49.605411 2 46 5.60543 46 10 C 46 11.476733 46.415675 12.859138 47.123047 14.050781 L 37.507812 23.666016 C 35.925209 22.614217 34.030957 21.998047 32 21.998047 C 27.184823 21.998047 23.134561 25.449265 22.201172 30 L 17.734375 30 C 16.83766 26.564028 13.703738 24 10 24 C 5.6054114 24 2.0000002 27.605392 2 32 C 2.0000002 36.39457 5.6054114 40 10 40 C 13.703738 40 16.83766 37.435949 17.734375 34 L 22.201172 34 C 23.13529 38.549833 27.185486 42.001953 32 42.001953 C 33.254948 42.001953 34.452963 41.757445 35.5625 41.330078 L 40.164062 48.558594 C 38.827391 49.990367 38 51.902328 38 54 C 38 58.394608 41.605411 62 46 62 C 50.394589 62 54 58.394608 54 54 C 54 49.60543 50.394589 46 46 46 C 45.13952 46 44.310075 46.141166 43.53125 46.396484 L 38.9375 39.177734 C 40.822284 37.355639 42.003906 34.810912 42.003906 32 C 42.003906 29.969644 41.38522 28.076463 40.333984 26.494141 L 49.949219 16.878906 C 51.140664 17.585959 52.523635 18 54 18 C 58.394589 18 62 14.394608 62 10 C 62 5.60543 58.394589 2 54 2 z M 54 6 C 56.232828 6 58 7.7671685 58 10 C 58 12.232831 56.232828 14 54 14 C 51.767172 14 50 12.232831 50 10 C 50 7.7671685 51.767172 6 54 6 z M 32 25.998047 C 35.337398 25.998047 38.001953 28.662602 38.001953 32 C 38.001953 35.337398 35.337398 38.001953 32 38.001953 C 28.662602 38.001953 25.998047 35.337398 25.998047 32 C 25.998047 28.662602 28.662602 25.998047 32 25.998047 z M 10 28 C 12.232828 28 14 29.767169 14 32 C 14 34.232831 12.232828 36 10 36 C 7.7671715 36 6.0000004 34.232831 6 32 C 6.0000004 29.767169 7.7671715 28 10 28 z M 46 50 C 48.232828 50 50 51.767169 50 54 C 50 56.232831 48.232828 58 46 58 C 43.767172 58 42 56.232831 42 54 C 42 51.767169 43.767172 50 46 50 z " transform="matrix(0.26458334,0,0,0.26458334,0,280.06664)"/></g></svg>