<?xml version="1.0" standalone="no"?>
<!DOCTYPE svg PUBLIC "-//W3C//DTD SVG 20010904//EN" "http://www.w3.org/TR/2001/REC-SVG-20010904/DTD/svg10.dtd">
<!-- Created using Krita: https://krita.org -->
<svg xmlns="http://www.w3.org/2000/svg" 
    xmlns:xlink="http://www.w3.org/1999/xlink"
    xmlns:krita="http://krita.org/namespaces/svg/krita"
    xmlns:sodipodi="http://sodipodi.sourceforge.net/DTD/sodipodi-0.dtd"
    width="882.72pt"
    height="587.52pt"
    viewBox="0 0 882.72 587.52">
<defs/>
<rect id="shape015" transform="matrix(1.00000003270339 0 0 1.00000003270339 441.161587704876 440.91368193497)" fill="#b2b2b2" fill-rule="evenodd" stroke-opacity="0" stroke="#000000" stroke-width="0" stroke-linecap="square" stroke-linejoin="bevel" width="174.424373670589" height="21.6"/><rect id="shape0" transform="matrix(1.00000004534242 0 0 1.00000004534242 361.377535611018 106.596343780531)" fill="#ffc37b" fill-rule="evenodd" stroke-opacity="0" stroke="#000000" stroke-width="0" stroke-linecap="square" stroke-linejoin="bevel" width="80.7024379665501" height="460.339169044382"/><text id="shape01" krita:useRichText="true" krita:textVersion="2" transform="matrix(1.00000007995222 0 0 1.00000007995222 346.986863617096 35.3600017674292)" fill="#000000" stroke-opacity="0" stroke="#000000" stroke-width="0" stroke-linecap="square" stroke-linejoin="bevel" font-size="22" font-size-adjust="0.4" font-stretch="normal" kerning="0" letter-spacing="0" word-spacing="0"><tspan x="0">Projects processing</tspan></text><text id="shape02" krita:useRichText="true" krita:textVersion="2" transform="matrix(1.00000007533001 0 0 1.00000007533001 386.070933335074 75.6671859093625)" fill="#000000" stroke-opacity="0" stroke="#000000" stroke-width="0" stroke-linecap="square" stroke-linejoin="bevel" font-size="16" font-size-adjust="0.4" font-stretch="normal" kerning="0" letter-spacing="0" word-spacing="0"><tspan x="0">Time of process</tspan></text><rect id="shape011" transform="matrix(1.00000006449972 0 0 1.00000006449972 33.1199789229638 106.919992709759)" fill="#5fa1be" fill-rule="evenodd" stroke-opacity="0" stroke="#000000" stroke-width="0" stroke-linecap="square" stroke-linejoin="bevel" width="328.319976533361" height="459.959976622531"/><text id="shape03" krita:useRichText="true" krita:textVersion="2" transform="matrix(1.00000004380358 0 0 1.00000004380358 42.1178653877562 128.569622123095)" fill="#000000" stroke-opacity="0" stroke="#000000" stroke-width="0" stroke-linecap="square" stroke-linejoin="bevel" font-size="16" font-size-adjust="0.4" font-stretch="normal" kerning="0" letter-spacing="0" word-spacing="0"><tspan x="0">OSH Availability</tspan></text><rect id="shape04" transform="matrix(1.00000001740469 0 0 1.00000001740469 119.087981654002 238.560003988824)" fill="#666666" fill-rule="evenodd" stroke-opacity="0" stroke="#000000" stroke-width="0" stroke-linecap="square" stroke-linejoin="bevel" width="218.88" height="21.6"/><rect id="shape05" transform="matrix(0.999999984695764 0 0 0.999999984695764 211.57198186337 305.520004565142)" fill="#666666" fill-rule="evenodd" stroke-opacity="0" stroke="#000000" stroke-width="0" stroke-linecap="square" stroke-linejoin="bevel" width="203.148044627907" height="21.6"/><rect id="shape06" transform="matrix(0.999999978319939 0 0 0.999999978319939 304.055979190844 373.200004899644)" fill="#666666" fill-rule="evenodd" stroke-opacity="0" stroke="#000000" stroke-width="0" stroke-linecap="square" stroke-linejoin="bevel" width="127.944043717126" height="21.6"/><rect id="shape07" transform="matrix(0.999999994780504 0 0 0.999999994780504 415.440023424835 440.880004987513)" fill="#666666" fill-rule="evenodd" stroke-opacity="0" stroke="#000000" stroke-width="0" stroke-linecap="square" stroke-linejoin="bevel" width="16.6092989711086" height="21.6"/><rect id="shape08" transform="matrix(0.999999991950085 0 0 0.999999991950085 489.023970958567 508.560005283725)" fill="#b2b2b2" fill-rule="evenodd" stroke-opacity="0" stroke="#000000" stroke-width="0" stroke-linecap="square" stroke-linejoin="bevel" width="218.88" height="21.6"/><text id="shape09" krita:useRichText="true" krita:textVersion="2" transform="matrix(1.00000001088601 0 0 1.00000001088601 448.048071819761 129.286085379443)" fill="#000000" stroke-opacity="0" stroke="#000000" stroke-width="0" stroke-linecap="square" stroke-linejoin="bevel" font-size="16" font-size-adjust="0.4" font-stretch="normal" kerning="0" letter-spacing="0" word-spacing="0"><tspan x="0">No data</tspan></text><text id="shape010" krita:useRichText="true" krita:textVersion="2" transform="matrix(1.00000001389801 0 0 1.00000001389801 363.176805520936 130.467994638432)" fill="#000000" stroke-opacity="0" stroke="#000000" stroke-width="0" stroke-linecap="square" stroke-linejoin="bevel" font-size="16" font-size-adjust="0.4" font-stretch="normal" kerning="0" letter-spacing="0" word-spacing="0"><tspan x="0">Diffs</tspan></text><text id="shape1" krita:useRichText="true" krita:textVersion="2" transform="matrix(1.00000006449972 0 0 1.00000006449972 223.199982154968 256.999999174461)" fill="#ffffff" stroke-opacity="0" stroke="#000000" stroke-width="0" stroke-linecap="square" stroke-linejoin="bevel" font-size="22" font-size-adjust="0.4" letter-spacing="0"><tspan x="0">2</tspan></text><text id="shape011" krita:useRichText="true" krita:textVersion="2" transform="matrix(1.00000002492923 0 0 1.00000002492923 308.70965617911 323.960000103021)" fill="#ffffff" stroke-opacity="0" stroke="#000000" stroke-width="0" stroke-linecap="square" stroke-linejoin="bevel" font-size="22" font-size-adjust="0.385937" font-stretch="normal" kerning="0" letter-spacing="0" word-spacing="0"><tspan x="0">3</tspan></text><text id="shape012" krita:useRichText="true" krita:textVersion="2" transform="matrix(1.00000003934897 0 0 1.00000003934897 396.34307110693 391.894570750674)" fill="#ffffff" stroke-opacity="0" stroke="#000000" stroke-width="0" stroke-linecap="square" stroke-linejoin="bevel" font-size="22" font-size-adjust="0.385937" font-stretch="normal" kerning="0" letter-spacing="0" word-spacing="0"><tspan x="0">4</tspan></text><text id="shape013" krita:useRichText="true" krita:textVersion="2" transform="matrix(1.00000003934897 0 0 1.00000003934897 512.930614837296 460.400010541017)" fill="#ffffff" stroke-opacity="0" stroke="#000000" stroke-width="0" stroke-linecap="square" stroke-linejoin="bevel" font-size="22" font-size-adjust="0.385937" font-stretch="normal" kerning="0" letter-spacing="0" word-spacing="0"><tspan x="0">5</tspan></text><text id="shape014" krita:useRichText="true" krita:textVersion="2" transform="matrix(1.00000004448812 0 0 1.00000004448812 594.965366350542 526.89404476262)" fill="#ffffff" stroke-opacity="0" stroke="#000000" stroke-width="0" stroke-linecap="square" stroke-linejoin="bevel" font-size="22" font-size-adjust="0.385937" font-stretch="normal" kerning="0" letter-spacing="0" word-spacing="0"><tspan x="0">6</tspan></text><rect id="shape2" transform="matrix(1.00000006449972 0 0 1.00000006449972 337.680022609546 238.560011517069)" fill="#ff8080" fill-rule="evenodd" stroke-opacity="0" stroke="#000000" stroke-width="0" stroke-linecap="square" stroke-linejoin="bevel" width="103.68" height="21.6"/><rect id="shape0151" transform="matrix(1.00000004620381 0 0 1.00000004620381 414.676606848824 305.497417904937)" fill="#fe8b00" fill-rule="evenodd" stroke-opacity="0" stroke="#000000" stroke-width="0" stroke-linecap="square" stroke-linejoin="bevel" width="26.6834212151779" height="21.6"/><text id="shape0101" krita:useRichText="true" krita:textVersion="2" transform="matrix(0.99999998121082 0 0 0.99999998121082 366.293383418098 97.5351774035592)" fill="#000000" stroke-opacity="0" stroke="#000000" stroke-width="0" stroke-linecap="square" stroke-linejoin="bevel" font-size="12" font-size-adjust="0.4" font-stretch="normal" kerning="0" letter-spacing="0" word-spacing="0"><tspan x="0">Up to 30 days</tspan></text><g id="group0" transform="translate(338.220020444942, 252.445785199402)" fill="none">
  <path id="shape0" transform="translate(0, 4.61422642309148)" fill="none" stroke="#262626" stroke-width="1.44" stroke-linecap="square" stroke-linejoin="miter" stroke-miterlimit="2" d="M0 0L98.6659 0" sodipodi:nodetypes="cc"/>
  <path id="shape1" transform="translate(93.4474476274522, 0)" fill="none" stroke="#262626" stroke-width="1.44" stroke-linecap="square" stroke-linejoin="miter" stroke-miterlimit="2" d="M6.04576 4.64569L0 0" sodipodi:nodetypes="cc"/>
  <path id="shape01" transform="matrix(0.999999970204953 0 0 -0.999999970204953 93.3782113497155 9.5148858710281)" fill="none" stroke="#262626" stroke-width="1.44" stroke-linecap="square" stroke-linejoin="miter" stroke-miterlimit="2" d="M6.04576 4.64569L0 0" sodipodi:nodetypes="cc"/>
 </g><text id="shape0102" krita:useRichText="true" krita:textVersion="2" transform="matrix(0.999999965720612 0 0 0.999999965720612 339.457533970582 251.272953284118)" fill="#000000" stroke-opacity="0" stroke="#000000" stroke-width="0" stroke-linecap="square" stroke-linejoin="bevel" font-size="12" font-size-adjust="0.4" font-stretch="normal" kerning="0" letter-spacing="0" word-spacing="0"><tspan x="0">Too old to update</tspan></text><g id="group1" transform="translate(415.102508998855, 319.311602616994)" fill="none">
  <path id="shape02" transform="matrix(0.999999972865943 0 0 0.999999972865943 -5.6843418860808e-14 4.61422629788871)" fill="none" stroke="#262626" stroke-width="1.44" stroke-linecap="square" stroke-linejoin="miter" stroke-miterlimit="2" d="M0 0L22.1184 0" sodipodi:nodetypes="cc"/>
  <path id="shape11" transform="matrix(0.999999972865943 0 0 0.999999972865943 16.8999064410207 0)" fill="none" stroke="#262626" stroke-width="1.44" stroke-linecap="square" stroke-linejoin="miter" stroke-miterlimit="2" d="M6.04576 4.64569L0 0" sodipodi:nodetypes="cc"/>
  <path id="shape03" transform="matrix(0.999999943070896 0 0 -0.999999943070896 16.8306701651626 9.51488561285049)" fill="none" stroke="#262626" stroke-width="1.44" stroke-linecap="square" stroke-linejoin="miter" stroke-miterlimit="2" d="M6.04576 4.64569L0 0" sodipodi:nodetypes="cc"/>
 </g><g id="group2" transform="translate(119.97000192649, 222.99000261731)" fill="none">
  <path id="shape2" transform="translate(0, 0.0900000014452758)" fill="none" stroke="#666666" stroke-width="1.44" stroke-linecap="square" stroke-linejoin="miter" stroke-miterlimit="2" d="M0 16.2L0 0" sodipodi:nodetypes="cc"/>
  <path id="shape3" fill="#297f00" fill-rule="evenodd" d="M0.09 0L9.54 3.69L0 8.01Z" sodipodi:nodetypes="cccc"/>
 </g><g id="group3" transform="translate(212.398756483017, 289.232625915361)" fill="none">
  <path id="shape04" transform="matrix(1.00000001070511 0 0 1.00000001070511 0 0.0900000024084591)" fill="none" stroke="#666666" stroke-width="1.44" stroke-linecap="square" stroke-linejoin="miter" stroke-miterlimit="2" d="M0 16.2L0 0" sodipodi:nodetypes="cc"/>
  <path id="shape12" transform="matrix(1.00000001070511 0 0 1.00000001070511 0 0)" fill="#297f00" fill-rule="evenodd" stroke-opacity="0" stroke="#000000" stroke-width="0" stroke-linecap="square" stroke-linejoin="bevel" d="M0.09 0L9.54 3.69L0 8.01Z" sodipodi:nodetypes="cccc"/>
 </g><g id="group0" transform="matrix(1.00000002090066 0 0 1.00000002090066 304.896939736353 356.939568499104)" fill="none">
  <path id="shape05" transform="matrix(1.00000001070511 0 0 1.00000001070511 0 0.0900000024084591)" fill="none" stroke="#666666" stroke-width="1.44" stroke-linecap="square" stroke-linejoin="miter" stroke-miterlimit="2" d="M0 16.2L0 0" sodipodi:nodetypes="cc"/>
  <path id="shape13" transform="matrix(1.00000001070511 0 0 1.00000001070511 0 0)" fill="#297f00" fill-rule="evenodd" stroke-opacity="0" stroke="#000000" stroke-width="0" stroke-linecap="square" stroke-linejoin="bevel" d="M0.09 0L9.54 3.69L0 8.01Z" sodipodi:nodetypes="cccc"/>
 </g><g id="group01" transform="matrix(1.00000002090066 0 0 1.00000002090066 416.124573597771 424.551238153446)" fill="none">
  <path id="shape06" transform="matrix(1.00000001070511 0 0 1.00000001070511 0 0.0900000024084591)" fill="none" stroke="#666666" stroke-width="1.44" stroke-linecap="square" stroke-linejoin="miter" stroke-miterlimit="2" d="M0 16.2L0 0" sodipodi:nodetypes="cc"/>
  <path id="shape14" transform="matrix(1.00000001070511 0 0 1.00000001070511 0 0)" fill="#297f00" fill-rule="evenodd" stroke-opacity="0" stroke="#000000" stroke-width="0" stroke-linecap="square" stroke-linejoin="bevel" d="M0.09 0L9.54 3.69L0 8.01Z" sodipodi:nodetypes="cccc"/>
 </g><g id="group02" transform="matrix(1.00000002090066 0 0 1.00000002090066 489.865464087386 492.23737767318)" fill="none">
  <path id="shape07" transform="matrix(1.00000001070511 0 0 1.00000001070511 0 0.0900000024084591)" fill="none" stroke="#666666" stroke-width="1.44" stroke-linecap="square" stroke-linejoin="miter" stroke-miterlimit="2" d="M0 16.2L0 0" sodipodi:nodetypes="cc"/>
  <path id="shape15" transform="matrix(1.00000001070511 0 0 1.00000001070511 0 0)" fill="#297f00" fill-rule="evenodd" stroke-opacity="0" stroke="#000000" stroke-width="0" stroke-linecap="square" stroke-linejoin="bevel" d="M0.09 0L9.54 3.69L0 8.01Z" sodipodi:nodetypes="cccc"/>
 </g><g id="group4" transform="translate(522.009998525584, 356.737730448642)" fill="none">
  <path id="shape08" transform="matrix(1.00000001153148 0 0 1.00000001153148 1.13686837721616e-13 0.0900000024827818)" fill="none" stroke="#666666" stroke-width="1.44" stroke-linecap="square" stroke-linejoin="miter" stroke-miterlimit="2" d="M0 16.2L0 0" sodipodi:nodetypes="cc"/>
  <path id="shape16" transform="matrix(1.00000001153148 0 0 1.00000001153148 1.13686837721616e-13 0)" fill="#d00000" fill-rule="evenodd" stroke-opacity="0" stroke="#000000" stroke-width="0" stroke-linecap="square" stroke-linejoin="bevel" d="M0.09 0L9.54 3.69L0 8.01Z" sodipodi:nodetypes="cccc"/>
 </g><g id="group03" transform="matrix(0.99999995444504 0 0 0.99999995444504 614.751536880133 424.588425288561)" fill="none">
  <path id="shape09" transform="matrix(1.00000001153148 0 0 1.00000001153148 0 0.090000002482725)" fill="none" stroke="#666666" stroke-width="1.44" stroke-linecap="square" stroke-linejoin="miter" stroke-miterlimit="2" d="M0 16.2L0 0" sodipodi:nodetypes="cc"/>
  <path id="shape17" transform="matrix(1.00000001153148 0 0 1.00000001153148 0 -5.6843418860808e-14)" fill="#d00000" fill-rule="evenodd" stroke-opacity="0" stroke="#000000" stroke-width="0" stroke-linecap="square" stroke-linejoin="bevel" d="M0.09 0L9.54 3.69L0 8.01Z" sodipodi:nodetypes="cccc"/>
 </g><g id="group04" transform="matrix(0.99999995444504 0 0 0.99999995444504 707.024262457756 492.284484065072)" fill="none">
  <path id="shape010" transform="matrix(1.00000001153148 0 0 1.00000001153148 0 0.090000002482725)" fill="none" stroke="#666666" stroke-width="1.44" stroke-linecap="square" stroke-linejoin="miter" stroke-miterlimit="2" d="M0 16.2L0 0" sodipodi:nodetypes="cc"/>
  <path id="shape18" transform="matrix(1.00000001153148 0 0 1.00000001153148 0 -5.6843418860808e-14)" fill="#d00000" fill-rule="evenodd" stroke-opacity="0" stroke="#000000" stroke-width="0" stroke-linecap="square" stroke-linejoin="bevel" d="M0.09 0L9.54 3.69L0 8.01Z" sodipodi:nodetypes="cccc"/>
 </g><rect id="shape0152" transform="matrix(1.00000007939313 0 0 1.00000007939313 441.024462996332 373.141247683272)" fill="#b2b2b2" fill-rule="evenodd" stroke-opacity="0" stroke="#000000" stroke-width="0" stroke-linecap="square" stroke-linejoin="bevel" width="81.8755591464259" height="21.6"/><rect id="shape0153" transform="matrix(1.00000007939313 0 0 1.00000007939313 432.027583888905 373.269870267249)" fill="#fe8b00" fill-rule="evenodd" stroke-opacity="0" stroke="#000000" stroke-width="0" stroke-linecap="square" stroke-linejoin="bevel" width="9.33241537016512" height="21.6"/><rect id="shape0154" transform="matrix(1.00000009397435 0 0 1.00000009397435 431.788791553423 440.887370980758)" fill="#fe8b00" fill-rule="evenodd" stroke-opacity="0" stroke="#000000" stroke-width="0" stroke-linecap="square" stroke-linejoin="bevel" width="9.33241537016512" height="21.6"/><rect id="shape041" transform="matrix(1.00000000332832 0 0 1.00000000332832 49.3349477157213 163.334232527685)" fill="#666666" fill-rule="evenodd" stroke-opacity="0" stroke="#000000" stroke-width="0" stroke-linecap="square" stroke-linejoin="bevel" width="218.88" height="21.6"/><g id="group05" transform="matrix(1.00000000805585 0 0 1.00000000805585 50.1089823650665 147.112682351781)" fill="none">
  <path id="shape011" transform="translate(-1.4210854715202e-14, 0.0900000014452758)" fill="none" stroke="#666666" stroke-width="1.44" stroke-linecap="square" stroke-linejoin="miter" stroke-miterlimit="2" d="M0 16.2L0 0" sodipodi:nodetypes="cc"/>
  <path id="shape19" fill="#297f00" fill-rule="evenodd" stroke-opacity="0" stroke="#000000" stroke-width="0" stroke-linecap="square" stroke-linejoin="bevel" d="M0.09 0L9.54 3.69L0 8.01Z" sodipodi:nodetypes="cccc"/>
 </g><g id="group06" transform="matrix(0.999999961710661 0 0 0.999999961710661 267.49691840973 147.057681695691)" fill="none">
  <path id="shape012" transform="matrix(1.00000001153148 0 0 1.00000001153148 1.13686837721616e-13 0.0900000024828387)" fill="none" stroke="#666666" stroke-width="1.44" stroke-linecap="square" stroke-linejoin="miter" stroke-miterlimit="2" d="M0 16.2L0 0" sodipodi:nodetypes="cc"/>
  <path id="shape110" transform="matrix(1.00000001153148 0 0 1.00000001153148 1.13686837721616e-13 0)" fill="#d00000" fill-rule="evenodd" stroke-opacity="0" stroke="#000000" stroke-width="0" stroke-linecap="square" stroke-linejoin="bevel" d="M0.09 0L9.54 3.69L0 8.01Z" sodipodi:nodetypes="cccc"/>
 </g><text id="shape111" krita:useRichText="true" krita:textVersion="2" transform="matrix(1.00000006449972 0 0 1.00000006449972 156.60801300702 179.923067593706)" fill="#ffffff" stroke-opacity="0" stroke="#000000" stroke-width="0" stroke-linecap="square" stroke-linejoin="bevel" font-size="22" font-size-adjust="0.4" letter-spacing="0"><tspan x="0">1</tspan></text><g id="group5" transform="translate(301.383384391662, 100.62079714106)" fill="none">
  <path id="shape112" transform="matrix(0.999999975605039 0 0 0.999999975605039 0.0636396112558373 -1.4210854715202e-14)" fill="none" stroke="#003052" stroke-width="2.16" stroke-linecap="square" stroke-linejoin="miter" stroke-miterlimit="2" d="M0 5.66393L6.68216 0" sodipodi:nodetypes="cc"/>
  <path id="shape013" transform="matrix(0.999999984105919 0 0 -0.999999984105919 0 12.0704170111617)" fill="none" stroke="#003052" stroke-width="2.16" stroke-linecap="square" stroke-linejoin="miter" stroke-miterlimit="2" d="M0 5.66393L6.68216 0" sodipodi:nodetypes="cc"/>
  <path id="shape4" transform="translate(0.836628824533136, 6.02920752278497)" fill="none" stroke="#003052" stroke-width="2.16" stroke-linecap="square" stroke-linejoin="miter" stroke-miterlimit="2" d="M0 0L40.23 0" sodipodi:nodetypes="cc"/>
 </g><g id="group6" transform="translate(361.498009175684, 100.769825428128)" fill="none">
  <path id="shape5" transform="translate(0.0636396128083447, 0)" fill="none" stroke="#262626" stroke-width="2.16" stroke-linecap="square" stroke-linejoin="miter" stroke-miterlimit="2" d="M0 5.66393L6.68216 0" sodipodi:nodetypes="cc"/>
  <path id="shape014" transform="matrix(1.00000000850088 0 0 -1.00000000850088 0 12.0704173056191)" fill="none" stroke="#262626" stroke-width="2.16" stroke-linecap="square" stroke-linejoin="miter" stroke-miterlimit="2" d="M0 5.66393L6.68216 0" sodipodi:nodetypes="cc"/>
  <path id="shape6" transform="translate(1.0219885278338, 5.79017389683806)" fill="none" stroke="#262626" stroke-width="2.16" stroke-linecap="square" stroke-linejoin="miter" stroke-miterlimit="2" d="M0 0L78.84 0" sodipodi:nodetypes="cc"/>
 </g><path id="shape016" transform="matrix(1.0000000598775 0 0 1.0000000598775 441.143737788384 87.0589833869389)" fill="none" stroke="#ff0000" stroke-width="4.32" stroke-linecap="square" stroke-linejoin="miter" stroke-miterlimit="2" d="M0 0L0 515.101" sodipodi:nodetypes="cc"/><text id="shape0103" krita:useRichText="true" krita:textVersion="2" transform="matrix(1.0000000105335 0 0 1.0000000105335 316.8437075816 96.7551802029801)" fill="#000000" stroke-opacity="0" stroke="#000000" stroke-width="0" stroke-linecap="square" stroke-linejoin="bevel" font-size="12" font-size-adjust="0.4" font-stretch="normal" kerning="0" letter-spacing="0" word-spacing="0"><tspan x="0">Init</tspan></text>
</svg>
