<?xml version="1.0" standalone="no"?>
<!DOCTYPE svg PUBLIC "-//W3C//DTD SVG 20010904//EN" "http://www.w3.org/TR/2001/REC-SVG-20010904/DTD/svg10.dtd">
<!-- Created using Krita: https://krita.org -->
<svg xmlns="http://www.w3.org/2000/svg" 
    xmlns:xlink="http://www.w3.org/1999/xlink"
    xmlns:krita="http://krita.org/namespaces/svg/krita"
    xmlns:sodipodi="http://sodipodi.sourceforge.net/DTD/sodipodi-0.dtd"
    width="1512pt"
    height="555.84pt"
    viewBox="0 0 1512 555.84">
<defs/>
<rect id="shape019" transform="matrix(0.999999918571169 0 0 0.999999918571169 925.939373791558 225.157564296617)" fill="#64b83b" fill-rule="evenodd" stroke-opacity="0" stroke="#000000" stroke-width="0" stroke-linecap="square" stroke-linejoin="bevel" width="391.300752279982" height="10.08"/><path id="shape0" transform="matrix(0.999999951684896 0 0 0.999999951684896 70.5600331002823 501.119975596075)" fill="none" stroke="#262626" stroke-width="4.32" stroke-linecap="square" stroke-linejoin="miter" stroke-miterlimit="2" d="M0 0L1359.72 0" sodipodi:nodetypes="cc"/><rect id="shape1" transform="matrix(0.999999951684896 0 0 0.999999951684896 50.6571655415854 109.439994712395)" fill="#808080" fill-rule="evenodd" stroke-opacity="0" stroke="#000000" stroke-width="0" stroke-linecap="square" stroke-linejoin="bevel" width="219.342886513996" height="10.08"/><rect id="shape01" transform="matrix(0.999999955261736 0 0 0.999999955261736 3.65262187369808e-05 124.739446921936)" fill="#808080" fill-rule="evenodd" stroke-opacity="0" stroke="#000000" stroke-width="0" stroke-linecap="square" stroke-linejoin="bevel" width="339.167503855488" height="10.08"/><rect id="shape01" transform="matrix(0.999999922368711 0 0 0.999999922368711 19.3464777582182 140.038899315286)" fill="#808080" fill-rule="evenodd" stroke-opacity="0" stroke="#000000" stroke-width="0" stroke-linecap="square" stroke-linejoin="bevel" width="434.785845001303" height="10.08"/><rect id="shape02" transform="matrix(0.999999898274832 0 0 0.999999898274832 64.6578795910587 155.338351664287)" fill="#808080" fill-rule="evenodd" stroke-opacity="0" stroke="#000000" stroke-width="0" stroke-linecap="square" stroke-linejoin="bevel" width="274.509659508968" height="10.08"/><rect id="shape03" transform="matrix(0.999999951684896 0 0 0.999999951684896 270.024789862801 109.45800074786)" fill="#ffb100" fill-rule="evenodd" stroke-opacity="0" stroke="#000000" stroke-width="0" stroke-linecap="square" stroke-linejoin="bevel" width="599.546863367022" height="10.08"/><rect id="shape011" transform="matrix(0.999999901265712 0 0 0.999999901265712 869.509210422063 109.436482189773)" fill="#64b83b" fill-rule="evenodd" stroke-opacity="0" stroke="#000000" stroke-width="0" stroke-linecap="square" stroke-linejoin="bevel" width="510.910840418837" height="10.08"/><rect id="shape011" transform="matrix(0.999999901265712 0 0 0.999999901265712 339.097000646696 124.768767775599)" fill="#64b83b" fill-rule="evenodd" stroke-opacity="0" stroke="#000000" stroke-width="0" stroke-linecap="square" stroke-linejoin="bevel" width="346.69494179762" height="10.08"/><rect id="shape04" transform="matrix(0.999999947635833 0 0 0.999999947635833 685.665004684094 124.662521848483)" fill="#808080" fill-rule="evenodd" stroke-opacity="0" stroke="#000000" stroke-width="0" stroke-linecap="square" stroke-linejoin="bevel" width="361.204780823037" height="10.08"/><rect id="shape012" transform="matrix(0.999999906258034 0 0 0.999999906258034 1046.85446669675 124.578535184014)" fill="#64b83b" fill-rule="evenodd" stroke-opacity="0" stroke="#000000" stroke-width="0" stroke-linecap="square" stroke-linejoin="bevel" width="333.56556496883" height="10.08"/><rect id="shape013" transform="matrix(0.999999886313363 0 0 0.999999886313363 454.119553208396 140.034296078203)" fill="#ffb100" fill-rule="evenodd" stroke-opacity="0" stroke="#000000" stroke-width="0" stroke-linecap="square" stroke-linejoin="bevel" width="651.912522903131" height="10.08"/><rect id="shape014" transform="matrix(0.999999871219378 0 0 0.999999871219378 1105.99460591691 140.121944422034)" fill="#64b83b" fill-rule="evenodd" stroke-opacity="0" stroke="#000000" stroke-width="0" stroke-linecap="square" stroke-linejoin="bevel" width="274.425429820243" height="10.08"/><rect id="shape015" transform="matrix(0.99999985897183 0 0 0.99999985897183 339.187253253194 155.327475461138)" fill="#ffb100" fill-rule="evenodd" stroke-opacity="0" stroke="#000000" stroke-width="0" stroke-linecap="square" stroke-linejoin="bevel" width="651.912522903131" height="10.08"/><rect id="shape05" transform="matrix(0.999999926139714 0 0 0.999999926139714 1007.29328483763 155.115735723877)" fill="#808080" fill-rule="evenodd" stroke-opacity="0" stroke="#000000" stroke-width="0" stroke-linecap="square" stroke-linejoin="bevel" width="373.126743118104" height="10.08"/><rect id="shape016" transform="matrix(0.999999871219378 0 0 0.999999871219378 990.684014622625 155.247323703973)" fill="#64b83b" fill-rule="evenodd" stroke-opacity="0" stroke="#000000" stroke-width="0" stroke-linecap="square" stroke-linejoin="bevel" width="16.8595765541753" height="10.08"/><rect id="shape017" transform="matrix(0.999999901265712 0 0 0.999999901265712 300.26202615954 170.668756857608)" fill="#64b83b" fill-rule="evenodd" stroke-opacity="0" stroke="#000000" stroke-width="0" stroke-linecap="square" stroke-linejoin="bevel" width="1080.15808088558" height="10.08"/><rect id="shape06" transform="matrix(0.999999951684896 0 0 0.999999951684896 3.65262187369808e-05 194.501360032914)" fill="#808080" fill-rule="evenodd" stroke-opacity="0" stroke="#000000" stroke-width="0" stroke-linecap="square" stroke-linejoin="bevel" width="540.427580341351" height="10.08"/><rect id="shape07" transform="matrix(0.999999955261736 0 0 0.999999955261736 3.652621872277e-05 209.800812242455)" fill="#808080" fill-rule="evenodd" stroke-opacity="0" stroke="#000000" stroke-width="0" stroke-linecap="square" stroke-linejoin="bevel" width="227.066132802746" height="10.08"/><rect id="shape018" transform="matrix(0.999999922368711 0 0 0.999999922368711 35.1290985534662 225.100264635805)" fill="#64b83b" fill-rule="evenodd" stroke-opacity="0" stroke="#000000" stroke-width="0" stroke-linecap="square" stroke-linejoin="bevel" width="404.493383955412" height="10.08"/><rect id="shape031" transform="matrix(0.999999916875391 0 0 0.999999916875391 3.65262187103355e-05 255.699169118627)" fill="#808080" fill-rule="evenodd" stroke-opacity="0" stroke="#000000" stroke-width="0" stroke-linecap="square" stroke-linejoin="bevel" width="515.735420887955" height="10.08"/><rect id="shape0191" transform="matrix(0.999999901265712 0 0 0.999999901265712 540.024651803566 194.482315359511)" fill="#64b83b" fill-rule="evenodd" stroke-opacity="0" stroke="#000000" stroke-width="0" stroke-linecap="square" stroke-linejoin="bevel" width="346.69494179762" height="10.08"/><rect id="shape0110" transform="matrix(0.999999886313363 0 0 0.999999886313363 439.372956303086 225.169357664817)" fill="#ffb100" fill-rule="evenodd" stroke-opacity="0" stroke="#000000" stroke-width="0" stroke-linecap="square" stroke-linejoin="bevel" width="486.907128859728" height="10.08"/><rect id="shape0111" transform="matrix(0.999999901265712 0 0 0.999999901265712 226.804798788857 209.685918585882)" fill="#64b83b" fill-rule="evenodd" stroke-opacity="0" stroke="#000000" stroke-width="0" stroke-linecap="square" stroke-linejoin="bevel" width="559.07529311348" height="10.08"/><rect id="shape031" transform="matrix(0.999999945278421 0 0 0.999999945278421 785.558279997004 209.732646882613)" fill="#808080" fill-rule="evenodd" stroke-opacity="0" stroke="#000000" stroke-width="0" stroke-linecap="square" stroke-linejoin="bevel" width="422.80791346532" height="10.08"/><rect id="shape0112" transform="matrix(0.999999886313363 0 0 0.999999886313363 515.53701199448 255.736198523093)" fill="#ffb100" fill-rule="evenodd" stroke-opacity="0" stroke="#000000" stroke-width="0" stroke-linecap="square" stroke-linejoin="bevel" width="651.912522903131" height="10.08"/><rect id="shape0113" transform="matrix(0.999999900301706 0 0 0.999999900301706 1167.12222922354 255.6322813335)" fill="#64b83b" fill-rule="evenodd" stroke-opacity="0" stroke="#000000" stroke-width="0" stroke-linecap="square" stroke-linejoin="bevel" width="213.207865065392" height="10.08"/><rect id="shape0114" transform="matrix(0.999999899863362 0 0 0.999999899863362 302.329585231682 240.569500451082)" fill="#64b83b" fill-rule="evenodd" stroke-opacity="0" stroke="#000000" stroke-width="0" stroke-linecap="square" stroke-linejoin="bevel" width="1078.00059574814" height="10.08"/><rect id="shape08" transform="matrix(0.999999951684896 0 0 0.999999951684896 3.65262185948723e-05 279.566989586665)" fill="#808080" fill-rule="evenodd" stroke-opacity="0" stroke="#000000" stroke-width="0" stroke-linecap="square" stroke-linejoin="bevel" width="1011.60002755252" height="10.08"/><rect id="shape09" transform="matrix(0.999999955261736 0 0 0.999999955261736 3.65262186943482e-05 294.866441796206)" fill="#808080" fill-rule="evenodd" stroke-opacity="0" stroke="#000000" stroke-width="0" stroke-linecap="square" stroke-linejoin="bevel" width="510.135111129001" height="10.08"/><rect id="shape0115" transform="matrix(0.999999922368711 0 0 0.999999922368711 18.8373597737927 310.165894189556)" fill="#ffb100" fill-rule="evenodd" stroke-opacity="0" stroke="#000000" stroke-width="0" stroke-linecap="square" stroke-linejoin="bevel" width="726.002705105346" height="10.08"/><rect id="shape021" transform="matrix(0.999999898274832 0 0 0.999999898274832 52.1845130904438 325.465346538557)" fill="#808080" fill-rule="evenodd" stroke-opacity="0" stroke="#000000" stroke-width="0" stroke-linecap="square" stroke-linejoin="bevel" width="615.255560925553" height="10.08"/><rect id="shape032" transform="matrix(0.999999916875391 0 0 0.999999916875391 3.65262187938242e-05 340.764798672378)" fill="#808080" fill-rule="evenodd" stroke-opacity="0" stroke="#000000" stroke-width="0" stroke-linecap="square" stroke-linejoin="bevel" width="899.640040953804" height="10.08"/><rect id="shape0116" transform="matrix(0.999999934820493 0 0 0.999999934820493 509.721758718264 295.035276304398)" fill="#64b83b" fill-rule="evenodd" stroke-opacity="0" stroke="#000000" stroke-width="0" stroke-linecap="square" stroke-linejoin="bevel" width="870.621451272007" height="10.08"/><rect id="shape0117" transform="matrix(0.99999985643353 0 0 0.99999985643353 1011.59619486237 279.575030928944)" fill="#64b83b" fill-rule="evenodd" stroke-opacity="0" stroke="#000000" stroke-width="0" stroke-linecap="square" stroke-linejoin="bevel" width="228.876260177581" height="10.08"/><rect id="shape0118" transform="matrix(0.999999880051088 0 0 0.999999880051088 744.525381469702 310.184779259184)" fill="#64b83b" fill-rule="evenodd" stroke-opacity="0" stroke="#000000" stroke-width="0" stroke-linecap="square" stroke-linejoin="bevel" width="635.817848039551" height="10.08"/><rect id="shape0119" transform="matrix(0.999999880051088 0 0 0.999999880051088 667.368424529528 325.423946527954)" fill="#64b83b" fill-rule="evenodd" stroke-opacity="0" stroke="#000000" stroke-width="0" stroke-linecap="square" stroke-linejoin="bevel" width="228.876260177581" height="10.08"/><rect id="shape0111" transform="matrix(0.999999852476883 0 0 0.999999852476883 899.356921550665 340.74882451114)" fill="#64b83b" fill-rule="evenodd" stroke-opacity="0" stroke="#000000" stroke-width="0" stroke-linecap="square" stroke-linejoin="bevel" width="228.876260177581" height="10.08"/><rect id="shape0120" transform="matrix(0.999999953752426 0 0 0.999999953752426 3.65262187085591e-05 379.935009034591)" fill="#64b83b" fill-rule="evenodd" stroke-opacity="0" stroke="#000000" stroke-width="0" stroke-linecap="square" stroke-linejoin="bevel" width="1380.32999104442" height="10.08"/><rect id="shape0121" transform="matrix(0.999999920859401 0 0 0.999999920859401 633.240019204408 395.234461404849)" fill="#808080" fill-rule="evenodd" stroke-opacity="0" stroke="#000000" stroke-width="0" stroke-linecap="square" stroke-linejoin="bevel" width="483.50787823238" height="10.08"/><rect id="shape021" transform="matrix(0.999999896765523 0 0 0.999999896765523 3.65262187085591e-05 410.533913730758)" fill="#808080" fill-rule="evenodd" stroke-opacity="0" stroke="#000000" stroke-width="0" stroke-linecap="square" stroke-linejoin="bevel" width="534.600027252274" height="10.08"/><rect id="shape033" transform="matrix(0.999999915366082 0 0 0.999999915366082 3.65262187369808e-05 425.833365841489)" fill="#808080" fill-rule="evenodd" stroke-opacity="0" stroke="#000000" stroke-width="0" stroke-linecap="square" stroke-linejoin="bevel" width="216.000014386664" height="10.08"/><rect id="shape0122" transform="matrix(0.999999934820493 0 0 0.999999934820493 215.985245384659 425.857529648321)" fill="#64b83b" fill-rule="evenodd" stroke-opacity="0" stroke="#000000" stroke-width="0" stroke-linecap="square" stroke-linejoin="bevel" width="474.483247318565" height="10.08"/><rect id="shape0123" transform="matrix(0.999999886313363 0 0 0.999999886313363 690.51598070491 425.846055710275)" fill="#ffb100" fill-rule="evenodd" stroke-opacity="0" stroke="#000000" stroke-width="0" stroke-linecap="square" stroke-linejoin="bevel" width="689.769086834835" height="10.08"/><rect id="shape0124" transform="matrix(0.999999835573202 0 0 0.999999835573202 448.354066997292 364.69145029866)" fill="#ffb100" fill-rule="evenodd" stroke-opacity="0" stroke="#000000" stroke-width="0" stroke-linecap="square" stroke-linejoin="bevel" width="651.912522903131" height="10.08"/><rect id="shape01111" transform="matrix(0.999999849561545 0 0 0.999999849561545 1099.93925116481 364.58753311434)" fill="#64b83b" fill-rule="evenodd" stroke-opacity="0" stroke="#000000" stroke-width="0" stroke-linecap="square" stroke-linejoin="bevel" width="228.876260177581" height="10.08"/><rect id="shape01121" transform="matrix(0.999999852476883 0 0 0.999999852476883 534.349359112596 410.705815584148)" fill="#64b83b" fill-rule="evenodd" stroke-opacity="0" stroke="#000000" stroke-width="0" stroke-linecap="square" stroke-linejoin="bevel" width="845.980729422846" height="10.08"/><rect id="shape01131" transform="matrix(0.999999852476883 0 0 0.999999852476883 1116.78146046749 395.389789331173)" fill="#64b83b" fill-rule="evenodd" stroke-opacity="0" stroke="#000000" stroke-width="0" stroke-linecap="square" stroke-linejoin="bevel" width="263.548542145745" height="10.08"/><path id="shape2" transform="matrix(0.999999951684896 0 0 0.999999951684896 169.920027815799 87.067588573483)" fill="none" stroke="#262626" stroke-width="2.16" stroke-linecap="square" stroke-linejoin="miter" stroke-miterlimit="2" d="M0.72 0L0 413.28" sodipodi:nodetypes="cc"/><path id="shape010" transform="matrix(0.99999992888327 0 0 0.99999992888327 370.697098413597 87.0675967790924)" fill="none" stroke="#262626" stroke-width="2.16" stroke-linecap="square" stroke-linejoin="miter" stroke-miterlimit="2" d="M0.72 0L0 413.28" sodipodi:nodetypes="cc"/><path id="shape0112" transform="matrix(0.999999946464599 0 0 0.999999946464599 571.474168997918 87.067589513081)" fill="none" stroke="#262626" stroke-width="2.16" stroke-linecap="square" stroke-linejoin="miter" stroke-miterlimit="2" d="M0.72 0L0 413.28" sodipodi:nodetypes="cc"/><path id="shape0121" transform="matrix(0.999999911726579 0 0 0.999999911726579 772.251239601074 87.0676038696098)" fill="none" stroke="#262626" stroke-width="2.16" stroke-linecap="square" stroke-linejoin="miter" stroke-miterlimit="2" d="M0.72 0L0 413.28" sodipodi:nodetypes="cc"/><path id="shape0131" transform="matrix(0.999999895040621 0 0 0.999999895040621 973.02831019773 87.0676107655827)" fill="none" stroke="#262626" stroke-width="2.16" stroke-linecap="square" stroke-linejoin="miter" stroke-miterlimit="2" d="M0.72 0L0 413.28" sodipodi:nodetypes="cc"/><path id="shape0141" transform="matrix(0.999999859752928 0 0 0.999999859752928 1174.52538081558 87.1539777089732)" fill="none" stroke="#262626" stroke-width="2.16" stroke-linecap="square" stroke-linejoin="miter" stroke-miterlimit="2" d="M0.72 0L0 413.28" sodipodi:nodetypes="cc"/><path id="shape0151" transform="matrix(0.999999835009577 0 0 0.999999835009577 1215.81018379238 87.1539879349054)" fill="none" stroke="#262626" stroke-width="2.16" stroke-linecap="square" stroke-linejoin="miter" stroke-miterlimit="2" d="M0.72 0L0 413.28" sodipodi:nodetypes="cc"/><path id="shape0161" transform="matrix(0.999999845163076 0 0 0.999999845163076 1257.09498675661 87.1539837386676)" fill="none" stroke="#262626" stroke-width="2.16" stroke-linecap="square" stroke-linejoin="miter" stroke-miterlimit="2" d="M0.72 0L0 413.28" sodipodi:nodetypes="cc"/><path id="shape0171" transform="matrix(0.999999844566621 0 0 0.999999844566621 1298.37978972471 87.1539839851704)" fill="none" stroke="#262626" stroke-width="2.16" stroke-linecap="square" stroke-linejoin="miter" stroke-miterlimit="2" d="M0.72 0L0 413.28" sodipodi:nodetypes="cc"/><path id="shape0181" transform="matrix(0.999999821244144 0 0 0.999999821244144 1339.66459270099 87.1539936238835)" fill="none" stroke="#262626" stroke-width="2.16" stroke-linecap="square" stroke-linejoin="miter" stroke-miterlimit="2" d="M0.72 0L0 413.28" sodipodi:nodetypes="cc"/><path id="shape0192" transform="matrix(0.999999808088343 0 0 0.999999808088343 1380.94939567362 52.5344951496626)" fill="none" stroke="#d00000" stroke-width="4.32" stroke-linecap="square" stroke-linejoin="miter" stroke-miterlimit="2" d="M0.72 0L0 447.9" sodipodi:nodetypes="cc"/><text id="shape3" krita:useRichText="true" krita:textVersion="2" transform="matrix(0.999999951684896 0 0 0.999999951684896 22.0218015563971 529.471475659558)" fill="#262626" stroke-opacity="0" stroke="#000000" stroke-width="0" stroke-linecap="square" stroke-linejoin="bevel" font-size="22" font-size-adjust="0.4" letter-spacing="0"><tspan x="0">Count =</tspan></text><text id="shape020" krita:useRichText="true" krita:textVersion="2" transform="matrix(0.999999934654172 0 0 0.999999934654172 163.987507279331 527.161758280518)" fill="#262626" stroke-opacity="0" stroke="#000000" stroke-width="0" stroke-linecap="square" stroke-linejoin="bevel" font-size="22" font-size-adjust="0.4" letter-spacing="0"><tspan x="0">2</tspan></text><text id="shape0211" krita:useRichText="true" krita:textVersion="2" transform="matrix(0.999999915768006 0 0 0.999999915768006 365.313130646228 527.161757610059)" fill="#262626" stroke-opacity="0" stroke="#000000" stroke-width="0" stroke-linecap="square" stroke-linejoin="bevel" font-size="22" font-size-adjust="0.4" letter-spacing="0"><tspan x="0">7</tspan></text><text id="shape022" krita:useRichText="true" krita:textVersion="2" transform="matrix(0.999999896258378 0 0 0.999999896258378 565.198440483829 527.161756917468)" fill="#262626" stroke-opacity="0" stroke="#000000" stroke-width="0" stroke-linecap="square" stroke-linejoin="bevel" font-size="22" font-size-adjust="0.4" letter-spacing="0"><tspan x="0">9</tspan></text><text id="shape023" krita:useRichText="true" krita:textVersion="2" transform="matrix(0.999999893964099 0 0 0.999999893964099 765.679686006417 527.161756836021)" fill="#262626" stroke-opacity="0" stroke="#000000" stroke-width="0" stroke-linecap="square" stroke-linejoin="bevel" font-size="22" font-size-adjust="0.4" letter-spacing="0"><tspan x="0">9</tspan></text><text id="shape024" krita:useRichText="true" krita:textVersion="2" transform="matrix(0.999999888362345 0 0 0.999999888362345 967.600920940994 527.161756637159)" fill="#262626" stroke-opacity="0" stroke="#000000" stroke-width="0" stroke-linecap="square" stroke-linejoin="bevel" font-size="22" font-size-adjust="0.385937" font-stretch="normal" kerning="0" letter-spacing="0" word-spacing="0"><tspan x="0">9</tspan></text><text id="shape025" krita:useRichText="true" krita:textVersion="2" transform="matrix(0.999999874996319 0 0 0.999999874996319 1161.95589738787 527.161756162665)" fill="#262626" stroke-opacity="0" stroke="#000000" stroke-width="0" stroke-linecap="square" stroke-linejoin="bevel" font-size="22" font-size-adjust="0.4" letter-spacing="0"><tspan x="0">14</tspan></text><text id="shape026" krita:useRichText="true" krita:textVersion="2" transform="matrix(0.999999881271093 0 0 0.999999881271093 1203.23152895532 527.161756385419)" fill="#262626" stroke-opacity="0" stroke="#000000" stroke-width="0" stroke-linecap="square" stroke-linejoin="bevel" font-size="22" font-size-adjust="0.4" letter-spacing="0"><tspan x="0">14</tspan></text><text id="shape027" krita:useRichText="true" krita:textVersion="2" transform="matrix(0.999999881271093 0 0 0.999999881271093 1245.71152481908 527.161756385419)" fill="#262626" stroke-opacity="0" stroke="#000000" stroke-width="0" stroke-linecap="square" stroke-linejoin="bevel" font-size="22" font-size-adjust="0.4" letter-spacing="0"><tspan x="0">13</tspan></text><text id="shape028" krita:useRichText="true" krita:textVersion="2" transform="matrix(0.999999850493549 0 0 0.999999850493549 1285.74412969382 527.161755292817)" fill="#262626" stroke-opacity="0" stroke="#000000" stroke-width="0" stroke-linecap="square" stroke-linejoin="bevel" font-size="22" font-size-adjust="0.4" letter-spacing="0"><tspan x="0">13</tspan></text><text id="shape029" krita:useRichText="true" krita:textVersion="2" transform="matrix(0.9999998318874 0 0 0.9999998318874 1330.49472795087 527.161754632298)" fill="#262626" stroke-opacity="0" stroke="#000000" stroke-width="0" stroke-linecap="square" stroke-linejoin="bevel" font-size="22" font-size-adjust="0.4" letter-spacing="0"><tspan x="0">11</tspan></text><text id="shape030" krita:useRichText="true" krita:textVersion="2" transform="matrix(0.999999819948957 0 0 0.999999819948957 1373.37410953224 527.161754208483)" fill="#262626" stroke-opacity="0" stroke="#000000" stroke-width="0" stroke-linecap="square" stroke-linejoin="bevel" font-size="22" font-size-adjust="0.4" letter-spacing="0"><tspan x="0">11</tspan></text><text id="shape0311" krita:useRichText="true" krita:textVersion="2" transform="matrix(0.999999935089382 0 0 0.999999935089382 648.672390914042 38.0714893910865)" fill="#262626" stroke-opacity="0" stroke="#000000" stroke-width="0" stroke-linecap="square" stroke-linejoin="bevel" font-size="22" font-size-adjust="0.385937" font-stretch="normal" letter-spacing="0" word-spacing="0"><tspan x="0">Project features counts</tspan></text><text id="shape0321" krita:useRichText="true" krita:textVersion="2" transform="matrix(0.999999915144545 0 0 0.999999915144545 179.208446265749 91.6147582762165)" fill="#262626" stroke-opacity="0" stroke="#000000" stroke-width="0" stroke-linecap="square" stroke-linejoin="bevel" font-size="22" font-size-adjust="0.4" letter-spacing="0"><tspan x="0">M1</tspan></text><text id="shape0331" krita:useRichText="true" krita:textVersion="2" transform="matrix(0.999999901821317 0 0 0.999999901821317 380.457173926433 91.6147578032419)" fill="#262626" stroke-opacity="0" stroke="#000000" stroke-width="0" stroke-linecap="square" stroke-linejoin="bevel" font-size="22" font-size-adjust="0.4" letter-spacing="0"><tspan x="0">M2</tspan></text><text id="shape034" krita:useRichText="true" krita:textVersion="2" transform="matrix(0.999999900062619 0 0 0.999999900062619 584.297149646582 91.6147577408081)" fill="#262626" stroke-opacity="0" stroke="#000000" stroke-width="0" stroke-linecap="square" stroke-linejoin="bevel" font-size="22" font-size-adjust="0.4" letter-spacing="0"><tspan x="0">M3</tspan></text><text id="shape035" krita:useRichText="true" krita:textVersion="2" transform="matrix(0.999999901231142 0 0 0.999999901231142 783.582128347261 91.6147577822908)" fill="#262626" stroke-opacity="0" stroke="#000000" stroke-width="0" stroke-linecap="square" stroke-linejoin="bevel" font-size="22" font-size-adjust="0.4" letter-spacing="0"><tspan x="0">M4</tspan></text><text id="shape036" krita:useRichText="true" krita:textVersion="2" transform="matrix(0.999999927330447 0 0 0.999999927330447 986.233687984653 91.614758708816)" fill="#262626" stroke-opacity="0" stroke="#000000" stroke-width="0" stroke-linecap="square" stroke-linejoin="bevel" font-size="22" font-size-adjust="0.4" letter-spacing="0"><tspan x="0">M5</tspan></text><text id="shape037" krita:useRichText="true" krita:textVersion="2" transform="matrix(0.999999927330447 0 0 0.999999927330447 1177.57332057717 91.614758708816)" fill="#262626" stroke-opacity="0" stroke="#000000" stroke-width="0" stroke-linecap="square" stroke-linejoin="bevel" font-size="22" font-size-adjust="0.4" letter-spacing="0"><tspan x="0">M6</tspan></text><text id="shape038" krita:useRichText="true" krita:textVersion="2" transform="matrix(0.999999914439091 0 0 0.999999914439091 1220.27739619655 91.614758251173)" fill="#262626" stroke-opacity="0" stroke="#000000" stroke-width="0" stroke-linecap="square" stroke-linejoin="bevel" font-size="22" font-size-adjust="0.4" letter-spacing="0"><tspan x="0">D1</tspan></text><text id="shape039" krita:useRichText="true" krita:textVersion="2" transform="matrix(0.999999883183843 0 0 0.999999883183843 1263.02310484245 91.6147571416116)" fill="#262626" stroke-opacity="0" stroke="#000000" stroke-width="0" stroke-linecap="square" stroke-linejoin="bevel" font-size="22" font-size-adjust="0.4" letter-spacing="0"><tspan x="0">D2</tspan></text><text id="shape040" krita:useRichText="true" krita:textVersion="2" transform="matrix(0.999999849206432 0 0 0.999999849206432 1303.14539184148 91.6147559354135)" fill="#262626" stroke-opacity="0" stroke="#000000" stroke-width="0" stroke-linecap="square" stroke-linejoin="bevel" font-size="22" font-size-adjust="0.4" letter-spacing="0"><tspan x="0">D3</tspan></text><text id="shape041" krita:useRichText="true" krita:textVersion="2" transform="matrix(0.999999844517642 0 0 0.999999844517642 1343.90181115173 91.6147557689614)" fill="#262626" stroke-opacity="0" stroke="#000000" stroke-width="0" stroke-linecap="square" stroke-linejoin="bevel" font-size="22" font-size-adjust="0.4" letter-spacing="0"><tspan x="0">D4</tspan></text><path id="shape042" transform="matrix(0.999999967270305 0 0 0.999999967270305 91.6048927607183 55.2149978097365)" fill="none" stroke="#262626" stroke-width="4.32" stroke-linecap="square" stroke-linejoin="miter" stroke-miterlimit="2" d="M0.72 0L0 445.577" sodipodi:nodetypes="cc"/><text id="shape043" krita:useRichText="true" krita:textVersion="2" transform="matrix(0.999999830948153 0 0 0.999999830948153 1388.2453574305 90.8947556547806)" fill="#262626" stroke-opacity="0" stroke="#000000" stroke-width="0" stroke-linecap="square" stroke-linejoin="bevel" font-size="22" font-size-adjust="0.4" letter-spacing="0"><tspan x="0">No data</tspan></text><text id="shape044" krita:useRichText="true" krita:textVersion="2" transform="matrix(0.999999933666706 0 0 0.999999933666706 96.8818889920285 75.6318512827314)" fill="#262626" stroke-opacity="0" stroke="#000000" stroke-width="0" stroke-linecap="square" stroke-linejoin="bevel" font-size="22" font-size-adjust="0.4" letter-spacing="0"><tspan x="0">Project</tspan><tspan x="0" dy="27">start</tspan></text><rect id="shape11" transform="matrix(0.999999951684896 0 0 0.999999951684896 21.5949875045489 14.5689926558118)" fill="#808080" fill-rule="evenodd" stroke-opacity="0" stroke="#000000" stroke-width="0" stroke-linecap="square" stroke-linejoin="bevel" width="41.5285517873347" height="10.08"/><rect id="shape12" transform="matrix(0.99999992301839 0 0 0.99999992301839 182.920231286349 14.568992800291)" fill="#ffb100" fill-rule="evenodd" stroke-opacity="0" stroke="#000000" stroke-width="0" stroke-linecap="square" stroke-linejoin="bevel" width="41.5285517873347" height="10.08"/><rect id="shape13" transform="matrix(0.999999906858766 0 0 0.999999906858766 369.481655925791 14.5689928817355)" fill="#64b83b" fill-rule="evenodd" stroke-opacity="0" stroke="#000000" stroke-width="0" stroke-linecap="square" stroke-linejoin="bevel" width="41.5285517873347" height="10.08"/><text id="shape0332" krita:useRichText="true" krita:textVersion="2" transform="matrix(0.999999900062619 0 0 0.999999900062619 77.5252750524177 25.6089918126794)" fill="#262626" stroke-opacity="0" stroke="#000000" stroke-width="0" stroke-linecap="square" stroke-linejoin="bevel" font-size="16" font-size-adjust="0.4" letter-spacing="0"><tspan x="0">No tags</tspan></text><text id="shape0333" krita:useRichText="true" krita:textVersion="2" transform="matrix(0.999999883372909 0 0 0.999999883372909 238.631860673366 25.6089917125412)" fill="#262626" stroke-opacity="0" stroke="#000000" stroke-width="0" stroke-linecap="square" stroke-linejoin="bevel" font-size="16" font-size-adjust="0.4" letter-spacing="0"><tspan x="0">Invalid tags</tspan></text><text id="shape0334" krita:useRichText="true" krita:textVersion="2" transform="matrix(0.999999840389269 0 0 0.999999840389269 423.323123865626 25.6089914546393)" fill="#262626" stroke-opacity="0" stroke="#000000" stroke-width="0" stroke-linecap="square" stroke-linejoin="bevel" font-size="16" font-size-adjust="0.4" letter-spacing="0"><tspan x="0">Valid tags</tspan></text>
</svg>
