<?xml version="1.0" standalone="no"?>
<!DOCTYPE svg PUBLIC "-//W3C//DTD SVG 20010904//EN" "http://www.w3.org/TR/2001/REC-SVG-20010904/DTD/svg10.dtd">
<!-- Created using Krita: https://krita.org -->
<svg xmlns="http://www.w3.org/2000/svg" 
    xmlns:xlink="http://www.w3.org/1999/xlink"
    xmlns:krita="http://krita.org/namespaces/svg/krita"
    xmlns:sodipodi="http://sodipodi.sourceforge.net/DTD/sodipodi-0.dtd"
    width="878.4pt"
    height="388.8pt"
    viewBox="0 0 878.4 388.8">
<defs/>
<rect id="shape0" transform="translate(108, 68.5799914501273)" fill="#ff6b5c" fill-rule="evenodd" stroke="#737373" stroke-width="3.6" stroke-linecap="square" stroke-linejoin="bevel" width="291.599974240188" height="252" rx="27.561434238203" ry="26.6384778012685"/><text id="shape1" krita:useRichText="true" krita:textVersion="2" transform="translate(126.359996236497, 94.759998204766)" fill="#000000" stroke-opacity="0" stroke="#000000" stroke-width="0" stroke-linecap="square" stroke-linejoin="bevel" font-size="15" font-size-adjust="0.4" letter-spacing="0"><tspan x="0">Project filter</tspan></text><rect id="shape2" transform="translate(117.359999978371, 172.800000021629)" fill="#f2f2f2" fill-rule="evenodd" stroke="#737373" stroke-width="1.44" stroke-linecap="square" stroke-linejoin="bevel" width="43.2" height="21.6" rx="3.48387096774194" ry="3.375"/><rect id="shape01" transform="matrix(0.999999978148216 0 0 0.999999978148216 117.584014301214 201.216008850034)" fill="#f2f2f2" fill-rule="evenodd" stroke="#737373" stroke-width="1.44" stroke-linecap="square" stroke-linejoin="bevel" width="43.2" height="21.6" rx="3.48387096774194" ry="3.375"/><rect id="shape01" transform="matrix(0.999999935172086 0 0 0.999999935172086 118.528020489756 233.008010833493)" fill="#f2f2f2" fill-rule="evenodd" stroke="#737373" stroke-width="1.44" stroke-linecap="square" stroke-linejoin="bevel" width="43.2" height="21.6" rx="3.48387096774194" ry="3.375"/><rect id="shape02" transform="matrix(0.999999935172086 0 0 0.999999935172086 318.375236452444 269.990061618567)" fill="#f2f2f2" fill-rule="evenodd" stroke="#737373" stroke-width="1.44" stroke-linecap="square" stroke-linejoin="bevel" width="43.2" height="21.6" rx="3.48387096774194" ry="3.375"/><rect id="shape03" transform="matrix(0.999999935172086 0 0 0.999999935172086 34.2880230203868 131.488013883228)" fill="#f2f2f2" fill-rule="evenodd" stroke="#737373" stroke-width="1.44" stroke-linecap="square" stroke-linejoin="bevel" width="43.2" height="21.6" rx="3.48387096774194" ry="3.375"/><rect id="shape04" transform="matrix(0.999999935172086 0 0 0.999999935172086 189.808018348452 173.248012628727)" fill="#f2f2f2" fill-rule="evenodd" stroke="#737373" stroke-width="1.44" stroke-linecap="square" stroke-linejoin="bevel" width="43.2" height="21.6" rx="3.48387096774194" ry="3.375"/><text id="shape3" krita:useRichText="true" krita:textVersion="2" transform="translate(123.659996420708, 189.799995398984)" fill="#000000" stroke-opacity="0" stroke="#000000" stroke-width="0" stroke-linecap="square" stroke-linejoin="bevel" font-size="15" font-size-adjust="0.4" letter-spacing="0"><tspan x="0">A / 1</tspan></text><text id="shape05" krita:useRichText="true" krita:textVersion="2" transform="matrix(0.999999990961325 0 0 0.999999990961325 38.1475021788374 147.519994990592)" fill="#000000" stroke-opacity="0" stroke="#000000" stroke-width="0" stroke-linecap="square" stroke-linejoin="bevel" font-size="15" font-size-adjust="0.4" letter-spacing="0"><tspan x="0">A / 2</tspan></text><text id="shape06" krita:useRichText="true" krita:textVersion="2" transform="matrix(0.999999955975707 0 0 0.999999955975707 194.640621089175 189.479989196329)" fill="#000000" stroke-opacity="0" stroke="#000000" stroke-width="0" stroke-linecap="square" stroke-linejoin="bevel" font-size="15" font-size-adjust="0.4" letter-spacing="0"><tspan x="0">A / 3</tspan></text><rect id="shape07" transform="matrix(0.999999935172086 0 0 0.999999935172086 31.408023106904 201.216009314177)" fill="#f2f2f2" fill-rule="evenodd" stroke="#737373" stroke-width="1.44" stroke-linecap="square" stroke-linejoin="bevel" width="43.2" height="21.6" rx="3.48387096774194" ry="3.375"/><rect id="shape08" transform="matrix(0.999999935172086 0 0 0.999999935172086 414.328009350653 233.008010833493)" fill="#f2f2f2" fill-rule="evenodd" stroke="#737373" stroke-width="1.44" stroke-linecap="square" stroke-linejoin="bevel" width="43.2" height="21.6" rx="3.48387096774194" ry="3.375"/><text id="shape09" krita:useRichText="true" krita:textVersion="2" transform="matrix(0.999999990961325 0 0 0.999999990961325 37.4275022004666 217.359992892547)" fill="#000000" stroke-opacity="0" stroke="#000000" stroke-width="0" stroke-linecap="square" stroke-linejoin="bevel" font-size="15" font-size-adjust="0.4" letter-spacing="0"><tspan x="0">B / 1</tspan></text><text id="shape010" krita:useRichText="true" krita:textVersion="2" transform="matrix(0.999999988317508 0 0 0.999999988317508 122.159996373979 217.559992430929)" fill="#000000" stroke-opacity="0" stroke="#000000" stroke-width="0" stroke-linecap="square" stroke-linejoin="bevel" font-size="15" font-size-adjust="0.4" letter-spacing="0"><tspan x="0">B / 2</tspan></text><text id="shape011" krita:useRichText="true" krita:textVersion="2" transform="matrix(1.00000000421622 0 0 1.00000000421622 123.15999644179 250.159995029255)" fill="#000000" stroke-opacity="0" stroke="#000000" stroke-width="0" stroke-linecap="square" stroke-linejoin="bevel" font-size="15" font-size-adjust="0.4" letter-spacing="0"><tspan x="0">C / 1</tspan></text><text id="shape012" krita:useRichText="true" krita:textVersion="2" transform="matrix(0.999999985248071 0 0 0.999999985248071 419.547802158521 248.919991616938)" fill="#000000" stroke-opacity="0" stroke="#000000" stroke-width="0" stroke-linecap="square" stroke-linejoin="bevel" font-size="15" font-size-adjust="0.4" letter-spacing="0"><tspan x="0">C / 2</tspan></text><text id="shape013" krita:useRichText="true" krita:textVersion="2" transform="matrix(0.999999934079206 0 0 0.999999934079206 323.727212032163 286.822029550365)" fill="#000000" stroke-opacity="0" stroke="#000000" stroke-width="0" stroke-linecap="square" stroke-linejoin="bevel" font-size="15" font-size-adjust="0.4" letter-spacing="0"><tspan x="0">D / 1</tspan></text><path id="shape4" transform="translate(76.6800043560603, 151.920008630317)" fill="none" stroke="#737373" stroke-width="1.44" stroke-linecap="square" stroke-linejoin="miter" stroke-miterlimit="2" d="M41.04 22.32L0 0" sodipodi:nodetypes="cc"/><path id="shape5" transform="translate(77.7676012443314, 142.107245154331)" fill="none" stroke="#737373" stroke-width="1.44" stroke-linecap="square" stroke-linejoin="miter" stroke-miterlimit="2" d="M0 0L112.672 31.4128" sodipodi:nodetypes="cc"/><path id="shape6" transform="translate(74.5200042333544, 210.960011984278)" fill="none" stroke="#737373" stroke-width="1.44" stroke-linecap="square" stroke-linejoin="miter" stroke-miterlimit="2" d="M0 0L42.7519 0.36" sodipodi:nodetypes="cc"/><path id="shape7" transform="translate(162.000005983872, 243.866992513652)" fill="none" stroke="#737373" stroke-width="1.44" stroke-linecap="square" stroke-linejoin="miter" stroke-miterlimit="2" d="M0 0L252.103 0" sodipodi:nodetypes="cc"/><rect id="shape8" transform="translate(111.74204428047, 188.422909144245)" fill="#f2f2f2" fill-rule="evenodd" stroke="#737373" stroke-width="0.72" stroke-linecap="square" stroke-linejoin="bevel" width="11.52" height="11.52" rx="2.16" ry="2.16"/><circle id="shape9" transform="translate(115.888739270367, 192.558198066271)" r="1.8" cx="1.8" cy="1.8" fill="none" stroke="#737373" stroke-width="0.72" stroke-linecap="square" stroke-linejoin="bevel"/><rect id="shape014" transform="matrix(0.999999983520014 0 0 0.999999983520014 28.6740338299497 146.890844719943)" fill="#f2f2f2" fill-rule="evenodd" stroke="#737373" stroke-width="0.72" stroke-linecap="square" stroke-linejoin="bevel" width="11.52" height="11.52" rx="2.16" ry="2.16"/><circle id="shape11" transform="matrix(0.999999983520014 0 0 0.999999983520014 32.8207287515093 151.02613357382)" r="1.8" cx="1.8" cy="1.8" fill="none" stroke="#737373" stroke-width="0.72" stroke-linecap="square" stroke-linejoin="bevel"/><rect id="shape015" transform="matrix(0.999999970167802 0 0 0.999999970167802 111.469912067472 217.679550514733)" fill="#f2f2f2" fill-rule="evenodd" stroke="#737373" stroke-width="0.72" stroke-linecap="square" stroke-linejoin="bevel" width="11.52" height="11.52" rx="2.16" ry="2.16"/><circle id="shape11" transform="matrix(0.999999970167802 0 0 0.999999970167802 115.616606933664 221.814839313394)" r="1.8" cx="1.8" cy="1.8" fill="none" stroke="#737373" stroke-width="0.72" stroke-linecap="square" stroke-linejoin="bevel"/><rect id="shape016" transform="matrix(0.999999945467214 0 0 0.999999945467214 25.4115853448504 216.898302362021)" fill="#f2f2f2" fill-rule="evenodd" stroke="#737373" stroke-width="0.72" stroke-linecap="square" stroke-linejoin="bevel" width="11.52" height="11.52" rx="2.16" ry="2.16"/><circle id="shape12" transform="matrix(0.999999945467214 0 0 0.999999945467214 29.5582801086167 221.033591058538)" r="1.8" cx="1.8" cy="1.8" fill="none" stroke="#737373" stroke-width="0.72" stroke-linecap="square" stroke-linejoin="bevel"/><rect id="shape017" transform="matrix(0.999999945467214 0 0 0.999999945467214 184.197924723068 188.88756017502)" fill="#f2f2f2" fill-rule="evenodd" stroke="#737373" stroke-width="0.72" stroke-linecap="square" stroke-linejoin="bevel" width="11.52" height="11.52" rx="2.16" ry="2.16"/><circle id="shape13" transform="matrix(0.999999945467214 0 0 0.999999945467214 188.344619486835 193.022848871537)" r="1.8" cx="1.8" cy="1.8" fill="none" stroke="#737373" stroke-width="0.72" stroke-linecap="square" stroke-linejoin="bevel"/><rect id="shape018" transform="matrix(0.999999945467214 0 0 0.999999945467214 112.725128342241 249.227225592474)" fill="#f2f2f2" fill-rule="evenodd" stroke="#737373" stroke-width="0.72" stroke-linecap="square" stroke-linejoin="bevel" width="11.52" height="11.52" rx="2.16" ry="2.16"/><path id="shape10" transform="translate(115.331803235041, 251.782723588854)" fill="none" stroke="#737373" stroke-width="1.44" stroke-linecap="square" stroke-linejoin="miter" stroke-miterlimit="2" d="M4.5 0L0 3.6" sodipodi:nodetypes="cc"/><path id="shape111" transform="translate(115.331803235041, 255.382723629027)" fill="none" stroke="#737373" stroke-width="1.44" stroke-linecap="square" stroke-linejoin="miter" stroke-miterlimit="2" d="M0 0L6.3 2.61" sodipodi:nodetypes="cc"/><rect id="shape019" transform="matrix(0.999999919306656 0 0 0.999999919306656 312.400613187967 285.687778098141)" fill="#f2f2f2" fill-rule="evenodd" stroke="#737373" stroke-width="0.72" stroke-linecap="square" stroke-linejoin="bevel" width="11.52" height="11.52" rx="2.16" ry="2.16"/><path id="shape020" transform="matrix(0.999999973839441 0 0 0.999999973839441 315.007288012574 288.243276027668)" fill="none" stroke="#737373" stroke-width="1.44" stroke-linecap="square" stroke-linejoin="miter" stroke-miterlimit="2" d="M4.5 0L0 3.6" sodipodi:nodetypes="cc"/><path id="shape14" transform="matrix(0.999999973839441 0 0 0.999999973839441 315.007288012574 291.843275973663)" fill="none" stroke="#737373" stroke-width="1.44" stroke-linecap="square" stroke-linejoin="miter" stroke-miterlimit="2" d="M0 0L6.3 2.61" sodipodi:nodetypes="cc"/><rect id="shape021" transform="matrix(0.999999919306656 0 0 0.999999919306656 408.533421840636 248.88572479821)" fill="#f2f2f2" fill-rule="evenodd" stroke="#737373" stroke-width="0.72" stroke-linecap="square" stroke-linejoin="bevel" width="11.52" height="11.52" rx="2.16" ry="2.16"/><path id="shape022" transform="matrix(0.999999973839441 0 0 0.999999973839441 411.140096665244 251.441222727737)" fill="none" stroke="#737373" stroke-width="1.44" stroke-linecap="square" stroke-linejoin="miter" stroke-miterlimit="2" d="M4.5 0L0 3.6" sodipodi:nodetypes="cc"/><path id="shape15" transform="matrix(0.999999973839441 0 0 0.999999973839441 411.140096665244 255.041222673732)" fill="none" stroke="#737373" stroke-width="1.44" stroke-linecap="square" stroke-linejoin="miter" stroke-miterlimit="2" d="M0 0L6.3 2.61" sodipodi:nodetypes="cc"/><rect id="shape023" transform="matrix(0.999999887135823 0 0 0.999999887135823 68.5700374988843 347.059617061225)" fill="#f2f2f2" fill-rule="evenodd" stroke="#737373" stroke-width="1.44" stroke-linecap="square" stroke-linejoin="bevel" width="43.2" height="21.6" rx="3.48387096774194" ry="3.375"/><text id="shape011" krita:useRichText="true" krita:textVersion="2" transform="matrix(0.999999942925059 0 0 0.999999942925059 74.5895163032935 363.203599864098)" fill="#000000" stroke-opacity="0" stroke="#000000" stroke-width="0" stroke-linecap="square" stroke-linejoin="bevel" font-size="15" font-size-adjust="0.4" letter-spacing="0"><tspan x="0">E / 1</tspan></text><rect id="shape021" transform="matrix(0.999999897430951 0 0 0.999999897430951 62.5736000248771 362.74190935575)" fill="#f2f2f2" fill-rule="evenodd" stroke="#737373" stroke-width="0.72" stroke-linecap="square" stroke-linejoin="bevel" width="11.52" height="11.52" rx="2.16" ry="2.16"/><circle id="shape16" transform="matrix(0.999999897430951 0 0 0.999999897430951 66.7202945894517 366.877197853623)" r="1.8" cx="1.8" cy="1.8" fill="none" stroke="#737373" stroke-width="0.72" stroke-linecap="square" stroke-linejoin="bevel"/><rect id="shape024" transform="matrix(0.999999860563861 0 0 0.999999860563861 126.096728858852 347.295789289304)" fill="#f2f2f2" fill-rule="evenodd" stroke="#737373" stroke-width="1.44" stroke-linecap="square" stroke-linejoin="bevel" width="43.2" height="21.6" rx="3.48387096774194" ry="3.375"/><text id="shape0111" krita:useRichText="true" krita:textVersion="2" transform="matrix(0.999999916353096 0 0 0.999999916353096 132.116207503311 363.439771663201)" fill="#000000" stroke-opacity="0" stroke="#000000" stroke-width="0" stroke-linecap="square" stroke-linejoin="bevel" font-size="15" font-size-adjust="0.4" letter-spacing="0"><tspan x="0">F / 1</tspan></text><rect id="shape0211" transform="matrix(0.999999870858989 0 0 0.999999870858989 120.100291544182 362.978081167121)" fill="#f2f2f2" fill-rule="evenodd" stroke="#737373" stroke-width="0.72" stroke-linecap="square" stroke-linejoin="bevel" width="11.52" height="11.52" rx="2.16" ry="2.16"/><circle id="shape17" transform="matrix(0.999999870858989 0 0 0.999999870858989 124.24698599857 367.113369555111)" r="1.8" cx="1.8" cy="1.8" fill="none" stroke="#737373" stroke-width="0.72" stroke-linecap="square" stroke-linejoin="bevel"/><rect id="shape025" transform="matrix(0.999999816869349 0 0 0.999999816869349 183.623414503791 347.022845522595)" fill="#f2f2f2" fill-rule="evenodd" stroke="#737373" stroke-width="1.44" stroke-linecap="square" stroke-linejoin="bevel" width="43.2" height="21.6" rx="3.48387096774194" ry="3.375"/><text id="shape0121" krita:useRichText="true" krita:textVersion="2" transform="matrix(0.999999872658581 0 0 0.999999872658581 189.642892885232 363.166827191088)" fill="#000000" stroke-opacity="0" stroke="#000000" stroke-width="0" stroke-linecap="square" stroke-linejoin="bevel" font-size="15" font-size-adjust="0.4" letter-spacing="0"><tspan x="0">G / 1</tspan></text><rect id="shape0221" transform="matrix(0.999999827164476 0 0 0.999999827164476 177.626977451133 362.705136715182)" fill="#f2f2f2" fill-rule="evenodd" stroke="#737373" stroke-width="0.72" stroke-linecap="square" stroke-linejoin="bevel" width="11.52" height="11.52" rx="2.16" ry="2.16"/><circle id="shape18" transform="matrix(0.999999827164476 0 0 0.999999827164476 181.773671724333 366.840424922482)" r="1.8" cx="1.8" cy="1.8" fill="none" stroke="#737373" stroke-width="0.72" stroke-linecap="square" stroke-linejoin="bevel"/><path id="shape121" transform="matrix(1.00048960435518 0 0 1.00036360263482 90.4777714642047 254.849189561462)" fill="none" stroke="#737373" stroke-width="1.44" stroke-linecap="square" stroke-linejoin="miter" stroke-miterlimit="2" stroke-dasharray="1.44,2.88" d="M0 92.049L47.5969 0" sodipodi:nodetypes="cc"/><path id="shape131" transform="matrix(0.999038969042136 0 0 0.99973805496025 138.240008995473 255.240016374572)" fill="none" stroke="#737373" stroke-width="1.44" stroke-linecap="square" stroke-linejoin="miter" stroke-miterlimit="2" stroke-dasharray="1.44,2.88" d="M66.1724 91.6706L0 0" sodipodi:nodetypes="cc"/><path id="shape141" transform="matrix(1 0 0 1.00036755002911 137.880008972047 255.240016374572)" fill="none" stroke="#737373" stroke-width="1.44" stroke-linecap="square" stroke-linejoin="miter" stroke-miterlimit="2" stroke-dasharray="1.44,2.88" d="M9.76388 91.661L0 0" sodipodi:nodetypes="cc"/><rect id="shape026" transform="matrix(0.999999854086953 0 0 0.999999854086953 288.119948459176 346.751911991026)" fill="#f2f2f2" fill-rule="evenodd" stroke="#737373" stroke-width="1.44" stroke-linecap="square" stroke-linejoin="bevel" width="43.2" height="21.6" rx="3.48387096774194" ry="3.375"/><text id="shape0131" krita:useRichText="true" krita:textVersion="2" transform="matrix(0.999999909876187 0 0 0.999999909876187 294.139427064648 362.89589426036)" fill="#000000" stroke-opacity="0" stroke="#000000" stroke-width="0" stroke-linecap="square" stroke-linejoin="bevel" font-size="15" font-size-adjust="0.4" letter-spacing="0"><tspan x="0">H / 1</tspan></text><rect id="shape0231" transform="matrix(0.99999986438208 0 0 0.99999986438208 282.123511183345 362.43420376727)" fill="#f2f2f2" fill-rule="evenodd" stroke="#737373" stroke-width="0.72" stroke-linecap="square" stroke-linejoin="bevel" width="11.52" height="11.52" rx="2.16" ry="2.16"/><circle id="shape19" transform="matrix(0.99999986438208 0 0 0.99999986438208 286.270205610875 366.569492128476)" r="1.8" cx="1.8" cy="1.8" fill="none" stroke="#737373" stroke-width="0.72" stroke-linecap="square" stroke-linejoin="bevel"/><rect id="shape0141" transform="matrix(0.999999810392441 0 0 0.999999810392441 345.64663373152 346.478968226085)" fill="#f2f2f2" fill-rule="evenodd" stroke="#737373" stroke-width="1.44" stroke-linecap="square" stroke-linejoin="bevel" width="43.2" height="21.6" rx="3.48387096774194" ry="3.375"/><text id="shape0112" krita:useRichText="true" krita:textVersion="2" transform="matrix(0.999999866181672 0 0 0.999999866181672 351.666112073974 362.622949790015)" fill="#000000" stroke-opacity="0" stroke="#000000" stroke-width="0" stroke-linecap="square" stroke-linejoin="bevel" font-size="15" font-size-adjust="0.4" letter-spacing="0"><tspan x="0">I / 1</tspan></text><rect id="shape0212" transform="matrix(0.999999820687568 0 0 0.999999820687568 339.650196717701 362.161259317099)" fill="#f2f2f2" fill-rule="evenodd" stroke="#737373" stroke-width="0.72" stroke-linecap="square" stroke-linejoin="bevel" width="11.52" height="11.52" rx="2.16" ry="2.16"/><circle id="shape112" transform="matrix(0.999999820687568 0 0 0.999999820687568 343.796890964043 366.296547497615)" r="1.8" cx="1.8" cy="1.8" fill="none" stroke="#737373" stroke-width="0.72" stroke-linecap="square" stroke-linejoin="bevel"/><path id="shape151" transform="matrix(1.00000032988979 0 0 0.99871332323884 308.500269241631 291.7800050609)" fill="none" stroke="#737373" stroke-width="1.44" stroke-linecap="square" stroke-linejoin="miter" stroke-miterlimit="2" stroke-dasharray="1.44,2.88" d="M0 53.743L31.8797 0" sodipodi:nodetypes="cc"/><path id="shape161" transform="matrix(1.00187788453855 0 0 0.998420094285689 340.920005987098 292.680005076705)" fill="none" stroke="#737373" stroke-width="1.44" stroke-linecap="square" stroke-linejoin="miter" stroke-miterlimit="2" stroke-dasharray="1.44,2.88" d="M27.4052 52.8792L0 0" sodipodi:nodetypes="cc"/><path id="shape027" transform="matrix(1.00000000309146 0 0 1.00000000309146 157.555119770189 251.064490700028)" fill="#6696e4" fill-rule="evenodd" stroke="#737373" stroke-width="0.72" stroke-linecap="square" stroke-linejoin="bevel" d="M0.127279 0L0 7.00036L9.54594 16.5463L16.1645 9.92778L6.36396 0.127279Z" sodipodi:nodetypes="cccccc"/><path id="shape028" transform="matrix(1.00000000309146 0 0 1.00000000309146 356.815128134009 287.064490770028)" fill="#6696e4" fill-rule="evenodd" stroke="#737373" stroke-width="0.72" stroke-linecap="square" stroke-linejoin="bevel" d="M0.127279 0L0 7.00036L9.54594 16.5463L16.1645 9.92778L6.36396 0.127279Z" sodipodi:nodetypes="cccccc"/><path id="shape029" transform="matrix(1.00000001009572 0 0 1.00000001009572 227.960902288288 190.449040886529)" fill="#55b46b" fill-rule="evenodd" stroke="#737373" stroke-width="0.72" stroke-linecap="square" stroke-linejoin="bevel" d="M0.127279 0L0 7.00036L9.54594 16.5463L16.1645 9.92778L6.36396 0.127279Z" sodipodi:nodetypes="cccccc"/><path id="shape030" transform="matrix(1.00000002007347 0 0 1.00000002007347 156.717816118338 218.822316893397)" fill="#55b46b" fill-rule="evenodd" stroke="#737373" stroke-width="0.72" stroke-linecap="square" stroke-linejoin="bevel" d="M0.127279 0L0 7.00036L9.54594 16.5463L16.1645 9.92778L6.36396 0.127279Z" sodipodi:nodetypes="cccccc"/><path id="shape031" transform="matrix(1.00000002007347 0 0 1.00000002007347 348.777828164817 288.662320009576)" fill="#55b46b" fill-rule="evenodd" stroke="#737373" stroke-width="0.72" stroke-linecap="square" stroke-linejoin="bevel" d="M0.127279 0L0 7.00036L9.54594 16.5463L16.1645 9.92778L6.36396 0.127279Z" sodipodi:nodetypes="cccccc"/><path id="shape032" transform="matrix(1.00000001233155 0 0 1.00000001233155 69.4547270797993 217.675587193478)" fill="#d2f5db" fill-rule="evenodd" stroke="#737373" stroke-width="0.72" stroke-linecap="square" stroke-linejoin="bevel" stroke-dasharray="0.72,1.44" d="M0.127279 0L0 7.00036L9.54594 16.5463L16.1645 9.92778L6.36396 0.127279Z" sodipodi:nodetypes="cccccc"/><path id="shape033" transform="matrix(1.00000002221023 0 0 1.00000002221023 161.8316456019 365.028870485531)" fill="#d2f5db" fill-rule="evenodd" stroke="#737373" stroke-width="0.72" stroke-linecap="square" stroke-linejoin="bevel" stroke-dasharray="0.72,1.44" d="M0.127279 0L0 7.00036L9.54594 16.5463L16.1645 9.92778L6.36396 0.127279Z" sodipodi:nodetypes="cccccc"/><path id="shape034" transform="matrix(1.00000002221023 0 0 1.00000002221023 427.200235881516 103.654479843417)" fill="#d2f5db" fill-rule="evenodd" stroke="#737373" stroke-width="0.72" stroke-linecap="square" stroke-linejoin="bevel" stroke-dasharray="0.72,1.44" d="M0.127279 0L0 7.00036L9.54594 16.5463L16.1645 9.92778L6.36396 0.127279Z" sodipodi:nodetypes="cccccc"/><path id="shape035" transform="matrix(1.00000001233155 0 0 1.00000001233155 427.654720518932 82.3155980919176)" fill="#55b46b" fill-rule="evenodd" stroke="#737373" stroke-width="0.72" stroke-linecap="square" stroke-linejoin="bevel" d="M0.127279 0L0 7.00036L9.54594 16.5463L16.1645 9.92778L6.36396 0.127279Z" sodipodi:nodetypes="cccccc"/><rect id="shape036" transform="matrix(0.999999860563861 0 0 0.999999860563861 421.594046794865 131.97961312277)" fill="#f2f2f2" fill-rule="evenodd" stroke="#737373" stroke-width="1.44" stroke-linecap="square" stroke-linejoin="bevel" width="43.2" height="21.6" rx="3.48387096774194" ry="3.375"/><text id="shape0151" krita:useRichText="true" krita:textVersion="2" transform="matrix(0.999999916353096 0 0 0.999999916353096 427.613525439325 148.123595496667)" fill="#000000" stroke-opacity="0" stroke="#000000" stroke-width="0" stroke-linecap="square" stroke-linejoin="bevel" font-size="15" font-size-adjust="0.4" letter-spacing="0"><tspan x="0">E / 1</tspan></text><text id="shape037" krita:useRichText="true" krita:textVersion="2" transform="matrix(0.999999969394504 0 0 0.999999969394504 15.7431179302889 27.9999962689662)" fill="#000000" stroke-opacity="0" stroke="#000000" stroke-width="0" stroke-linecap="square" stroke-linejoin="bevel" font-size="10" font-size-adjust="0.4" letter-spacing="0"><tspan x="0" font-size="20">Project filtering and labelling</tspan><tspan x="0" dy="14.25">1 project filter and 2 labels defined</tspan></text><text id="shape0161" krita:useRichText="true" krita:textVersion="2" transform="matrix(0.999999916353096 0 0 0.999999916353096 451.10981702067 93.3780044537827)" fill="#000000" stroke-opacity="0" stroke="#000000" stroke-width="0" stroke-linecap="square" stroke-linejoin="bevel" letter-spacing="0"><tspan x="0">Actual label as matched by definition, assigned to features compliant with project filter</tspan></text><text id="shape0171" krita:useRichText="true" krita:textVersion="2" transform="matrix(0.999999915251224 0 0 0.999999915251224 450.22312647978 117.451796191102)" fill="#000000" stroke-opacity="0" stroke="#000000" stroke-width="0" stroke-linecap="square" stroke-linejoin="bevel" font-size-adjust="0.4" letter-spacing="0"><tspan x="0">Unassigned label on matching feature uncompliant with project filter</tspan></text><text id="shape0181" krita:useRichText="true" krita:textVersion="2" transform="matrix(0.999999903232625 0 0 0.999999903232625 473.775623957185 148.011790178004)" fill="#000000" stroke-opacity="0" stroke="#000000" stroke-width="0" stroke-linecap="square" stroke-linejoin="bevel" font-size-adjust="0.4" letter-spacing="0"><tspan x="0">OpenStreetMap feature version (E is the feature id and 1 is the version number)</tspan></text><path id="shape038" transform="matrix(0.118998744279995 0 0 0.999999985175747 424.226600497332 175.38060671252)" fill="none" stroke="#737373" stroke-width="1.44" stroke-linecap="square" stroke-linejoin="miter" stroke-miterlimit="2" d="M0 0L327.261 0" sodipodi:nodetypes="cc"/><path id="shape171" transform="translate(424.185441962044, 199.829264389061)" fill="none" stroke="#666666" stroke-width="1.44" stroke-linecap="square" stroke-linejoin="miter" stroke-miterlimit="2" stroke-dasharray="1.44,2.88" d="M0 0L37.8 0" sodipodi:nodetypes="cc"/><text id="shape0191" krita:useRichText="true" krita:textVersion="2" transform="matrix(0.999999866181629 0 0 0.999999866181629 473.206914655779 179.72232592163)" fill="#000000" stroke-opacity="0" stroke="#000000" stroke-width="0" stroke-linecap="square" stroke-linejoin="bevel" font-size-adjust="0.4" letter-spacing="0"><tspan x="0">Links between versions of the same feature</tspan></text><text id="shape0110" krita:useRichText="true" krita:textVersion="2" transform="matrix(0.99999982372023 0 0 0.99999982372023 472.984015809534 204.977719644947)" fill="#000000" stroke-opacity="0" stroke="#000000" stroke-width="0" stroke-linecap="square" stroke-linejoin="bevel" font-size-adjust="0.4" letter-spacing="0"><tspan x="0">Membership of nodes in ways</tspan></text>
</svg>
