<?xml version="1.0" standalone="no"?>
<!DOCTYPE svg PUBLIC "-//W3C//DTD SVG 20010904//EN" "http://www.w3.org/TR/2001/REC-SVG-20010904/DTD/svg10.dtd">
<!-- Created using Krita: https://krita.org -->
<svg xmlns="http://www.w3.org/2000/svg" 
    xmlns:xlink="http://www.w3.org/1999/xlink"
    xmlns:krita="http://krita.org/namespaces/svg/krita"
    xmlns:sodipodi="http://sodipodi.sourceforge.net/DTD/sodipodi-0.dtd"
    width="1125.36pt"
    height="542.16pt"
    viewBox="0 0 1125.36 542.16">
<defs/>
<rect id="shape0" transform="matrix(1.00000001301667 0 0 1.00000001301667 0 54.0000106020762)" fill="#e6e6e6" fill-rule="evenodd" stroke-opacity="0" stroke="#000000" stroke-width="0" stroke-linecap="square" stroke-linejoin="bevel" width="659.52" height="483.84" rx="2.16" ry="2.16"/><rect id="shape01" transform="matrix(0.999999962333745 0 0 0.999999962333745 113.960029449685 113.060037086399)" fill="#f6fdff" fill-rule="evenodd" stroke="#737373" stroke-width="1.44" stroke-linecap="square" stroke-linejoin="bevel" width="486.519979637254" height="385.179978040098" rx="45.9848752020088" ry="40.7166995814057"/><rect id="shape01" transform="matrix(0.999999985222882 0 0 0.999999985222882 213.839996775712 168.300013393965)" fill="#ff6b5c" fill-rule="evenodd" stroke="#737373" stroke-width="3.6" stroke-linecap="square" stroke-linejoin="bevel" width="291.599974240188" height="252" rx="27.561434238203" ry="26.6384778012685"/><text id="shape1" krita:useRichText="true" krita:textVersion="2" transform="matrix(0.999999985222882 0 0 0.999999985222882 237.291161523671 186.334149709307)" fill="#000000" stroke-opacity="0" stroke="#000000" stroke-width="0" stroke-linecap="square" stroke-linejoin="bevel" font-size="15" font-size-adjust="0.4" letter-spacing="0"><tspan x="0">Project filter</tspan></text><rect id="shape2" transform="matrix(0.999999985222882 0 0 0.999999985222882 223.199996615769 272.520020425396)" fill="#f2f2f2" fill-rule="evenodd" stroke="#737373" stroke-width="1.44" stroke-linecap="square" stroke-linejoin="bevel" width="43.2" height="21.6" rx="3.48387096774194" ry="3.375"/><rect id="shape011" transform="matrix(0.999999963371097 0 0 0.999999963371097 223.424010935302 300.936028833894)" fill="#f2f2f2" fill-rule="evenodd" stroke="#737373" stroke-width="1.44" stroke-linecap="square" stroke-linejoin="bevel" width="43.2" height="21.6" rx="3.48387096774194" ry="3.375"/><rect id="shape011" transform="matrix(0.999999920394968 0 0 0.999999920394968 224.368017109894 332.728030347559)" fill="#f2f2f2" fill-rule="evenodd" stroke="#737373" stroke-width="1.44" stroke-linecap="square" stroke-linejoin="bevel" width="43.2" height="21.6" rx="3.48387096774194" ry="3.375"/><rect id="shape02" transform="matrix(0.999999920394968 0 0 0.999999920394968 424.215230119416 369.710080586145)" fill="#f2f2f2" fill-rule="evenodd" stroke="#737373" stroke-width="1.44" stroke-linecap="square" stroke-linejoin="bevel" width="43.2" height="21.6" rx="3.48387096774194" ry="3.375"/><rect id="shape03" transform="matrix(0.999999920394968 0 0 0.999999920394968 140.128020885349 231.208034897467)" fill="#f2f2f2" fill-rule="evenodd" stroke="#737373" stroke-width="1.44" stroke-linecap="square" stroke-linejoin="bevel" width="43.2" height="21.6" rx="3.48387096774194" ry="3.375"/><rect id="shape04" transform="matrix(0.999999920394968 0 0 0.999999920394968 295.648013915277 272.968033025873)" fill="#f2f2f2" fill-rule="evenodd" stroke="#737373" stroke-width="1.44" stroke-linecap="square" stroke-linejoin="bevel" width="43.2" height="21.6" rx="3.48387096774194" ry="3.375"/><text id="shape3" krita:useRichText="true" krita:textVersion="2" transform="matrix(0.999999985222882 0 0 0.999999985222882 229.49999296501 289.52001555154)" fill="#000000" stroke-opacity="0" stroke="#000000" stroke-width="0" stroke-linecap="square" stroke-linejoin="bevel" font-size="15" font-size-adjust="0.4" letter-spacing="0"><tspan x="0">A / 1</tspan></text><text id="shape05" krita:useRichText="true" krita:textVersion="2" transform="matrix(0.999999976184207 0 0 0.999999976184207 143.987499986767 247.240015767924)" fill="#000000" stroke-opacity="0" stroke="#000000" stroke-width="0" stroke-linecap="square" stroke-linejoin="bevel" font-size="15" font-size-adjust="0.4" letter-spacing="0"><tspan x="0">A / 2</tspan></text><text id="shape06" krita:useRichText="true" krita:textVersion="2" transform="matrix(0.999999941198589 0 0 0.999999941198589 300.480616584588 289.200009353613)" fill="#000000" stroke-opacity="0" stroke="#000000" stroke-width="0" stroke-linecap="square" stroke-linejoin="bevel" font-size="15" font-size-adjust="0.4" letter-spacing="0"><tspan x="0">A / 3</tspan></text><rect id="shape07" transform="matrix(0.999999920394968 0 0 0.999999920394968 137.248021014425 300.936029298037)" fill="#f2f2f2" fill-rule="evenodd" stroke="#737373" stroke-width="1.44" stroke-linecap="square" stroke-linejoin="bevel" width="43.2" height="21.6" rx="3.48387096774194" ry="3.375"/><rect id="shape08" transform="matrix(0.999999920394968 0 0 0.999999920394968 520.16800159972 332.728030347559)" fill="#f2f2f2" fill-rule="evenodd" stroke="#737373" stroke-width="1.44" stroke-linecap="square" stroke-linejoin="bevel" width="43.2" height="21.6" rx="3.48387096774194" ry="3.375"/><text id="shape09" krita:useRichText="true" krita:textVersion="2" transform="matrix(0.999999976184207 0 0 0.999999976184207 143.267500019036 317.080012637845)" fill="#000000" stroke-opacity="0" stroke="#000000" stroke-width="0" stroke-linecap="square" stroke-linejoin="bevel" font-size="15" font-size-adjust="0.4" letter-spacing="0"><tspan x="0">B / 1</tspan></text><text id="shape010" krita:useRichText="true" krita:textVersion="2" transform="matrix(0.999999973540389 0 0 0.999999973540389 227.999992940447 317.280012173273)" fill="#000000" stroke-opacity="0" stroke="#000000" stroke-width="0" stroke-linecap="square" stroke-linejoin="bevel" font-size="15" font-size-adjust="0.4" letter-spacing="0"><tspan x="0">B / 2</tspan></text><text id="shape0111" krita:useRichText="true" krita:textVersion="2" transform="matrix(0.999999989439102 0 0 0.999999989439102 228.999992993481 349.880014289864)" fill="#000000" stroke-opacity="0" stroke="#000000" stroke-width="0" stroke-linecap="square" stroke-linejoin="bevel" font-size="15" font-size-adjust="0.4" letter-spacing="0"><tspan x="0">C / 1</tspan></text><text id="shape012" krita:useRichText="true" krita:textVersion="2" transform="matrix(0.999999970470952 0 0 0.999999970470952 525.387794330454 348.640010895871)" fill="#000000" stroke-opacity="0" stroke="#000000" stroke-width="0" stroke-linecap="square" stroke-linejoin="bevel" font-size="15" font-size-adjust="0.4" letter-spacing="0"><tspan x="0">C / 2</tspan></text><text id="shape013" krita:useRichText="true" krita:textVersion="2" transform="matrix(0.999999919302089 0 0 0.999999919302089 429.567205620049 386.542048269214)" fill="#000000" stroke-opacity="0" stroke="#000000" stroke-width="0" stroke-linecap="square" stroke-linejoin="bevel" font-size="15" font-size-adjust="0.4" letter-spacing="0"><tspan x="0">D / 1</tspan></text><path id="shape4" transform="matrix(0.999999985222882 0 0 0.999999985222882 182.520001594591 251.64002934263)" fill="none" stroke="#737373" stroke-width="1.44" stroke-linecap="square" stroke-linejoin="miter" stroke-miterlimit="2" d="M41.04 22.32L0 0" sodipodi:nodetypes="cc"/><path id="shape5" transform="matrix(0.999999985222882 0 0 0.999999985222882 183.607598466791 241.827266011648)" fill="none" stroke="#737373" stroke-width="1.44" stroke-linecap="square" stroke-linejoin="miter" stroke-miterlimit="2" d="M0 0L112.672 31.4128" sodipodi:nodetypes="cc"/><path id="shape6" transform="matrix(0.999999985222882 0 0 0.999999985222882 180.360001503804 310.68003182415)" fill="none" stroke="#737373" stroke-width="1.44" stroke-linecap="square" stroke-linejoin="miter" stroke-miterlimit="2" d="M0 0L42.7519 0.36" sodipodi:nodetypes="cc"/><path id="shape7" transform="matrix(0.999999985222882 0 0 0.999999985222882 267.840001961619 343.587011867254)" fill="none" stroke="#737373" stroke-width="1.44" stroke-linecap="square" stroke-linejoin="miter" stroke-miterlimit="2" d="M0 0L252.103 0" sodipodi:nodetypes="cc"/><rect id="shape8" transform="matrix(0.999999985222882 0 0 0.999999985222882 217.582041000885 288.142929317151)" fill="#f2f2f2" fill-rule="evenodd" stroke="#737373" stroke-width="0.72" stroke-linecap="square" stroke-linejoin="bevel" width="11.52" height="11.52" rx="2.16" ry="2.16"/><circle id="shape9" transform="matrix(0.999999985222882 0 0 0.999999985222882 221.728735929506 292.278218178069)" r="1.8" cx="1.8" cy="1.8" fill="none" stroke="#737373" stroke-width="0.72" stroke-linecap="square" stroke-linejoin="bevel"/><rect id="shape014" transform="matrix(0.999999968742895 0 0 0.999999968742895 134.51403177787 246.610865506573)" fill="#f2f2f2" fill-rule="evenodd" stroke="#737373" stroke-width="0.72" stroke-linecap="square" stroke-linejoin="bevel" width="11.52" height="11.52" rx="2.16" ry="2.16"/><circle id="shape11" transform="matrix(0.999999968742895 0 0 0.999999968742895 138.660726638155 250.746154299341)" r="1.8" cx="1.8" cy="1.8" fill="none" stroke="#737373" stroke-width="0.72" stroke-linecap="square" stroke-linejoin="bevel"/><rect id="shape015" transform="matrix(0.999999955390683 0 0 0.999999955390683 217.309908791909 317.39957025531)" fill="#f2f2f2" fill-rule="evenodd" stroke="#737373" stroke-width="0.72" stroke-linecap="square" stroke-linejoin="bevel" width="11.52" height="11.52" rx="2.16" ry="2.16"/><circle id="shape111" transform="matrix(0.999999955390683 0 0 0.999999955390683 221.456603596824 321.534858992862)" r="1.8" cx="1.8" cy="1.8" fill="none" stroke="#737373" stroke-width="0.72" stroke-linecap="square" stroke-linejoin="bevel"/><rect id="shape016" transform="matrix(0.999999930690096 0 0 0.999999930690096 131.251583340981 316.618322114143)" fill="#f2f2f2" fill-rule="evenodd" stroke="#737373" stroke-width="0.72" stroke-linecap="square" stroke-linejoin="bevel" width="11.52" height="11.52" rx="2.16" ry="2.16"/><circle id="shape12" transform="matrix(0.999999930690096 0 0 0.999999930690096 135.398278043471 320.753610749551)" r="1.8" cx="1.8" cy="1.8" fill="none" stroke="#737373" stroke-width="0.72" stroke-linecap="square" stroke-linejoin="bevel"/><rect id="shape017" transform="matrix(0.999999930690096 0 0 0.999999930690096 290.037920372794 288.607580341059)" fill="#f2f2f2" fill-rule="evenodd" stroke="#737373" stroke-width="0.72" stroke-linecap="square" stroke-linejoin="bevel" width="11.52" height="11.52" rx="2.16" ry="2.16"/><circle id="shape13" transform="matrix(0.999999930690096 0 0 0.999999930690096 294.184615075284 292.742868976469)" r="1.8" cx="1.8" cy="1.8" fill="none" stroke="#737373" stroke-width="0.72" stroke-linecap="square" stroke-linejoin="bevel"/><rect id="shape018" transform="matrix(0.999999930690096 0 0 0.999999930690096 218.565125048129 348.947244866866)" fill="#f2f2f2" fill-rule="evenodd" stroke="#737373" stroke-width="0.72" stroke-linecap="square" stroke-linejoin="bevel" width="11.52" height="11.52" rx="2.16" ry="2.16"/><path id="shape10" transform="matrix(0.999999985222882 0 0 0.999999985222882 221.17179990241 351.502742825483)" fill="none" stroke="#737373" stroke-width="1.44" stroke-linecap="square" stroke-linejoin="miter" stroke-miterlimit="2" d="M4.5 0L0 3.6" sodipodi:nodetypes="cc"/><path id="shape1111" transform="matrix(0.999999985222882 0 0 0.999999985222882 221.17179990241 355.102742812459)" fill="none" stroke="#737373" stroke-width="1.44" stroke-linecap="square" stroke-linejoin="miter" stroke-miterlimit="2" d="M0 0L6.3 2.61" sodipodi:nodetypes="cc"/><rect id="shape019" transform="matrix(0.999999904529539 0 0 0.999999904529539 418.240606943227 385.407796833751)" fill="#f2f2f2" fill-rule="evenodd" stroke="#737373" stroke-width="0.72" stroke-linecap="square" stroke-linejoin="bevel" width="11.52" height="11.52" rx="2.16" ry="2.16"/><path id="shape020" transform="matrix(0.999999959062322 0 0 0.999999959062322 420.847281729314 387.963294725516)" fill="none" stroke="#737373" stroke-width="1.44" stroke-linecap="square" stroke-linejoin="miter" stroke-miterlimit="2" d="M4.5 0L0 3.6" sodipodi:nodetypes="cc"/><path id="shape14" transform="matrix(0.999999959062322 0 0 0.999999959062322 420.847281729314 391.563294618313)" fill="none" stroke="#737373" stroke-width="1.44" stroke-linecap="square" stroke-linejoin="miter" stroke-miterlimit="2" d="M0 0L6.3 2.61" sodipodi:nodetypes="cc"/><rect id="shape021" transform="matrix(0.999999904529539 0 0 0.999999904529539 514.37341417533 348.605744077649)" fill="#f2f2f2" fill-rule="evenodd" stroke="#737373" stroke-width="0.72" stroke-linecap="square" stroke-linejoin="bevel" width="11.52" height="11.52" rx="2.16" ry="2.16"/><path id="shape022" transform="matrix(0.999999959062322 0 0 0.999999959062322 516.980088961419 351.161241969413)" fill="none" stroke="#737373" stroke-width="1.44" stroke-linecap="square" stroke-linejoin="miter" stroke-miterlimit="2" d="M4.5 0L0 3.6" sodipodi:nodetypes="cc"/><path id="shape15" transform="matrix(0.999999959062322 0 0 0.999999959062322 516.980088961419 354.76124186221)" fill="none" stroke="#737373" stroke-width="1.44" stroke-linecap="square" stroke-linejoin="miter" stroke-miterlimit="2" d="M0 0L6.3 2.61" sodipodi:nodetypes="cc"/><rect id="shape023" transform="matrix(0.999999872358706 0 0 0.999999872358706 174.410034857257 446.779634889937)" fill="#f2f2f2" fill-rule="evenodd" stroke="#737373" stroke-width="1.44" stroke-linecap="square" stroke-linejoin="bevel" width="43.2" height="21.6" rx="3.48387096774194" ry="3.375"/><text id="shape0111" krita:useRichText="true" krita:textVersion="2" transform="matrix(0.999999928147941 0 0 0.999999928147941 180.429513572716 462.923617454248)" fill="#000000" stroke-opacity="0" stroke="#000000" stroke-width="0" stroke-linecap="square" stroke-linejoin="bevel" font-size="15" font-size-adjust="0.4" letter-spacing="0"><tspan x="0">E / 1</tspan></text><rect id="shape0211" transform="matrix(0.999999882653834 0 0 0.999999882653834 168.41359747186 462.461926952722)" fill="#f2f2f2" fill-rule="evenodd" stroke="#737373" stroke-width="0.72" stroke-linecap="square" stroke-linejoin="bevel" width="11.52" height="11.52" rx="2.16" ry="2.16"/><circle id="shape16" transform="matrix(0.999999882653834 0 0 0.999999882653834 172.560291975159 466.597215389488)" r="1.8" cx="1.8" cy="1.8" fill="none" stroke="#737373" stroke-width="0.72" stroke-linecap="square" stroke-linejoin="bevel"/><rect id="shape024" transform="matrix(0.999999845786745 0 0 0.999999845786745 231.936725367146 447.015807114526)" fill="#f2f2f2" fill-rule="evenodd" stroke="#737373" stroke-width="1.44" stroke-linecap="square" stroke-linejoin="bevel" width="43.2" height="21.6" rx="3.48387096774194" ry="3.375"/><text id="shape01111" krita:useRichText="true" krita:textVersion="2" transform="matrix(0.999999901575979 0 0 0.999999901575979 237.956203922655 463.159789249861)" fill="#000000" stroke-opacity="0" stroke="#000000" stroke-width="0" stroke-linecap="square" stroke-linejoin="bevel" font-size="15" font-size-adjust="0.4" letter-spacing="0"><tspan x="0">F / 1</tspan></text><rect id="shape02111" transform="matrix(0.999999856081872 0 0 0.999999856081872 225.940288141087 462.698098760604)" fill="#f2f2f2" fill-rule="evenodd" stroke="#737373" stroke-width="0.72" stroke-linecap="square" stroke-linejoin="bevel" width="11.52" height="11.52" rx="2.16" ry="2.16"/><circle id="shape17" transform="matrix(0.999999856081872 0 0 0.999999856081872 230.086982534198 466.833387087486)" r="1.8" cx="1.8" cy="1.8" fill="none" stroke="#737373" stroke-width="0.72" stroke-linecap="square" stroke-linejoin="bevel"/><rect id="shape025" transform="matrix(0.999999802092233 0 0 0.999999802092233 289.463410162007 446.74286335185)" fill="#f2f2f2" fill-rule="evenodd" stroke="#737373" stroke-width="1.44" stroke-linecap="square" stroke-linejoin="bevel" width="43.2" height="21.6" rx="3.48387096774194" ry="3.375"/><text id="shape0121" krita:useRichText="true" krita:textVersion="2" transform="matrix(0.999999857881464 0 0 0.999999857881464 295.482888454498 462.886844781781)" fill="#000000" stroke-opacity="0" stroke="#000000" stroke-width="0" stroke-linecap="square" stroke-linejoin="bevel" font-size="15" font-size-adjust="0.4" letter-spacing="0"><tspan x="0">G / 1</tspan></text><rect id="shape0221" transform="matrix(0.999999812387359 0 0 0.999999812387359 283.466973197958 462.425154312699)" fill="#f2f2f2" fill-rule="evenodd" stroke="#737373" stroke-width="0.72" stroke-linecap="square" stroke-linejoin="bevel" width="11.52" height="11.52" rx="2.16" ry="2.16"/><circle id="shape18" transform="matrix(0.999999812387359 0 0 0.999999812387359 287.613667409883 466.56044245889)" r="1.8" cx="1.8" cy="1.8" fill="none" stroke="#737373" stroke-width="0.72" stroke-linecap="square" stroke-linejoin="bevel"/><path id="shape121" transform="matrix(1.00048958957083 0 0 1.00036358785233 196.317768498844 354.569208752779)" fill="none" stroke="#737373" stroke-width="1.44" stroke-linecap="square" stroke-linejoin="miter" stroke-miterlimit="2" stroke-dasharray="1.44,2.88" d="M0 92.049L47.5969 0" sodipodi:nodetypes="cc"/><path id="shape131" transform="matrix(0.999038954279218 0 0 0.999738040187002 244.080005324324 354.960035560113)" fill="none" stroke="#737373" stroke-width="1.44" stroke-linecap="square" stroke-linejoin="miter" stroke-miterlimit="2" stroke-dasharray="1.44,2.88" d="M66.1724 91.6706L0 0" sodipodi:nodetypes="cc"/><path id="shape141" transform="matrix(0.999999985222882 0 0 1.00036753524656 243.720005306218 354.960035560113)" fill="none" stroke="#737373" stroke-width="1.44" stroke-linecap="square" stroke-linejoin="miter" stroke-miterlimit="2" stroke-dasharray="1.44,2.88" d="M9.76388 91.661L0 0" sodipodi:nodetypes="cc"/><rect id="shape026" transform="matrix(0.999999839309837 0 0 0.999999839309837 393.959942573234 446.471929824285)" fill="#f2f2f2" fill-rule="evenodd" stroke="#737373" stroke-width="1.44" stroke-linecap="square" stroke-linejoin="bevel" width="43.2" height="21.6" rx="3.48387096774194" ry="3.375"/><text id="shape0131" krita:useRichText="true" krita:textVersion="2" transform="matrix(0.999999895099069 0 0 0.999999895099069 399.979421089755 462.615911855058)" fill="#000000" stroke-opacity="0" stroke="#000000" stroke-width="0" stroke-linecap="square" stroke-linejoin="bevel" font-size="15" font-size-adjust="0.4" letter-spacing="0"><tspan x="0">H / 1</tspan></text><rect id="shape0231" transform="matrix(0.999999849604963 0 0 0.999999849604963 387.963505386013 462.15422136879)" fill="#f2f2f2" fill-rule="evenodd" stroke="#737373" stroke-width="0.72" stroke-linecap="square" stroke-linejoin="bevel" width="11.52" height="11.52" rx="2.16" ry="2.16"/><circle id="shape19" transform="matrix(0.999999849604963 0 0 0.999999849604963 392.110199752267 466.289509668888)" r="1.8" cx="1.8" cy="1.8" fill="none" stroke="#737373" stroke-width="0.72" stroke-linecap="square" stroke-linejoin="bevel"/><rect id="shape0141" transform="matrix(0.999999795615325 0 0 0.999999795615325 451.486626995499 446.198986063377)" fill="#f2f2f2" fill-rule="evenodd" stroke="#737373" stroke-width="1.44" stroke-linecap="square" stroke-linejoin="bevel" width="43.2" height="21.6" rx="3.48387096774194" ry="3.375"/><text id="shape0112" krita:useRichText="true" krita:textVersion="2" transform="matrix(0.999999851404556 0 0 0.999999851404556 457.506105249003 462.342967388746)" fill="#000000" stroke-opacity="0" stroke="#000000" stroke-width="0" stroke-linecap="square" stroke-linejoin="bevel" font-size="15" font-size-adjust="0.4" letter-spacing="0"><tspan x="0">I / 1</tspan></text><rect id="shape0212" transform="matrix(0.999999805910452 0 0 0.999999805910452 445.490190070291 461.881276922652)" fill="#f2f2f2" fill-rule="evenodd" stroke="#737373" stroke-width="0.72" stroke-linecap="square" stroke-linejoin="bevel" width="11.52" height="11.52" rx="2.16" ry="2.16"/><circle id="shape112" transform="matrix(0.999999805910452 0 0 0.999999805910452 449.636884255356 466.016565042061)" r="1.8" cx="1.8" cy="1.8" fill="none" stroke="#737373" stroke-width="0.72" stroke-linecap="square" stroke-linejoin="bevel"/><path id="shape151" transform="matrix(1.00000031511266 0 0 0.998713308480734 414.340263054527 391.500023706485)" fill="none" stroke="#737373" stroke-width="1.44" stroke-linecap="square" stroke-linejoin="miter" stroke-miterlimit="2" stroke-dasharray="1.44,2.88" d="M0 53.743L31.8797 0" sodipodi:nodetypes="cc"/><path id="shape161" transform="matrix(1.00187786973368 0 0 0.998420079531917 446.759999320923 392.400023708991)" fill="none" stroke="#737373" stroke-width="1.44" stroke-linecap="square" stroke-linejoin="miter" stroke-miterlimit="2" stroke-dasharray="1.44,2.88" d="M27.4052 52.8792L0 0" sodipodi:nodetypes="cc"/><path id="shape027" transform="matrix(0.999999988314342 0 0 0.999999988314342 263.395115813619 350.784509947271)" fill="#6696e4" fill-rule="evenodd" stroke="#737373" stroke-width="0.72" stroke-linecap="square" stroke-linejoin="bevel" d="M0.127279 0L0 7.00036L9.54594 16.5463L16.1645 9.92778L6.36396 0.127279Z" sodipodi:nodetypes="cccccc"/><path id="shape028" transform="matrix(0.999999988314342 0 0 0.999999988314342 462.65512123295 386.784509485295)" fill="#6696e4" fill-rule="evenodd" stroke="#737373" stroke-width="0.72" stroke-linecap="square" stroke-linejoin="bevel" d="M0.127279 0L0 7.00036L9.54594 16.5463L16.1645 9.92778L6.36396 0.127279Z" sodipodi:nodetypes="cccccc"/><path id="shape029" transform="matrix(0.999999995318601 0 0 0.999999995318601 333.800897291323 290.169061029494)" fill="#55b46b" fill-rule="evenodd" stroke="#737373" stroke-width="0.72" stroke-linecap="square" stroke-linejoin="bevel" d="M0.127279 0L0 7.00036L9.54594 16.5463L16.1645 9.92778L6.36396 0.127279Z" sodipodi:nodetypes="cccccc"/><path id="shape030" transform="matrix(1.00000000529635 0 0 1.00000000529635 262.557812174141 318.542336617087)" fill="#55b46b" fill-rule="evenodd" stroke="#737373" stroke-width="0.72" stroke-linecap="square" stroke-linejoin="bevel" d="M0.127279 0L0 7.00036L9.54594 16.5463L16.1645 9.92778L6.36396 0.127279Z" sodipodi:nodetypes="cccccc"/><path id="shape031" transform="matrix(1.00000000529635 0 0 1.00000000529635 454.617821382526 388.382338701232)" fill="#55b46b" fill-rule="evenodd" stroke="#737373" stroke-width="0.72" stroke-linecap="square" stroke-linejoin="bevel" d="M0.127279 0L0 7.00036L9.54594 16.5463L16.1645 9.92778L6.36396 0.127279Z" sodipodi:nodetypes="cccccc"/><path id="shape032" transform="matrix(0.999999997554431 0 0 0.999999997554431 175.294724425099 317.395606934113)" fill="#d2f5db" fill-rule="evenodd" stroke="#737373" stroke-width="0.72" stroke-linecap="square" stroke-linejoin="bevel" stroke-dasharray="0.72,1.44" d="M0.127279 0L0 7.00036L9.54594 16.5463L16.1645 9.92778L6.36396 0.127279Z" sodipodi:nodetypes="cccccc"/><path id="shape033" transform="matrix(1.00000000743311 0 0 1.00000000743311 267.671641582135 464.748888048709)" fill="#d2f5db" fill-rule="evenodd" stroke="#737373" stroke-width="0.72" stroke-linecap="square" stroke-linejoin="bevel" stroke-dasharray="0.72,1.44" d="M0.127279 0L0 7.00036L9.54594 16.5463L16.1645 9.92778L6.36396 0.127279Z" sodipodi:nodetypes="cccccc"/><text id="shape037" krita:useRichText="true" krita:textVersion="2" transform="matrix(0.999999954617385 0 0 0.999999954617385 12.5031177474987 24.7600204537307)" fill="#000000" stroke-opacity="0" stroke="#000000" stroke-width="0" stroke-linecap="square" stroke-linejoin="bevel" font-size="10" font-size-adjust="0.4" letter-spacing="0"><tspan x="0" font-size="20">Project filtering and labelling</tspan><tspan x="0" dy="14.25">1 project filter and 2 labels defined</tspan></text><g id="group0" transform="matrix(1.00000001301667 0 0 1.00000001301667 667.834036776492 51.9780296970242)" fill="none">
  <path id="shape034" transform="matrix(0.999999994416443 0 0 0.999999994416443 5.60618893083358 28.2764730980798)" fill="#d2f5db" fill-rule="evenodd" stroke="#737373" stroke-width="0.72" stroke-linecap="square" stroke-linejoin="bevel" stroke-dasharray="0.72,1.44" d="M0.127279 0L0 7.00036L9.54594 16.5463L16.1645 9.92778L6.36396 0.127279Z" sodipodi:nodetypes="cccccc"/>
  <path id="shape035" transform="matrix(0.999999984537763 0 0 0.999999984537763 6.06067355561777 6.93759193966875)" fill="#55b46b" fill-rule="evenodd" stroke="#737373" stroke-width="0.72" stroke-linecap="square" stroke-linejoin="bevel" d="M0.127279 0L0 7.00036L9.54594 16.5463L16.1645 9.92778L6.36396 0.127279Z" sodipodi:nodetypes="cccccc"/>
  <rect id="shape036" transform="matrix(0.999999832770079 0 0 0.999999832770079 0 56.6016055901691)" fill="#f2f2f2" fill-rule="evenodd" stroke="#737373" stroke-width="1.44" stroke-linecap="square" stroke-linejoin="bevel" width="43.2" height="21.6" rx="3.48387096774194" ry="3.375"/><text id="shape0151" krita:useRichText="true" krita:textVersion="2" transform="matrix(0.999999888559312 0 0 0.999999888559312 6.01947847715587 72.7455875153648)" fill="#000000" stroke-opacity="0" stroke="#000000" stroke-width="0" stroke-linecap="square" stroke-linejoin="bevel" font-size="15" font-size-adjust="0.4" letter-spacing="0"><tspan x="0">E / 1</tspan></text><text id="shape0161" krita:useRichText="true" krita:textVersion="2" transform="matrix(0.999999888559312 0 0 0.999999888559312 29.51576940545 17.9999979940677)" fill="#000000" stroke-opacity="0" stroke="#000000" stroke-width="0" stroke-linecap="square" stroke-linejoin="bevel" letter-spacing="0"><tspan x="0">Actual label as matched by definition, assigned to features compliant with project filter</tspan></text><text id="shape0171" krita:useRichText="true" krita:textVersion="2" transform="matrix(0.99999988745744 0 0 0.99999988745744 28.6290788892044 42.0737890622852)" fill="#000000" stroke-opacity="0" stroke="#000000" stroke-width="0" stroke-linecap="square" stroke-linejoin="bevel" font-size-adjust="0.4" letter-spacing="0"><tspan x="0">Unassigned label on matching feature uncompliant with project filter</tspan></text><text id="shape0181" krita:useRichText="true" krita:textVersion="2" transform="matrix(0.999999875438841 0 0 0.999999875438841 52.1815757119965 72.6337821998092)" fill="#000000" stroke-opacity="0" stroke="#000000" stroke-width="0" stroke-linecap="square" stroke-linejoin="bevel" font-size-adjust="0.4" letter-spacing="0"><tspan x="0">OpenStreetMap feature version (E is the feature id and 1 is the version number)</tspan></text>
  <path id="shape038" transform="matrix(0.118998740972569 0 0 0.999999957381961 2.63255362929829 100.002597973642)" fill="none" stroke="#737373" stroke-width="1.44" stroke-linecap="square" stroke-linejoin="miter" stroke-miterlimit="2" d="M0 0L327.261 0" sodipodi:nodetypes="cc"/>
  <path id="shape171" transform="matrix(0.999999972206214 0 0 0.999999972206214 2.59139509515433 124.451254970662)" fill="none" stroke="#666666" stroke-width="1.44" stroke-linecap="square" stroke-linejoin="miter" stroke-miterlimit="2" stroke-dasharray="1.44,2.88" d="M0 0L37.8 0" sodipodi:nodetypes="cc"/><text id="shape0191" krita:useRichText="true" krita:textVersion="2" transform="matrix(0.999999838387846 0 0 0.999999838387846 51.6128664263972 104.344317062079)" fill="#000000" stroke-opacity="0" stroke="#000000" stroke-width="0" stroke-linecap="square" stroke-linejoin="bevel" font-size-adjust="0.4" letter-spacing="0"><tspan x="0">Links between versions of the same feature</tspan></text><text id="shape0110" krita:useRichText="true" krita:textVersion="2" transform="matrix(0.999999795926449 0 0 0.999999795926449 51.389967586347 129.599710083453)" fill="#000000" stroke-opacity="0" stroke="#000000" stroke-width="0" stroke-linecap="square" stroke-linejoin="bevel" font-size-adjust="0.4" letter-spacing="0"><tspan x="0">Membership of nodes in ways</tspan></text>
 </g><text id="shape111" krita:useRichText="true" krita:textVersion="2" transform="matrix(1.00000000576553 0 0 1.00000000576553 4.94314266681265 71.2000332512596)" fill="#000000" stroke-opacity="0" stroke="#000000" stroke-width="0" stroke-linecap="square" stroke-linejoin="bevel" font-size="15" font-size-adjust="0.4" letter-spacing="0"><tspan x="0">OpenStreetMap world</tspan></text><text id="shape121" krita:useRichText="true" krita:textVersion="2" transform="matrix(1.00000000810056 0 0 1.00000000810056 153.16219800335 131.160031779661)" fill="#000000" stroke-opacity="0" stroke="#000000" stroke-width="0" stroke-linecap="square" stroke-linejoin="bevel" font-size="15" font-size-adjust="0.385937" font-stretch="normal" kerning="0" letter-spacing="0" word-spacing="0"><tspan x="0">Out of the scope features</tspan></text><text id="shape131" krita:useRichText="true" krita:textVersion="2" transform="matrix(0.99999998278527 0 0 0.99999998278527 154.267827257779 142.880027957329)" fill="#000000" stroke-opacity="0" stroke="#000000" stroke-width="0" stroke-linecap="square" stroke-linejoin="bevel" font-size="10" font-size-adjust="0.4" font-stretch="normal" kerning="0" letter-spacing="0" word-spacing="0"><tspan x="0">Referenced by filtered features</tspan></text>
</svg>
